<svg xmlns="http://www.w3.org/2000/svg" width="698" height="155" fill="none" viewBox="0 0 698 155"><path fill="#fff" d="M166.236 125.734q0 1.4.718 2.443a8.3 8.3 0 0 0 1.832 1.832q1.149.825 2.406 1.616 1.365.826 2.587 1.76a8.3 8.3 0 0 1 2.047 2.155q.826 1.185.826 2.909 0 1.868-.97 3.305-.969 1.4-2.694 2.227-1.687.79-3.987.79-.969 0-2.047-.18a12.5 12.5 0 0 1-1.975-.502q-.898-.324-1.473-.683a1.2 1.2 0 0 1-.251-.251 1.4 1.4 0 0 1-.108-.431l-.216-5.424q-.036-.18.144-.18.215-.036.251.108.432 1.078 1.006 2.299.61 1.185 1.401 2.191a7.3 7.3 0 0 0 1.796 1.652q1.041.61 2.37.611.935 0 1.76-.323.826-.324 1.365-1.114.539-.826.539-2.227 0-1.688-.79-2.873a7.8 7.8 0 0 0-1.94-2.119 30 30 0 0 0-2.478-1.689 47 47 0 0 1-2.407-1.688 8.3 8.3 0 0 1-1.903-1.975q-.719-1.15-.719-2.766 0-1.976 1.078-3.233 1.077-1.257 2.73-1.867a10.1 10.1 0 0 1 3.448-.611q1.185 0 2.406.216 1.222.215 2.084.61.323.108.431.287.107.18.107.396l.072 4.849q0 .143-.179.179-.144.036-.216-.072-.18-.539-.539-1.472a9.4 9.4 0 0 0-1.005-1.94 6.2 6.2 0 0 0-1.617-1.652q-.969-.683-2.37-.683-1.078 0-1.868.431a3 3 0 0 0-1.221 1.222q-.432.753-.431 1.867m18.743 9.806.467-.898h10.057l.252.898zm19.109 8.369q.143 0 .143.215 0 .216-.143.216-1.078 0-2.227-.072a33 33 0 0 0-2.155-.072q-1.186 0-2.084.072a24 24 0 0 1-1.939.072q-.144 0-.144-.216 0-.215.144-.215 1.616 0 1.939-.575.324-.574-.538-2.263l-7.507-15.265 1.472-2.406-7.111 16.019q-.934 2.191-.072 3.341.897 1.149 3.017 1.149.18 0 .179.215 0 .216-.179.216a25 25 0 0 1-1.976-.072 29 29 0 0 0-2.263-.072q-1.364 0-2.191.072-.79.072-1.975.072-.144 0-.144-.216 0-.215.144-.215.97 0 1.652-.395.719-.395 1.401-1.437.683-1.077 1.509-2.981l7.722-17.42q.072-.108.323-.108.252 0 .288.108l8.8 17.743q.825 1.724 1.472 2.73.647.969 1.221 1.365.576.395 1.222.395m7.289-19.073v16.451q0 .898.179 1.365.18.467.683.61.503.144 1.472.144h2.156q2.55 0 4.31-1.437 1.76-1.436 2.334-3.807.036-.108.216-.072t.179.144q-.107 1.113-.215 2.694a41 41 0 0 0-.108 2.873q0 .539-.539.539h-16.809q-.072 0-.072-.216 0-.215.072-.215 1.15 0 1.724-.18.61-.179.79-.718.216-.539.216-1.58V124.8q0-1.041-.216-1.544-.18-.539-.79-.718-.575-.216-1.724-.216-.072 0-.072-.215 0-.216.072-.216.862 0 2.011.072 1.15.036 2.407.036 1.329 0 2.442-.036a33 33 0 0 1 2.012-.072q.107 0 .107.216 0 .215-.107.215-1.15 0-1.76.216a1.19 1.19 0 0 0-.791.718q-.179.539-.179 1.58m32.65 1.437q0-1.868-.862-2.909-.826-1.042-2.407-1.042-.072 0-.071-.215 0-.216.071-.216.899 0 1.796.072a52 52 0 0 0 3.843 0 22 22 0 0 1 1.689-.072q.071 0 .071.216 0 .215-.071.215-1.437 0-2.191 1.042-.755 1.041-.755 2.909v10.057q0 2.622-1.113 4.526-1.077 1.904-3.053 2.945-1.976 1.042-4.634 1.042-2.622 0-4.669-1.006-2.047-1.041-3.197-2.945-1.113-1.904-1.113-4.526V124.8q0-1.041-.216-1.544-.179-.539-.79-.718-.575-.216-1.724-.216-.108 0-.108-.215 0-.216.108-.216.898 0 2.012.072 1.149.036 2.406.036 1.329 0 2.442-.036a32 32 0 0 1 2.012-.072q.108 0 .108.216 0 .215-.108.215-1.185 0-1.76.216a1.3 1.3 0 0 0-.79.754q-.18.539-.18 1.58v10.237q0 4.381 1.796 6.429 1.831 2.048 4.957 2.048 3.052 0 4.777-1.868 1.724-1.903 1.724-5.352zm16.097 18.211q-1.113 0-2.765-.108a47 47 0 0 0-3.017-.108q-1.293 0-2.443.036a66 66 0 0 1-2.047.036q-.072 0-.072-.216 0-.215.072-.215 1.15 0 1.76-.18.61-.179.79-.718.216-.539.216-1.58V124.8q0-1.041-.216-1.544-.18-.539-.754-.718-.575-.216-1.76-.216-.072 0-.072-.215 0-.216.072-.216.934 0 2.047.072 1.113.036 2.407.036 1.257 0 2.729-.072a37 37 0 0 1 2.551-.108q3.771 0 6.573 1.437 2.8 1.437 4.346 3.915 1.544 2.478 1.544 5.567 0 2.695-.934 4.885a10.7 10.7 0 0 1-2.622 3.7 11.8 11.8 0 0 1-3.843 2.335 12.7 12.7 0 0 1-4.562.826m-.359-.719q2.478 0 4.382-1.185t2.981-3.448q1.114-2.299 1.114-5.603 0-3.09-1.006-5.568-1.005-2.514-2.873-3.951-1.832-1.472-4.382-1.472-2.12 0-3.053.395-.898.395-.898 1.939v16.163q0 1.401.718 2.084.719.646 3.017.646m26.744-3.771.359-17.277.97.072-.395 17.205q-.036 1.904.718 2.909.79 1.006 2.335 1.006.107 0 .107.215 0 .216-.107.216a37 37 0 0 1-1.617-.036 43 43 0 0 0-1.867-.036q-1.078 0-1.976.036-.862.036-1.652.036-.108 0-.108-.216 0-.215.108-.215 1.473 0 2.263-1.006.826-1.005.862-2.909m25.43 3.915q.072 0 .072.215 0 .216-.072.216-.934 0-2.083-.036a77 77 0 0 0-4.778 0 60 60 0 0 1-1.975.036q-.072 0-.072-.216 0-.215.072-.215 1.724 0 2.227-.467t.395-2.011l-.754-16.415 1.58-2.478-9.195 21.551q-.036.143-.287.143-.252 0-.324-.143l-9.733-19.217q-1.293-2.55-3.377-2.55-.107 0-.107-.215 0-.216.107-.216.683 0 1.437.036.79.036 1.329.036.79 0 1.401-.036.646-.036 1.006-.036.502 0 .754.359.287.324.898 1.509l8.081 15.84-1.544 2.73 8.512-19.54q.216-.467.467-.682a.9.9 0 0 1 .611-.216q.324 0 .682.036.396.036.934.036 1.078 0 1.832-.036.755-.036 1.473-.036.108 0 .108.216 0 .215-.108.215-1.653 0-2.443.611-.79.61-.718 2.083l.79 16.415q.072 1.041.252 1.58.215.539.79.718.61.18 1.76.18m17.945.431h-15.589q-.107 0-.107-.216 0-.215.107-.215 1.186 0 1.76-.18.575-.179.755-.718.215-.539.215-1.58V124.8q0-1.041-.215-1.544-.18-.539-.755-.718-.574-.216-1.76-.216-.107 0-.107-.215 0-.216.107-.216h14.942q.36 0 .36.323l.071 4.67q0 .072-.179.108-.18 0-.252-.108-.395-2.048-1.652-3.053-1.257-1.006-3.304-1.006h-1.473q-.899 0-1.437.216a1.2 1.2 0 0 0-.718.646q-.216.43-.216 1.185v16.415q0 .754.18 1.257.216.467.647.683.43.179 1.221.179h1.76q2.442 0 3.951-1.149 1.508-1.185 2.155-3.484.036-.108.215-.072.216.036.216.108-.144 1.005-.252 2.406a34 34 0 0 0-.107 2.586q0 .539-.539.539m-2.012-8.118q0-1.507-1.005-2.298-1.006-.79-3.017-.79h-5.029v-.934h5.065q2.01 0 2.981-.683.97-.682.97-1.975 0-.108.179-.108.216 0 .216.108 0 1.15-.036 1.796v1.329q0 .861.036 1.724.072.826.071 1.831 0 .072-.215.072-.216 0-.216-.072m9.047 3.772v-17.277l.97.072v17.205q0 1.904.754 2.909.755 1.006 2.155 1.006.108 0 .108.215 0 .216-.108.216-.753 0-1.58-.036a39 39 0 0 0-1.76-.036q-1.041 0-2.011.036-.935.036-1.76.036-.108 0-.108-.216 0-.215.108-.215 1.58 0 2.406-1.006.826-1.005.826-2.909m18.247 4.849q0 .108-.18.108-.18.036-.251 0l-17.277-20.115q-1.293-1.472-2.227-1.975-.897-.539-1.76-.539-.108 0-.108-.215 0-.216.108-.216.683 0 1.401.036.719.036 1.329.036 1.077 0 1.94-.036a37 37 0 0 1 1.364-.036q.467 0 .683.431.216.395 1.077 1.437l13.613 16.019zm0-18.57v18.57l-.97-1.078v-17.492q0-1.904-.754-2.909-.719-1.042-2.155-1.042-.072 0-.072-.215 0-.216.072-.216.753 0 1.58.072.826.036 1.796.036.933 0 1.832-.036a21 21 0 0 1 1.652-.072q.108 0 .108.216 0 .215-.108.215-1.437 0-2.227 1.042-.754 1.005-.754 2.909m11.114-3.628q-2.191 0-3.592 1.365-1.365 1.365-2.155 4.023 0 .108-.216.108-.18-.036-.179-.108.07-.502.143-1.365a177 177 0 0 0 .144-1.939q.108-1.042.144-2.012a24 24 0 0 0 .071-1.616q0-.18.18-.18.216 0 .216.18 0 .359.359.539.394.143.862.215.466.036.79.036 3.089.108 7.22.108 2.55 0 4.022-.036a61 61 0 0 1 2.91-.072q1.293 0 1.939-.144.683-.179.862-.754.036-.144.216-.143.18 0 .179.143-.036.574-.107 1.581a50 50 0 0 0-.108 2.083q-.036 1.078-.072 2.011a37 37 0 0 0-.036 1.365q0 .072-.215.072-.18 0-.216-.072-.395-2.837-1.724-4.095-1.329-1.293-3.556-1.293-.97 0-1.472.18-.503.18-.683.682-.18.468-.179 1.365v16.559q0 1.041.215 1.58.252.539.898.718.682.18 2.047.18.108 0 .108.215 0 .216-.108.216-.97 0-2.227-.036a92 92 0 0 0-2.693-.036q-1.4 0-2.623.036-1.221.036-2.262.036-.072 0-.072-.216 0-.215.072-.215 1.365 0 2.047-.18.682-.179.898-.718.252-.539.251-1.58V124.8q0-.897-.179-1.328-.144-.467-.647-.647t-1.472-.18m19.336 12.895.467-.898h10.057l.251.898zm19.108 8.369q.144 0 .144.215 0 .216-.144.216-1.077 0-2.227-.072a33 33 0 0 0-2.155-.072q-1.186 0-2.083.072-.862.072-1.94.072-.143 0-.143-.216 0-.215.143-.215 1.616 0 1.94-.575.323-.574-.539-2.263l-7.507-15.265 1.473-2.406-7.112 16.019q-.935 2.191-.072 3.341.899 1.149 3.017 1.149.18 0 .18.215 0 .216-.18.216-1.077 0-1.975-.072a29 29 0 0 0-2.263-.072q-1.365 0-2.191.072a22 22 0 0 1-1.976.072q-.143 0-.143-.216 0-.215.143-.215.97 0 1.653-.395.719-.395 1.4-1.437.683-1.077 1.509-2.981l7.722-17.42q.072-.108.324-.108.25 0 .287.108l8.8 17.743q.826 1.724 1.473 2.73.647.969 1.221 1.365.575.395 1.221.395m7.289-19.073v16.451q0 .898.18 1.365t.682.61 1.473.144h2.155q2.55 0 4.31-1.437 1.76-1.436 2.335-3.807.036-.108.215-.072.18.036.18.144a97 97 0 0 0-.216 2.694 42 42 0 0 0-.107 2.873q0 .539-.539.539h-16.81q-.072 0-.072-.216 0-.215.072-.215 1.15 0 1.724-.18.611-.179.79-.718.216-.539.216-1.58V124.8q0-1.041-.216-1.544-.179-.539-.79-.718-.575-.216-1.724-.216-.072 0-.072-.215 0-.216.072-.216.862 0 2.012.072 1.149.036 2.406.036 1.329 0 2.443-.036a33 33 0 0 1 2.011-.072q.108 0 .108.216 0 .215-.108.215-1.15 0-1.76.216a1.18 1.18 0 0 0-.79.718q-.18.539-.18 1.58m37.656 19.504h-15.588q-.108 0-.108-.216 0-.215.108-.215 1.185 0 1.76-.18.575-.179.754-.718.216-.539.216-1.58V124.8q0-1.041-.216-1.544-.179-.539-.754-.718-.575-.216-1.76-.216-.108 0-.108-.215 0-.216.108-.216h14.942q.359 0 .359.323l.072 4.67q0 .072-.18.108-.179 0-.251-.108-.395-2.048-1.652-3.053-1.257-1.006-3.305-1.006h-1.472q-.898 0-1.437.216a1.2 1.2 0 0 0-.719.646q-.215.43-.215 1.185v16.415q0 .754.18 1.257.215.467.646.683.431.179 1.221.179h1.76q2.443 0 3.951-1.149 1.509-1.185 2.155-3.484.036-.108.216-.072.215.036.215.108-.143 1.005-.251 2.406a34 34 0 0 0-.108 2.586q0 .539-.539.539m-2.011-8.118q0-1.507-1.006-2.298-1.005-.79-3.017-.79h-5.028v-.934h5.064q2.012 0 2.981-.683.97-.682.97-1.975 0-.108.18-.108.215 0 .215.108 0 1.15-.036 1.796v1.329q0 .861.036 1.724.072.826.072 1.831 0 .072-.215.072-.216 0-.216-.072m20.77 5.209q0 1.041.179 1.58.216.539.79.718.576.18 1.76.18.108 0 .108.215 0 .216-.108.216a63 63 0 0 1-2.011-.036 77 77 0 0 0-2.478-.036q-1.258 0-2.407.036a66 66 0 0 1-2.047.036q-.108 0-.108-.216 0-.215.108-.215 1.15 0 1.76-.18.61-.179.79-.718.216-.539.216-1.58V124.8q0-1.041-.216-1.544-.18-.539-.79-.718-.61-.216-1.76-.216-.108 0-.108-.215 0-.216.108-.216.898 0 2.047.072 1.15.036 2.407.036 1.365 0 2.478-.036a33 33 0 0 1 2.011-.072q.108 0 .108.216 0 .215-.108.215-1.149 0-1.76.216a1.3 1.3 0 0 0-.79.754q-.179.539-.179 1.58zm8.867-1.437v-17.277l.969.072v17.205q0 1.904.755 2.909.754 1.006 2.155 1.006.108 0 .108.215 0 .216-.108.216-.755 0-1.581-.036a39 39 0 0 0-1.76-.036q-1.04 0-2.011.036-.934.036-1.76.036-.108 0-.108-.216 0-.215.108-.215 1.58 0 2.407-1.006.825-1.005.826-2.909m18.246 4.849q0 .108-.179.108-.18.036-.252 0l-17.277-20.115q-1.293-1.472-2.226-1.975-.899-.539-1.76-.539-.108 0-.108-.215 0-.216.108-.216.682 0 1.4.036t1.329.036q1.078 0 1.94-.036a37 37 0 0 1 1.365-.036q.467 0 .682.431.216.395 1.078 1.437l13.613 16.019zm0-18.57v18.57l-.97-1.078v-17.492q0-1.904-.754-2.909-.718-1.042-2.155-1.042-.072 0-.072-.215 0-.216.072-.216.755 0 1.58.072.827.036 1.796.036.934 0 1.832-.036a21 21 0 0 1 1.652-.072q.108 0 .108.216 0 .215-.108.215-1.436 0-2.227 1.042-.754 1.005-.754 2.909m11.114-3.628q-2.191 0-3.592 1.365-1.365 1.365-2.155 4.023 0 .108-.215.108-.18-.036-.18-.108.072-.502.144-1.365.072-.898.143-1.939.108-1.042.144-2.012.072-1.005.072-1.616 0-.18.179-.18.216 0 .216.18 0 .359.359.539.396.143.862.215.467.036.79.036 3.09.108 7.22.108 2.55 0 4.023-.036a61 61 0 0 1 2.909-.072q1.293 0 1.94-.144.682-.179.862-.754.036-.144.215-.143.18 0 .18.143-.036.574-.108 1.581a50 50 0 0 0-.108 2.083q-.036 1.078-.072 2.011a39 39 0 0 0-.035 1.365q0 .072-.216.072-.18 0-.215-.072-.396-2.837-1.725-4.095-1.329-1.293-3.555-1.293-.97 0-1.473.18t-.683.682q-.179.468-.179 1.365v16.559q0 1.041.215 1.58.252.539.898.718.683.18 2.048.18.107 0 .107.215 0 .216-.107.216-.97 0-2.227-.036a92 92 0 0 0-2.694-.036q-1.401 0-2.622.036-1.222.036-2.263.036-.072 0-.072-.216 0-.215.072-.215 1.365 0 2.047-.18.683-.179.898-.718.252-.539.252-1.58V124.8q0-.897-.18-1.328-.144-.467-.646-.647-.503-.18-1.473-.18m32.529 21.695h-15.588q-.108 0-.108-.216 0-.215.108-.215 1.185 0 1.76-.18.574-.179.754-.718.216-.539.215-1.58V124.8q0-1.041-.215-1.544-.18-.539-.754-.718-.575-.216-1.76-.216-.108 0-.108-.215 0-.216.108-.216h14.942q.359 0 .359.323l.072 4.67q0 .072-.18.108-.18 0-.251-.108-.395-2.048-1.653-3.053-1.257-1.006-3.304-1.006h-1.473q-.897 0-1.436.216a1.2 1.2 0 0 0-.719.646q-.215.43-.215 1.185v16.415q0 .754.179 1.257.216.467.647.683.43.179 1.221.179h1.76q2.442 0 3.951-1.149 1.509-1.185 2.155-3.484.036-.108.216-.072.215.036.215.108-.143 1.005-.251 2.406a34 34 0 0 0-.108 2.586q0 .539-.539.539m-2.011-8.118q0-1.507-1.006-2.298-1.005-.79-3.017-.79h-5.029v-.934h5.065q2.012 0 2.981-.683.97-.682.97-1.975 0-.108.179-.108.216 0 .216.108 0 1.15-.036 1.796v1.329q0 .861.036 1.724.072.826.072 1.831 0 .072-.216.072-.215 0-.215-.072m19.535 8.549q-3.125 0-5.603-.898-2.444-.935-4.167-2.514a11.3 11.3 0 0 1-2.586-3.7q-.862-2.083-.862-4.49 0-2.622 1.042-4.741a10.9 10.9 0 0 1 2.909-3.699q1.868-1.545 4.382-2.371 2.514-.862 5.495-.862 1.76 0 3.449.287 1.724.288 2.801.826.36.144.395.252.072.072.108.575l.467 4.705q0 .108-.18.144-.179.036-.251-.072-.288-.898-.934-1.94a8.5 8.5 0 0 0-1.58-1.939q-.97-.935-2.335-1.545-1.33-.61-3.089-.611-2.478 0-4.49 1.258-2.011 1.257-3.197 3.556-1.185 2.298-1.185 5.495 0 2.478.719 4.598a11.8 11.8 0 0 0 2.047 3.699 9.6 9.6 0 0 0 3.268 2.514q1.904.898 4.275.898 1.472 0 2.37-.359.899-.358 1.293-1.293.396-.969.395-2.73 0-1.723-.215-2.514-.18-.826-.97-1.078-.79-.25-2.55-.251-.216 0-.216-.287 0-.288.18-.288 2.442.144 4.382.18 1.975 0 4.131-.108.143 0 .143.252.036.25-.143.251-.683-.036-1.006.251-.323.252-.431 1.15-.072.897-.072 2.801 0 1.186.072 1.76l.108.862q.072.252.072.539 0 .216-.072.288-.072.07-.324.143-1.904.431-4.022.719a30 30 0 0 1-4.023.287m30.372-.431q-.538 0-1.795-1.365-1.258-1.365-3.053-3.915a162 162 0 0 1-3.951-6.142l2.873-.862q2.91 4.346 4.957 6.968 2.084 2.586 3.663 3.736 1.617 1.149 3.089 1.149.072 0 .072.215 0 .216-.072.216h-5.783m-8.153-22.557q3.125 0 4.813 1.258 1.724 1.22 1.724 3.376 0 2.047-1.185 3.663-1.15 1.617-3.017 2.515a8.86 8.86 0 0 1-3.951.898h-.934a47 47 0 0 1-.898-.072v8.01q0 1.041.179 1.58.18.539.755.718.61.18 1.76.18.108 0 .108.215 0 .216-.108.216-.898 0-2.012-.036a76 76 0 0 0-2.442-.036q-1.257 0-2.407.036-1.149.036-2.047.036-.108 0-.108-.216 0-.215.108-.215 1.185 0 1.76-.18.575-.179.79-.718t.216-1.58V124.8q0-1.041-.216-1.544-.179-.539-.754-.718-.575-.216-1.76-.216-.072 0-.072-.215 0-.216.072-.216.898 0 2.011.072 1.15.036 2.407.036 1.149 0 2.586-.108a35 35 0 0 1 2.622-.108m2.981 5.891q0-2.083-.503-3.197-.466-1.15-1.329-1.58-.861-.431-2.011-.431-1.4 0-2.011.539-.576.502-.575 1.867v7.579q.503.072 1.077.108.576.036 1.006.036 2.407 0 3.376-1.186.97-1.221.97-3.735m17.042 7.866.467-.898h10.057l.251.898zm19.108 8.369q.144 0 .144.215 0 .216-.144.216-1.077 0-2.227-.072a33 33 0 0 0-2.155-.072q-1.185 0-2.083.072-.862.072-1.94.072-.143 0-.143-.216 0-.215.143-.215 1.617 0 1.94-.575.323-.574-.539-2.263l-7.507-15.265 1.473-2.406-7.112 16.019q-.933 2.191-.072 3.341.899 1.149 3.017 1.149.18 0 .18.215 0 .216-.18.216-1.077 0-1.975-.072a29 29 0 0 0-2.263-.072q-1.365 0-2.191.072-.79.072-1.975.072-.144 0-.144-.216 0-.215.144-.215.97 0 1.652-.395.719-.395 1.401-1.437.682-1.077 1.508-2.981l7.723-17.42q.07-.108.323-.108.25 0 .287.108l8.8 17.743q.827 1.724 1.473 2.73.647.969 1.221 1.365.574.395 1.221.395m5.015-21.264q-2.19 0-3.592 1.365-1.365 1.365-2.155 4.023 0 .108-.215.108-.18-.036-.18-.108.072-.502.144-1.365a177 177 0 0 0 .144-1.939q.107-1.042.143-2.012.072-1.005.072-1.616 0-.18.18-.18.215 0 .215.18 0 .359.359.539.396.143.862.215.467.036.791.036 3.088.108 7.219.108 2.55 0 4.023-.036a61 61 0 0 1 2.909-.072q1.293 0 1.94-.144.682-.179.862-.754.036-.144.215-.143.18 0 .18.143-.036.574-.108 1.581a50 50 0 0 0-.107 2.083q-.036 1.078-.072 2.011a37 37 0 0 0-.036 1.365q0 .072-.216.072-.179 0-.215-.072-.395-2.837-1.724-4.095-1.33-1.293-3.556-1.293-.97 0-1.473.18t-.682.682q-.18.468-.18 1.365v16.559q0 1.041.216 1.58.251.539.898.718.682.18 2.047.18.108 0 .108.215 0 .216-.108.216-.97 0-2.227-.036a92 92 0 0 0-2.694-.036q-1.401 0-2.622.036a77 77 0 0 1-2.263.036q-.072 0-.072-.216 0-.215.072-.215 1.365 0 2.048-.18.682-.179.898-.718.25-.539.251-1.58V124.8q0-.897-.18-1.328-.143-.467-.646-.647t-1.473-.18m23.227 18.786q0 1.041.179 1.58.216.539.79.718.576.18 1.76.18.108 0 .108.215 0 .216-.108.216a63 63 0 0 1-2.011-.036 77 77 0 0 0-2.478-.036q-1.257 0-2.407.036a66 66 0 0 1-2.047.036q-.108 0-.108-.216 0-.215.108-.215 1.15 0 1.76-.18.61-.179.79-.718.216-.539.215-1.58V124.8q0-1.041-.215-1.544-.18-.539-.79-.718-.61-.216-1.76-.216-.108 0-.108-.215 0-.216.108-.216.897 0 2.047.072 1.15.036 2.407.036 1.365 0 2.478-.036a33 33 0 0 1 2.011-.072q.108 0 .108.216 0 .215-.108.215-1.15 0-1.76.216a1.3 1.3 0 0 0-.79.754q-.179.539-.179 1.58zm28.298-19.54q.108 0 .108.216 0 .215-.108.215-1.257 0-2.334.97-1.078.969-1.76 2.802l-7.004 18.21q-.036.144-.395.144-.324 0-.396-.144l-9.087-19.432q-.61-1.293-1.257-1.903a2.15 2.15 0 0 0-1.58-.647q-.108 0-.108-.215 0-.216.108-.216.466 0 .754.036.323.036.754.072h4.023q1.113-.036 1.832-.072.755-.036 1.329-.036.108 0 .108.216 0 .215-.108.215-1.508 0-2.048.754-.503.755.18 2.156l6.932 15.013-1.472 2.479 6.465-16.774q.61-1.617.072-2.622-.539-1.006-2.371-1.006-.108 0-.108-.215 0-.216.108-.216.97 0 1.868.072.898.036 2.335.036 1.005 0 1.616-.036a14 14 0 0 1 1.544-.072m2.888 13.649.466-.898h10.058l.251.898zm19.108 8.369q.144 0 .144.215 0 .216-.144.216-1.077 0-2.227-.072a33 33 0 0 0-2.155-.072q-1.185 0-2.083.072-.862.072-1.94.072-.144 0-.144-.216 0-.215.144-.215 1.617 0 1.94-.575.323-.574-.539-2.263l-7.507-15.265 1.473-2.406-7.112 16.019q-.935 2.191-.072 3.341.898 1.149 3.017 1.149.18 0 .18.215 0 .216-.18.216-1.077 0-1.975-.072a29 29 0 0 0-2.263-.072q-1.365 0-2.191.072a22 22 0 0 1-1.976.072q-.143 0-.143-.216 0-.215.143-.215.97 0 1.653-.395.718-.395 1.4-1.437.683-1.077 1.509-2.981l7.722-17.42q.072-.108.324-.108.25 0 .287.108l8.8 17.743q.827 1.724 1.473 2.73.647.969 1.221 1.365.574.395 1.221.395"/><path fill="#fefefe" d="M263.826 103.321q-9.69 0-17.288-2.753-7.597-2.752-12.883-7.597t-8.038-11.232q-2.754-6.388-2.753-13.654 0-8.039 3.193-14.645 3.194-6.608 9.029-11.342 5.837-4.845 13.655-7.488t17.067-2.643q5.176 0 10.461.771t8.589 2.202q1.212.44 1.321.771.22.22.331 1.762l1.431 15.306q0 .33-.55.44-.55.111-.771-.33-.771-2.093-2.753-5.175-1.872-3.194-4.955-6.167-3.084-3.083-7.378-5.175t-9.91-2.092q-7.047 0-12.883 3.854-5.726 3.744-9.14 10.79-3.414 7.048-3.413 16.848 0 7.929 2.202 14.425 2.312 6.497 6.386 11.342 4.185 4.735 9.691 7.378 5.506 2.532 12.112 2.532 4.185 0 6.717-.991 2.532-.99 3.634-3.854 1.21-2.863 1.211-8.478 0-5.286-.661-7.709-.55-2.533-2.863-3.303t-7.487-.77q-.661 0-.661-.882 0-.88.551-.88 7.707.44 13.874.55 6.167 0 12.993-.33.441 0 .441.77.11.771-.441.771-1.872-.11-2.752.771-.882.77-1.102 3.524t-.22 8.589q0 3.633.22 5.395l.331 2.643a6 6 0 0 1 .22 1.652q0 .66-.22.88t-.991.441a154 154 0 0 1-12.774 2.202q-6.606.881-12.773.881m53.014-26.537 1.652-3.084h31.713l.771 3.084zm60.123 23.895q.55 0 .55.66 0 .661-.55.661-3.304 0-6.938-.22a109 109 0 0 0-6.827-.221q-3.744 0-6.496.221-2.754.22-6.167.22-.44 0-.44-.661 0-.66.44-.66 4.515 0 5.176-1.762.77-1.872-1.983-7.268l-22.353-44.156 5.396-9.47-21.913 48.34q-2.973 6.607-.11 10.462t9.029 3.854q.55 0 .551.66 0 .661-.551.661-3.303 0-6.056-.22t-6.937-.221q-4.294 0-6.937.221-2.533.22-6.277.22-.44 0-.44-.661 0-.66.44-.66 2.974 0 5.065-1.212 2.203-1.32 4.295-4.624 2.202-3.415 4.955-9.58l23.895-52.525q.11-.33.991-.33.881-.111.991.33l27.528 54.176q2.643 5.175 4.515 8.259 1.983 2.973 3.634 4.294 1.761 1.212 3.524 1.212m23.324-58.471V92.64q0 2.643.44 4.074.44 1.322 1.762 1.762 1.432.44 4.075.44h3.743q8.589.001 14.866-4.624 6.276-4.624 8.369-12.333.11-.33.66-.22t.551.44q-.33 3.635-.661 8.81-.33 5.064-.33 9.359 0 1.652-1.652 1.652h-51.974q-.22 0-.22-.661 0-.66.22-.66 3.414 0 5.065-.551 1.653-.55 2.203-2.202.66-1.652.66-4.845V42.098q0-3.194-.66-4.735-.55-1.651-2.203-2.203-1.651-.66-5.065-.66-.22 0-.22-.66 0-.662.22-.662 2.643 0 6.277.22 3.744.11 7.708.11 4.184 0 7.708-.11 3.524-.22 6.276-.22.33 0 .33.661 0 .66-.33.66-3.303 0-5.065.661-1.651.552-2.202 2.203-.55 1.652-.551 4.845M490.022 102h-48.671q-.33 0-.33-.661 0-.66.33-.66 3.414 0 5.065-.551 1.652-.55 2.203-2.202t.55-4.845V42.098q0-3.194-.55-4.735-.551-1.651-2.203-2.203-1.651-.66-5.065-.66-.33 0-.33-.66 0-.662.33-.662h46.688q1.102 0 1.102.992l.22 14.645q0 .22-.551.33-.55.11-.771-.22-1.761-6.497-5.946-9.47-4.184-3.083-11.011-3.083h-3.304q-2.202 0-3.633.66-1.432.552-2.093 1.872-.66 1.321-.66 3.304V92.64q0 2.093.55 3.524.55 1.43 1.652 2.092 1.102.66 2.863.66h3.634q8.589 0 13.764-3.523t7.598-10.901q.11-.33.661-.11.66.11.66.33-.44 3.193-.77 7.598a105 105 0 0 0-.331 8.038q0 1.652-1.651 1.652m-6.167-24.556q0-4.515-3.413-7.047-3.414-2.643-10.021-2.643h-14.865v-3.083h14.975q6.497 0 9.8-2.202 3.414-2.313 3.414-6.166 0-.33.551-.33.66 0 .66.33 0 3.633-.11 5.725v4.185q0 2.753.11 5.395.22 2.643.22 5.836 0 .22-.66.22-.661 0-.661-.22m27.722 10.571V35.711l3.304.22v52.084q0 5.836 2.422 9.25t6.717 3.414q.22 0 .22.66 0 .661-.22.661-2.422 0-5.065-.11-2.533-.11-5.616-.11-3.303 0-6.497.11-3.083.11-5.726.11-.33 0-.33-.661 0-.66.33-.66 4.845 0 7.598-3.414 2.863-3.414 2.863-9.25m56.159 15.637q0 .33-.551.33-.44.11-.661 0l-54.286-61.774q-3.964-4.515-6.717-6.056-2.753-1.652-5.506-1.652-.22 0-.22-.66 0-.662.22-.662 2.202 0 4.515.11t4.294.11q3.964 0 7.158-.11 3.193-.11 4.955-.11 1.432 0 2.092 1.322.771 1.211 3.414 4.404l40.412 46.579zm0-56.379v56.379l-3.194-3.304V47.273q0-5.836-2.422-9.25-2.423-3.523-6.717-3.523-.22 0-.221-.66 0-.662.221-.662 2.422 0 4.955.22 2.642.11 5.726.11 2.973 0 5.836-.11 2.863-.22 5.285-.22.22 0 .221.661 0 .66-.221.66-4.404 0-6.937 3.524-2.532 3.414-2.532 9.25M631.751 102H583.08q-.33 0-.33-.661 0-.66.33-.66 3.414 0 5.065-.551 1.652-.55 2.203-2.202t.55-4.845V42.098q0-3.194-.55-4.735-.551-1.651-2.203-2.203-1.651-.66-5.065-.66-.33 0-.33-.66 0-.662.33-.662h46.689q1.101 0 1.101.992l.22 14.645q0 .22-.551.33-.55.11-.77-.22-1.762-6.497-5.947-9.47-4.184-3.083-11.011-3.083h-3.303q-2.203 0-3.634.66-1.432.552-2.092 1.872t-.661 3.304V92.64q0 2.093.55 3.524.55 1.43 1.652 2.092 1.101.66 2.863.66h3.634q8.589 0 13.764-3.523t7.598-10.901q.11-.33.661-.11.66.11.66.33-.44 3.193-.77 7.598a105 105 0 0 0-.331 8.038q0 1.652-1.651 1.652m-6.167-24.556q0-4.515-3.413-7.047-3.414-2.643-10.021-2.643h-14.865v-3.083h14.975q6.497 0 9.801-2.202 3.413-2.313 3.413-6.166 0-.33.551-.33.66 0 .66.33 0 3.633-.11 5.725v4.185q0 2.753.11 5.395.22 2.643.221 5.836 0 .22-.661.22t-.661-.22"/><path fill="#13668a" d="M72.828 17.553c.201 0 3.057.222 4.2.275 16.88.744 37.268 8.578 48.726 21.207 1.694 1.866 3.572 4.085 4.809 6.465.707 1.36-.448 2.934-1.952 2.643l-3.494-.687a1.82 1.82 0 0 1-1.089-.678c-18.811-24.334-57.986-28.872-84.954-16.682C21.89 37.864 1.809 58.266 6.597 78.814c2.779 11.919 16.193 18.63 27.097 12.412 7.48-4.27 12.53-13.394 21.17-15.51 11.635-2.853 17.984 4.874 27.98 8.145 17.988 5.894 35.402-2.33 41.661-19.879.316-.884 1.254-1.401 2.158-1.155.846.234 1.631.687 2.42 1.122a1.804 1.804 0 0 1 .843 2.178c-7.55 22.037-30.614 31.31-52.335 22.165-11.536-4.858-17.138-12.465-29.024-1.911-8.441 7.492-14.298 14.881-27.199 12.97C-1.988 95.9-4.422 69.58 5.545 52.13 17.39 31.391 40.491 19.62 63.893 17.83c.953-.075 1.541-.16 2.503-.21l.633-.037c.053-.004.452-.029.505-.029h5.298z"/><path fill="#51babc" d="M148.749 73.796c-2.187-6.045-6.436-12.473-11.635-16.287-.662-.103-.349.3-.403.695-.271 1.931-.727 3.777-1.06 5.688 7.443 7.681 13.299 23.13 5.815 32.467-6.748 8.417-17.602 2.964-26.241 2.475-17.368-.987-26.96 5.716-41.653 12.288-9.897 4.43-24.586 6.724-32.238-2.992-1.66-2.116-2.335-4.587-3.621-6.794-.247-.069-4.48 1.455-4.837 1.665-.3.173-.448.205-.456.616-.013.551 1.249 3.494 1.59 4.172 6.522 13.073 22.97 15.445 35.797 11.314l.653.124c3.107 4.344 7.809 6.723 11.364 10.817 3.555 4.097 8.08 13.439 13.945 13.973 2.823.259 4.738-.661 7.258-1.672l-4.92-15.581c16.353 5.733 35.234-3.103 38.929-20.467 13.916-4.632 16.193-20.101 11.713-32.5m-53.79 63.37v-.275q.266.135 0 .275m33.528-25.732c-5.548 9.757-16.895 12.79-27.425 10.049-4.212-1.097-10.028-5.232-9.49 2.647.296 4.319 1.928 8.429 3.247 12.485-.28.313-1.15-.743-1.356-.965-2.684-2.816-4.771-6.913-7.533-9.987a61 61 0 0 0-5.614-5.471c-.074-.057-.44-.065-.683-.263-1.249-1.039-2.589-1.96-3.69-3.156 12.321-6.847 24.951-12.884 39.541-11.902 5.014.337 9.867 2.215 14.918 2.186-.32 1.599-1.126 2.996-1.915 4.377"/><path fill="#4ebabc" d="M131.772 58.882c-2.129-.222-3.872.106-6.021-.276-4.254-.752-6.535-1.331-11.052-.785-10.122 1.225-18.864 7.003-21.519 17.208 7.266-.222 13.957-3.493 19.435-8.067.596-.498 1.583-1.357 1.916-2.055.587.226-.325 1.755-.502 2.1-4.804 9.37-17.746 16.92-28.243 12.946.954-9.72 6.288-19.037 14.874-23.858 7.825-4.393 17.726-5.49 26.467-3.658.909.19 4.702 1.172 5.199 1.644.674.641-.402 3.872-.554 4.796z"/><path fill="#126388" d="M89.896 96.109c.127.776-.16.456-.633.583-2.881.773-7.188.625-10.143.202-7.349-1.048-13.152-6.514-20.574-6-5.906.41-10.184 5.815-15.724 7.397-.144-.604.349-.604.628-.875 1.242-1.205 2.87-2.285 4.164-3.494 2.93-2.725 6.444-7.492 10.669-7.952 6.066-.658 9.625 2.918 14.635 5.347 5.228 2.531 11.175 4.36 16.978 4.784z"/><path fill="#4ebabc" d="M131.771 58.882c-.415 2.482-.662 3.415-1.368 5.75-1.78-.77-3.391-2.237-5.475-1.916.395-1.237.761-2.799.822-4.106 2.15.383 3.892.054 6.021.276z"/><path fill="#126388" d="M130.403 107.057c-.321 1.599-1.127 2.996-1.916 4.377-4.574-.053-9.004-1.635-13.55-1.911-11.594-.707-24.195 3.843-33.951 9.852-.362.221-.798.238-.67.817-.074-.057-.44-.065-.683-.263-1.249-1.039-2.589-1.96-3.69-3.156 12.321-6.847 24.951-12.884 39.541-11.902 5.014.337 9.868 2.215 14.919 2.186"/><path fill="#efedde" d="M94.96 136.891q.264.135 0 .275z"/></svg>