<svg width="48" height="48" viewBox="0 0 40 40" fill="none" xmlns="http://www.w3.org/2000/svg">
  <path d="M19.3145 0C19.3679 0 20.1255 0.0588583 20.4285 0.0730279C24.905 0.270312 30.3123 2.34779 33.3511 5.69726C33.8002 6.19211 34.2983 6.78069 34.6264 7.41178C34.8139 7.77256 34.5076 8.19002 34.1087 8.11263L33.1822 7.93061C33.0667 7.90772 32.9642 7.84341 32.8933 7.75076C27.9046 1.29706 17.515 0.0937373 10.3626 3.32658C5.80547 5.38662 0.479888 10.7972 1.7497 16.2471C2.48652 19.408 6.04417 21.1879 8.93586 19.5388C10.9196 18.4063 12.2592 15.9866 14.5503 15.4252C17.636 14.6688 19.32 16.7179 21.9708 17.5855C26.7416 19.1486 31.3598 16.9675 33.0198 12.3134C33.1037 12.079 33.3522 11.9417 33.592 12.0071C33.8166 12.0692 34.0247 12.1891 34.234 12.3046C34.4433 12.4202 34.5327 12.6611 34.4575 12.8823C32.4552 18.7267 26.3383 21.1857 20.5778 18.7605C17.5183 17.4722 16.0326 15.4547 12.8805 18.2537C10.6417 20.2407 9.08845 22.2005 5.66704 21.6936C-0.527243 20.7781 -1.1725 13.7979 1.47067 9.1699C4.61196 3.66992 10.7387 0.548254 16.9449 0.0730279C17.1978 0.0534084 17.3537 0.0305191 17.6087 0.0174395L17.7766 0.00762974C17.7908 0.00653977 17.8965 0 17.9107 0H19.3156H19.3145Z" fill="#13668A"/>
  <path d="M39.4495 14.9163C38.8696 13.3129 37.7426 11.6082 36.3638 10.5967C36.1883 10.5695 36.2711 10.6763 36.2569 10.7809C36.185 11.2932 36.064 11.7826 35.9757 12.2894C37.9497 14.3266 39.5029 18.4238 37.518 20.9002C35.7283 23.1324 32.8497 21.686 30.5586 21.5563C25.9524 21.2947 23.4084 23.0725 19.5118 24.8153C16.8871 25.9903 12.9916 26.5985 10.9621 24.0218C10.5217 23.4605 10.343 22.8054 10.0018 22.2201C9.93641 22.2016 8.81374 22.606 8.71891 22.6616C8.63934 22.7073 8.6001 22.7161 8.59792 22.8251C8.59465 22.9711 8.92927 23.7515 9.01974 23.9314C10.7495 27.3986 15.1116 28.0275 18.5134 26.9321L18.6867 26.9648C19.5107 28.1169 20.7576 28.7479 21.7004 29.8336C22.6432 30.9202 23.8433 33.3977 25.3987 33.5394C26.1475 33.6081 26.6554 33.364 27.3236 33.0958L26.0189 28.9638C30.3559 30.4843 35.3632 28.1408 36.3431 23.5357C40.0337 22.3073 40.6375 18.2047 39.4495 14.9163ZM25.184 31.7225V31.6494C25.2308 31.6734 25.2308 31.6974 25.184 31.7225ZM34.0759 24.8982C32.6045 27.4858 29.5951 28.2902 26.8026 27.5632C25.6853 27.2721 24.143 26.1756 24.2858 28.2651C24.3643 29.4106 24.797 30.5006 25.1469 31.5764C25.0728 31.6593 24.8417 31.3791 24.7872 31.3203C24.0755 30.5736 23.5218 29.4869 22.7893 28.6716C22.3435 28.1757 21.8083 27.6536 21.3004 27.2209C21.2808 27.2056 21.1838 27.2035 21.1195 27.1511C20.7881 26.8754 20.4328 26.6312 20.1407 26.314C23.4084 24.4982 26.7579 22.897 30.6273 23.1575C31.957 23.2469 33.2443 23.745 34.5838 23.7374C34.4988 24.1614 34.2852 24.532 34.0759 24.8982Z" fill="#51BABC"/>
  <path d="M34.947 10.9607C34.3824 10.9018 33.9202 10.989 33.3502 10.8877C32.2221 10.6882 31.6171 10.5345 30.4193 10.6795C27.7347 11.0043 25.4163 12.5368 24.7122 15.2432C26.6393 15.1843 28.4137 14.3167 29.8667 13.1036C30.0247 12.9717 30.2863 12.7439 30.3746 12.5586C30.5304 12.6185 30.2885 13.024 30.2416 13.1156C28.9674 15.6007 25.5351 17.603 22.7513 16.549C23.0042 13.9712 24.419 11.5002 26.6959 10.2217C28.7712 9.05653 31.397 8.76551 33.7153 9.25164C33.9562 9.30178 34.9623 9.56228 35.0941 9.68762C35.2729 9.85766 34.9873 10.7144 34.947 10.9596V10.9607Z" fill="#4EBABC"/>
  <path d="M23.8412 20.8336C23.875 21.0397 23.7987 20.9546 23.6733 20.9884C22.9093 21.1933 21.767 21.1541 20.9833 21.0418C19.0344 20.7639 17.4954 19.3142 15.5269 19.4505C13.9606 19.5595 12.826 20.9928 11.3567 21.4124C11.3185 21.2522 11.4493 21.2522 11.5234 21.1803C11.8526 20.8609 12.2842 20.5742 12.6276 20.2538C13.4047 19.5311 14.3367 18.2668 15.4571 18.1447C17.0659 17.9703 18.0098 18.9186 19.3385 19.5627C20.725 20.2342 22.3021 20.7192 23.8412 20.8315V20.8336Z" fill="#126388"/>
  <path d="M34.9469 10.9607C34.8368 11.619 34.7714 11.8665 34.5839 12.4856C34.112 12.2817 33.6847 11.8926 33.1321 11.9776C33.2367 11.6496 33.3337 11.2354 33.3501 10.8888C33.9201 10.9901 34.3823 10.9029 34.9469 10.9618V10.9607Z" fill="#4EBABC"/>
  <path d="M34.5839 23.7373C34.4989 24.1613 34.2853 24.5319 34.076 24.8981C32.8629 24.884 31.6879 24.4643 30.4824 24.3913C27.4076 24.2038 24.0657 25.4104 21.4781 27.0039C21.3822 27.0628 21.2667 27.0672 21.3005 27.2208C21.2809 27.2056 21.1838 27.2034 21.1195 27.1511C20.7882 26.8753 20.4329 26.6312 20.1407 26.314C23.4085 24.4981 26.7579 22.8969 30.6273 23.1574C31.9571 23.2468 33.2443 23.7449 34.5839 23.7373Z" fill="#126388"/>
  <path d="M25.184 31.6494C25.2308 31.6734 25.2308 31.6974 25.184 31.7224V31.6494Z" fill="#EFEDDE"/>
</svg>

