<?xml version="1.0" encoding="UTF-8"?>
<svg id="Layer_2" data-name="Layer 2" xmlns="http://www.w3.org/2000/svg" viewBox="0 0 769.76 260.81">
  <defs>
    <style>
      .cls-1 {
        fill: #0f172a;
      }

      .cls-2 {
        fill: #26d26c;
      }

      .cls-3 {
        fill: #fefefe;
      }

      .cls-4 {
        fill: #0561fc;
      }
    </style>
  </defs>
  <g id="Layer_1-2" data-name="Layer 1">
    <g>
      <g>
        <path d="M539.64,30.52c-15.17-3.53-27.73-1.12-38.2,10.71l.77-7.54-1.28-1.46h-22l-1.5,1.5v110l1.5,1.5h23.5v-37.5c0-.23-1.9-1.34-.49-1.5h1.47c4.04,9.41,19.26,12.66,28.52,11.99,49.11-3.54,55.67-76.52,7.71-87.7ZM544.87,86.17c-5.54,10.03-16.42,11.19-26.94,10.07-21.69-2.31-24.35-41.81,3.28-44.72,20.48-2.17,33.82,16.2,23.66,34.65Z"/>
        <path d="M223.2,3.51c14.76-1.67,30.73.96,40.74,12.71,2.08,2.44,7.15,8.53,3.86,10.89-4.21,3.02-11.37,4.89-15.89,7.91-2.21-1.45-2.91-4.08-4.96-5.8-7.45-6.23-29.54-7.22-31.33,4.74-1.71,11.4,25.21,15.41,33.08,18.51,17.4,6.85,27.82,17.96,23.29,37.82-5.33,23.36-30.42,27.75-51.04,25.94-14.47-1.27-28.34-10.2-34.27-23.51l17.27-11.32c7.94,10.08,17.68,15.22,30.89,13.73,15.8-1.78,21.29-15.36,3.86-22.66-16.06-6.73-39.45-7.93-45.57-27.43-6.88-21.93,8.77-39.11,30.07-41.53Z"/>
        <path d="M679.87,31.29c-37.52-9.41-67.26,24.99-52.62,60.63,11.44,27.86,48.02,34.63,70.66,16.29,1.08-.87,7.37-7.02,7.49-7.54.32-1.41-.83-1.64-1.62-2.29-2.04-1.66-13.01-8.97-14.92-9.19-2.34,1.17-4.46,4.32-7.08,5.89-13.25,7.91-33.77,2.58-34.35-14.85h62c4.42-20.34-9.15-43.81-29.56-48.94ZM650.93,63.23c-.17,0-3.41,2.56-2.48-.48,5.51-18.06,33.67-18.66,37.98.48h-35.5Z"/>
        <rect x="586.43" y=".24" width="24" height="115"/>
        <rect x="285.43" y="32.24" width="24" height="83"/>
        <path d="M293.15.47c21.55-4.52,23.19,25.38,2.79,23.8-15.7-1.22-16.09-21.01-2.79-23.8Z"/>
        <path d="M419.44,51.14c-.32-.01-.64-.02-.96-.01-.28-.02-.57-.03-.86-.03.61-.02,1.21-.01,1.82.04Z"/>
        <g>
          <path d="M459.43,57.73v57.5h-25.63v-51.5c0-3.95-3.39-7.16-3.39-7.16-2.52-3.32-6.66-5.11-10.97-5.43-.61-.05-1.21-.06-1.82-.04-.61-.02-1.22-.01-1.83.04-4.31.32-8.45,2.11-10.97,5.43,0,0-3.39,3.21-3.39,7.16v51.5h-22v-49.5s-.04-.24-.12-.51c0-.01-.01-.02-.01-.02-.35-1.25-1.36-4.29-1.87-5.65-.1-.27-.18-.47-.23-.58-.35-.76-.77-1.46-1.26-2.11-5.61-7.58-19.46-7.73-25.12-.29,0,0-3.39,3.21-3.39,7.16v51.5h-24V32.23h23c.08,2.16-.12,4.36,0,6.52.05.94-.44,2.23.36,2.46.16.06.36.06.63.02.26-.49.53-.97.82-1.43,0-.01.01-.01.01-.01,6.4-10.03,21.02-11.7,32.59-7.56,3.7,1.32,7.07,3.23,9.78,5.65.47.42.92.86,1.35,1.31,1.43,1.5,2.55,4.57,3.83,5.67.35.31.73.46,1.12.38.3-.06,1.87-2.17,3.55-4.25,1.02-1.25,2.08-2.5,2.92-3.29.19-.19.37-.34.54-.47.32-.25.65-.49.99-.72,4.2-2.95,9.2-4.84,14.43-5.65,2.61-.42,5.28-.56,7.93-.44,6.79.31,13.48,2.37,18.84,6.21,2.19,1.57,4.17,3.43,5.84,5.58.2.26.45.61.72,1.04.38.59.82,1.33,1.3,2.16,1.25,2.2,2.72,5.03,3.82,7.47.95,2.14,1.63,3.99,1.63,4.85Z"/>
          <path d="M417.62,51.1c-.29,0-.58,0-.87.03-.32-.01-.64,0-.96.01.61-.05,1.22-.06,1.83-.04Z"/>
        </g>
      </g>
      <g>
        <path class="cls-1" d="M87.27,84.01c3.23.63,6.36-1.49,6.99-4.72l6.17-23.24c.5-2.89-1.16-5.72-3.93-6.68-3.12-1.08-6.52.58-7.6,3.69l-6.15,23.15c-.09.26-.16.53-.21.81-.63,3.23,1.49,6.37,4.73,6.99Z"/>
        <path class="cls-1" d="M121.93,110.03l20.9-12.03c2.5-1.66,3.37-4.93,2.03-7.63-1.47-2.95-5.05-4.15-8-2.68l-20.9,12.03c-2.5,1.67-3.37,4.94-2.03,7.63,1.47,2.95,5.05,4.15,8,2.68Z"/>
        <path class="cls-1" d="M34.13,115.53c.99-3.14-.75-6.49-3.9-7.48h-.04l-23.18-6.27c-2.89-.51-5.72,1.16-6.68,3.93-1.08,3.12.57,6.51,3.69,7.59l23.12,6.27c3.03.67,6.06-1.08,6.99-4.04Z"/>
        <path class="cls-1" d="M55.78,77.63l-12.03-20.9c-1.66-2.5-4.93-3.37-7.63-2.03-2.95,1.47-4.15,5.05-2.68,8l11.94,20.9c1.66,2.62,5.06,3.53,7.81,2.09,2.92-1.53,4.05-5.14,2.52-8.06h.07Z"/>
        <path class="cls-1" d="M33.32,147.44l-20.9,12.03c-2.5,1.66-3.37,4.93-2.03,7.63,1.47,2.95,5.05,4.15,8,2.68l20.9-12.03c2.5-1.67,3.38-4.94,2.04-7.63-1.47-2.95-5.06-4.15-8.01-2.68Z"/>
      </g>
      <path class="cls-1" d="M162.29,171.33c-.06-.59-.19-1.18-.39-1.74-.19-.59-.45-1.16-.76-1.71-.24-.45-.53-.89-.85-1.29-.32-.44-.68-.85-1.06-1.23l-.09-.1c-.38-.39-.79-.75-1.22-1.09-.48-.39-.98-.74-1.49-1.08l-28.36-18.49c-18.72-12.22-37.51-24.49-57.68-37.69l-.44-.24c-.59-.3-1.22-.52-1.87-.65-.41-.08-.82-.12-1.23-.12-.23,0-.46.02-.69.04-.51.06-1.02.18-1.5.36-.47.17-.92.4-1.34.69-.87.59-1.58,1.38-2.07,2.31-.31.59-.53,1.22-.65,1.87-.09.66-.09,1.32,0,1.98l10.17,102.35v.25l1.92,5.21.14.31.16.3c.33.53.71,1.03,1.12,1.49.42.44.88.83,1.37,1.17.5.34,1.03.63,1.59.85.56.23,1.15.41,1.76.52.49.09.99.15,1.49.17.53,0,1.06-.04,1.58-.11.51-.07,1.01-.18,1.5-.33.51-.14,1.01-.33,1.49-.55.64-.27,1.25-.58,1.85-.94.62-.37,1.22-.78,1.79-1.22l.12-.09c.6-.44,1.18-.94,1.76-1.5.58-.55,1.13-1.14,1.64-1.76l11.48-13.43,13.55,22.21c.28.47.6.9.97,1.3.36.37.75.72,1.17,1.03.43.31.89.57,1.37.79.48.22.98.4,1.49.54.49.11.99.18,1.49.22.5.05,1,.05,1.5,0,.5-.04,1-.13,1.49-.27.46-.13.91-.31,1.34-.52,4.44-2.31,8.74-4.89,12.87-7.72l2.98-1.92c.44-.3.85-.63,1.23-1,.37-.37.71-.78,1.01-1.21.29-.42.55-.87.76-1.33.21-.45.38-.92.5-1.4v-.15c.39-1.59.31-3.25-.23-4.79-.18-.52-.41-1.02-.68-1.5l-13.44-22.29,4.85-1.15c4.09-.99,8.21-1.99,12.35-2.79.78-.18,1.55-.39,2.31-.65.69-.25,1.48-.55,2.18-.86.69-.31,1.35-.66,2-1.05.61-.37,1.18-.78,1.73-1.24.44-.34.85-.72,1.23-1.13.36-.38.7-.8,1-1.24.61-.85,1.09-1.8,1.4-2.81.17-.58.28-1.17.34-1.77.07-.6.07-1.21,0-1.81ZM153.55,172.78c-.18.2-.37.39-.57.57-.6.46-1.25.85-1.94,1.15-.87.37-1.77.66-2.69.86-7.97,2-16.18,3.73-24.21,5.57-1.93.44-3.14,2.35-2.7,4.28.04.19.1.37.18.54,3.97,8.39,12.13,20.22,17.18,28.61l-14.43,8.75v-.02l-17.08-27.98c-1.02-1.68-3.2-2.23-4.89-1.22-2.69,1.55-14.14,16.28-17.02,19.67-.61.71-1.29,1.38-2.01,1.98-.59.48-1.23.87-1.92,1.18-.24.11-.5.2-.76.26-.14.02-.29.02-.43,0l-.19-.21c-.17-.3-.3-.61-.39-.93-.13-.49-.22-.99-.27-1.49-1.87-31.66-6.48-65.6-9.63-97.48l81.99,53.55c.44.28.85.59,1.24.94.26.23.48.5.65.79l.09.27c-.05.13-.12.25-.2.36Z"/>
      <g>
        <path class="cls-4" d="M217.42,147.2l20.5,70.01,21.98-69.03c1.91-2.3,15.19-.29,18.92-1.04l22.59,70.06,20.01-70h23l-30.13,104.87-23.78.04-20.1-68.91-22.47,68.02c-1.87,2.26-19.4.42-23.43.89l-31.09-104.91h24Z"/>
        <path class="cls-4" d="M372.37,172.65c-17.01,3.16-29.76,19.09-30.99,36.01-2.23,30.54,21.75,49.95,51.29,44.29,10.33-1.98,17.92-7.57,24.73-15.28.46-1.95-.55-1.22-1.24-1.72-2.18-1.56-12.59-8.79-14.26-8.75-3.02.77-4.42,4.26-7.13,5.85-11.68,6.89-31.46,1.74-31.35-13.85h57c4.64-29.54-18.21-52.09-48.05-46.55ZM364.42,204.2c3.47-19.28,31.92-19.95,35,0h-35Z"/>
        <g>
          <path class="cls-4" d="M451.92,141.2h-21.5v3.29c1.88-.1,3.86.22,5.74.02,3.86-.43,8.89-1.83,12.61-2.04,1.24-.08,2.24-.19,3.06.94l.47,38.15c.37-.33.74-.65,1.12-.95v-37.91l-1.5-1.5Z"/>
          <path class="cls-4" d="M500.14,180.1c-8.57-6.49-18.92-9.04-28.78-7.54-.02,0-.03,0-.05.01-6.38.97-12.54,3.64-17.89,8.04-.38.3-.75.62-1.12.95l-.47-38.15c-.82-1.13-1.82-1.02-3.06-.94-3.72.21-8.75,1.61-12.61,2.04-1.88.2-3.86-.12-5.74-.02v106.71h23v-5.72c8.55,7.44,19.46,9.86,30.2,7.67h.01c3.87-.78,7.71-2.16,11.41-4.12,24.57-12.99,27.04-52.33,5.1-68.93ZM473.36,233.7c-11.81,0-21.39-9.58-21.39-21.39s8.98-20.79,20.27-21.37c.14-.01.29-.01.44-.01,10.35,0,19.04,6.99,21.51,16.45.05.21.1.41.14.62.28,1.39.43,2.83.43,4.31,0,11.81-9.58,21.39-21.4,21.39Z"/>
        </g>
      </g>
      <path class="cls-2" d="M728.37,260.67l-159.36.14c-54.61-6.6-57.34-89.36-1.75-96.65l159.17-.34c57.29,6.12,57.59,87.16,1.94,96.85Z"/>
      <g>
        <path class="cls-3" d="M672.25,217.55c10.45-2.04,12.77-19.08,5.75-25.55-1.07-.99-7.07-3.92-8.36-4.14-6.49-1.09-15.59.81-22.4,0v47.93h10.42v-16.67c7.8-.51,9.99,11.27,14.57,16.16l12.52.5-12.5-18.23ZM657.65,210.79v-13.56c4.63.05,12.44-1.46,13.54,4.71,1.66,9.25-6.51,9.33-13.54,8.85Z"/>
        <path class="cls-3" d="M727.46,187.86v33.86c0,.29-1.53,4.67-1.88,5.43-5.72,12.58-27.05,13.39-34.43,1.7-.8-1.27-3.29-7.16-3.29-8.17v-32.82h10.42v32.82c0,1.02,3.58,4.91,4.83,5.59,3.21,1.77,9.15,1.42,11.6-1.13.21-.22,2.33-5.2,2.33-5.5v-31.78h10.42Z"/>
        <path class="cls-3" d="M620.14,197.24v10.42h18.75v8.33h-18.75c.23,2.21-.96,11.41,1.56,11.28.49-.11.83-.86,1.04-.86h18.23v9.38h-31.25v-47.93h31.25v9.38h-20.83Z"/>
        <path class="cls-3" d="M602.94,198.29c-.86-2.51-2.65-6.26-4.96-7.54-.74-.41-7.13-2.89-7.53-2.89h-21.36v47.93h10.42v-15.63c14.12,2.21,28.82-6.13,23.43-21.87ZM579.51,210.79v-13.56c18.62-3.18,18.72,16.99,0,13.56Z"/>
      </g>
    </g>
  </g>
</svg>