<?xml version="1.0" encoding="UTF-8"?>
<svg id="Layer_1" xmlns="http://www.w3.org/2000/svg" xmlns:xlink="http://www.w3.org/1999/xlink" version="1.1" viewBox="0 0 320 320">
  <!-- Generator: Adobe Illustrator 29.5.1, SVG Export Plug-In . SVG Version: 2.1.0 Build 141)  -->
  <defs>
    <style>
      .st0 {
        fill: none;
      }

      .st1 {
        font-family: Poppins-Bold, Poppins;
        font-size: 35.4px;
        font-weight: 700;
      }

      .st1, .st2 {
        isolation: isolate;
      }

      .st1, .st3 {
        fill: #00ff85;
      }

      .st4 {
        clip-path: url(#clippath-1);
      }

      .st5 {
        fill: #2563eb;
      }

      .st6 {
        fill: #fff;
      }

      .st7 {
        clip-path: url(#clippath);
      }
    </style>
    <clipPath id="clippath">
      <rect class="st0" width="320" height="320"/>
    </clipPath>
    <clipPath id="clippath-1">
      <rect class="st0" x="377.6" width="320" height="320"/>
    </clipPath>
  </defs>
  <g id="Layer_2">
    <g id="Facebook_Logo_Negro">
      <g class="st7">
        <g>
          <rect x="-.1" y=".6" width="320" height="320"/>
          <g>
            <g>
              <g>
                <path class="st6" d="M286,147.1c.7.1,1.3-.3,1.5-1l1.3-4.9c.1-.6-.2-1.2-.8-1.4-.6-.2-1.4.1-1.6.8l-1.3,4.9v.2c-.1.7.3,1.3,1,1.5h-.1Z"/>
                <path class="st6" d="M293.3,152.6l4.4-2.5c.5-.4.7-1,.4-1.6-.3-.6-1.1-.9-1.7-.6l-4.4,2.5c-.5.4-.7,1-.4,1.6.3.6,1.1.9,1.7.6Z"/>
                <path class="st6" d="M274.9,153.8c.2-.7-.2-1.4-.8-1.6h0l-4.9-1.3c-.6-.1-1.2.2-1.4.8-.2.6.1,1.4.8,1.6l4.9,1.3c.6.1,1.3-.2,1.5-.9h-.1Z"/>
                <path class="st6" d="M279.4,145.8l-2.5-4.4c-.4-.5-1-.7-1.6-.4s-.9,1.1-.6,1.7l2.5,4.4c.4.6,1.1.7,1.6.4.6-.3.9-1.1.5-1.7h.1Z"/>
                <path class="st6" d="M274.7,160.4l-4.4,2.5c-.5.4-.7,1-.4,1.6.3.6,1.1.9,1.7.6l4.4-2.5c.5-.4.7-1,.4-1.6-.3-.6-1.1-.9-1.7-.6Z"/>
              </g>
              <path class="st6" d="M301.7,165.4v-.4c0-.1,0-.2-.2-.4,0,0-.1-.2-.2-.3,0,0-.1-.2-.2-.3h0c0-.1-.2-.2-.3-.2s-.2-.2-.3-.2l-5.9-3.9c-3.9-2.6-7.9-5.1-12.1-7.9h0c-.1-.1-.3-.2-.4-.2h-.7c-.1,0-.2,0-.3.1-.2.1-.3.3-.4.5,0,.1-.1.3-.1.4v.4l2.1,21.4h0l.4,1.1h0c0,.2.1.3.2.4,0,0,.2.2.3.2s.2.1.3.2c.1,0,.2,0,.4.1h.9c.1,0,.2,0,.3-.1.1,0,.3-.1.4-.2s.3-.2.4-.3h0c.1-.1.2-.2.4-.3.1-.1.2-.2.3-.4l2.4-2.8,2.8,4.6c0,.1.1.2.2.3,0,0,.2.1.2.2,0,0,.2.1.3.2s.2,0,.3.1h.9c0,0,.2,0,.3-.1.9-.5,1.8-1,2.7-1.6l.6-.4s.2-.1.3-.2c0,0,.1-.2.2-.2s.1-.2.2-.3c0,0,0-.2.1-.3h0v-1c0-.1,0-.2-.1-.3l-2.8-4.7,1-.2c.9-.2,1.7-.4,2.6-.6.2,0,.3,0,.5-.1.1,0,.3-.1.5-.2.1,0,.3-.1.4-.2.1,0,.2-.2.4-.3,0,0,.2-.1.3-.2,0,0,.1-.2.2-.3.1-.2.2-.4.3-.6v-.8h0v.3ZM299.9,165.8h-.1c-.1.2-.3.3-.4.3-.2,0-.4.1-.6.2-1.7.4-3.4.8-5.1,1.2-.4,0-.7.5-.6.9h0c.8,1.9,2.5,4.3,3.6,6.1l-3,1.8h0l-3.6-5.9c-.2-.4-.7-.5-1-.3-.6.3-3,3.4-3.6,4.1-.1.1-.3.3-.4.4-.1.1-.3.2-.4.2h-.3v-.5c-.4-6.6-1.4-13.8-2-20.4l17.2,11.2s.2.1.3.2c0,0,.1.1.1.2h0c0,.1,0,.3,0,.3Z"/>
            </g>
            <g>
              <path class="st6" d="M186.7,115.8c-7.1-1.7-13.1-.5-18,5.1l.4-3.6-.6-.7h-10.4l-.7.7v51.9l.7.7h11.1v-17.7c0-.1-.9-.6-.2-.7h.7c1.9,4.4,9.1,6,13.4,5.6,23.2-1.7,26.2-36.1,3.6-41.3h0ZM189.2,142c-2.6,4.7-7.7,5.3-12.7,4.8-10.2-1.1-11.5-19.7,1.6-21.1,9.7-1,15.9,7.6,11.2,16.3h-.1Z"/>
              <path class="st6" d="M37.5,103c7-.8,14.5.4,19.2,6,1,1.2,3.4,4,1.8,5.1-2,1.4-5.4,2.3-7.5,3.7-1-.7-1.4-1.9-2.3-2.7-3.5-2.9-13.9-3.4-14.8,2.2s11.9,7.3,15.6,8.7c8.2,3.2,13.1,8.5,11,17.8-2.5,11-14.3,13.1-24.1,12.2-6.8-.6-13.4-4.8-16.2-11.1l8.1-5.3c3.8,4.8,8.3,7.2,14.6,6.5,7.5-.8,10-7.2,1.8-10.7-7.6-3.2-18.6-3.7-21.5-12.9-3.2-10.3,4.1-18.4,14.2-19.6h0Z"/>
              <path class="st6" d="M252.8,116.1c-17.7-4.4-31.7,11.8-24.8,28.6,5.4,13.1,22.6,16.3,33.3,7.7.5-.4,3.5-3.3,3.5-3.6.1-.7-.4-.8-.8-1.1-1-.8-6.1-4.2-7-4.3-1.1.6-2.1,2-3.3,2.8-6.2,3.7-15.9,1.2-16.2-7h29.2c2.1-9.6-4.3-20.7-13.9-23.1h0ZM239.2,131.2s-1.6,1.2-1.2-.2c2.6-8.5,15.9-8.8,17.9.2h-16.7Z"/>
              <rect class="st6" x="208.8" y="101.5" width="11.3" height="54.2"/>
              <rect class="st6" x="66.8" y="116.6" width="11.3" height="39.1"/>
              <path class="st6" d="M70.5,101.6c10.2-2.1,10.9,12,1.3,11.2-7.4-.6-7.6-9.9-1.3-11.2Z"/>
              <path class="st6" d="M130,125.5h-.8.9-.1Z"/>
              <g>
                <path class="st6" d="M148.9,128.6v27.1h-12.1v-24.3c0-1.9-1.6-3.4-1.6-3.4-1.2-1.6-3.1-2.4-5.2-2.6h-1.8c-2,.2-4,1-5.2,2.6,0,0-1.6,1.5-1.6,3.4v24.3h-10.4v-23.5h0c-.2-.6-.6-2-.9-2.7,0-.1,0-.2,0-.3-.2-.4-.4-.7-.6-1-2.7-3.6-9.2-3.6-11.8-.1,0,0-1.6,1.5-1.6,3.4v24.3h-11.3v-39.1h10.8v3.1c0,.4-.2,1.1.2,1.2h.3c0-.2.2-.5.4-.7h0c3-4.7,9.9-5.5,15.4-3.6,1.7.6,3.3,1.5,4.6,2.7l.6.6c.7.7,1.2,2.2,1.8,2.7.2.2.3.2.5.2s.9-1,1.7-2c.5-.6,1-1.2,1.4-1.6l.2-.2c.2,0,.3-.2.5-.3,2-1.4,4.3-2.3,6.8-2.7,1.2-.2,2.5-.3,3.7-.2,3.2.2,6.4,1.1,8.9,2.9,1,.7,2,1.6,2.8,2.6,0,0,.2.3.3.5.2.3.4.6.6,1,.6,1,1.3,2.4,1.8,3.5.4,1,.8,1.9.8,2.3h0Z"/>
                <path class="st6" d="M129.2,125.5h-.8.9-.1Z"/>
              </g>
            </g>
            <g>
              <path class="st5" d="M34.8,170.8l9.7,33,10.4-32.6c.9-1.1,7.2-.1,8.9-.5l10.7,33,9.4-33h10.8l-14.2,49.4h-11.2l-9.5-32.5-10.6,32.1c-.9,1.1-9.2.2-11,.4l-14.7-49.5h11.3v.2Z"/>
              <path class="st5" d="M107.8,182.8c-8,1.5-14,9-14.6,17-1.1,14.4,10.3,23.6,24.2,20.9,4.9-.9,8.4-3.6,11.7-7.2.2-.9-.3-.6-.6-.8-1-.7-5.9-4.1-6.7-4.1-1.4.4-2.1,2-3.4,2.8-5.5,3.2-14.8.8-14.8-6.5h26.9c2.2-13.9-8.6-24.6-22.7-21.9h0v-.2ZM104.1,197.7c1.6-9.1,15.1-9.4,16.5,0h-16.5Z"/>
              <g>
                <path class="st5" d="M145.3,167.9h-10.1v1.6c.9,0,1.8.1,2.7,0,1.8-.2,4.2-.9,5.9-1,.6,0,1.1,0,1.4.4l.2,18c.2-.2.4-.3.5-.4v-17.9l-.7-.7h.1Z"/>
                <path class="st5" d="M168.1,186.3c-4-3.1-8.9-4.3-13.6-3.6h0c-3,.5-5.9,1.7-8.4,3.8-.2.1-.4.3-.5.4l-.2-18c-.4-.5-.9-.5-1.4-.4-1.8.1-4.1.8-5.9,1h-2.7v50.3h10.8v-2.7c4,3.5,9.2,4.6,14.2,3.6h0c1.8-.4,3.6-1,5.4-1.9,11.6-6.1,12.8-24.7,2.4-32.5h-.1ZM155.4,211.6c-5.6,0-10.1-4.5-10.1-10.1s4.2-9.8,9.6-10.1h.2c4.9,0,9,3.3,10.1,7.8v.3c.1.7.2,1.3.2,2,0,5.6-4.5,10.1-10.1,10.1h.1Z"/>
              </g>
            </g>
            <path class="st3" d="M275.7,224.3h-75.1c-25.8-3-27-42.1-.8-45.5l75.1-.2c27,2.9,27.1,41.1.9,45.7h0Z"/>
            <g>
              <path d="M249.2,203.9c4.9-1,6-9,2.7-12.1-.5-.5-3.3-1.9-3.9-1.9-3.1-.5-7.4.4-10.6,0v22.6h4.9v-7.9c3.7-.2,4.7,5.3,6.9,7.6l5.9.2-5.9-8.6h0ZM242.3,200.8v-6.4c2.2,0,5.9-.7,6.4,2.2.8,4.4-3.1,4.4-6.4,4.2Z"/>
              <path d="M275.3,189.9v16c0,.1-.7,2.2-.9,2.6-2.7,5.9-12.8,6.3-16.2.8-.4-.6-1.5-3.4-1.5-3.9v-15.5h4.9v15.5c0,.5,1.7,2.3,2.3,2.6,1.5.8,4.3.7,5.5-.5.1-.1,1.1-2.4,1.1-2.6v-15h4.9,0Z"/>
              <path d="M224.6,194.4v4.9h8.8v3.9h-8.8c.1,1-.4,5.4.7,5.3.2,0,.4-.4.5-.4h8.6v4.4h-14.7v-22.6h14.7v4.4h-9.8Z"/>
              <path d="M216.5,194.9c-.4-1.2-1.2-2.9-2.3-3.6-.4-.2-3.4-1.4-3.6-1.4h-10.1v22.6h4.9v-7.4c6.7,1,13.6-2.9,11.1-10.3h0ZM205.5,200.8v-6.4c8.8-1.5,8.8,8,0,6.4Z"/>
            </g>
          </g>
        </g>
      </g>
    </g>
  </g>
  <g id="Facebook_Logo_Negro1">
    <g class="st4">
      <g>
        <rect x="377.5" y=".6" width="320" height="320"/>
        <g>
          <g>
            <g>
              <path class="st6" d="M663.6,147.1c.7.1,1.3-.3,1.5-1l1.3-4.9c0-.6-.2-1.2-.8-1.4s-1.4.1-1.6.8l-1.3,4.9v.2c0,.7.3,1.3,1,1.5h-.1Z"/>
              <path class="st6" d="M670.9,152.6l4.4-2.5c.5-.4.7-1,.4-1.6s-1.1-.9-1.7-.6l-4.4,2.5c-.5.4-.7,1-.4,1.6s1.1.9,1.7.6Z"/>
              <path class="st6" d="M652.5,153.8c.2-.7-.2-1.4-.8-1.6h0l-4.9-1.3c-.6-.1-1.2.2-1.4.8s0,1.4.8,1.6l4.9,1.3c.6.1,1.3-.2,1.5-.9h0Z"/>
              <path class="st6" d="M657,145.8l-2.5-4.4c-.4-.5-1-.7-1.6-.4s-.9,1.1-.6,1.7l2.5,4.4c.4.6,1.1.7,1.6.4.6-.3.9-1.1.5-1.7h0Z"/>
              <path class="st6" d="M652.3,160.4l-4.4,2.5c-.5.4-.7,1-.4,1.6s1.1.9,1.7.6l4.4-2.5c.5-.4.7-1,.4-1.6s-1.1-.9-1.7-.6Z"/>
            </g>
            <path class="st6" d="M679.3,165.4v-.4c0-.1,0-.2-.2-.4,0,0,0-.2-.2-.3,0,0,0-.2-.2-.3h0c0-.1-.2-.2-.3-.2s-.2-.2-.3-.2l-5.9-3.9c-3.9-2.6-7.9-5.1-12.1-7.9h0c0-.1-.3-.2-.4-.2h-.7c0,0-.2,0-.3.1-.2.1-.3.3-.4.5,0,.1,0,.3,0,.4v.4l2.1,21.4h0l.4,1.1h0c0,.2,0,.3.2.4,0,0,.2.2.3.2s.2.1.3.2c0,0,.2,0,.4.1h.9c0,0,.2,0,.3-.1,0,0,.3-.1.4-.2s.3-.2.4-.3h0c0-.1.2-.2.4-.3,0-.1.2-.2.3-.4l2.4-2.8,2.8,4.6c0,.1,0,.2.2.3,0,0,.2.1.2.2,0,0,.2.1.3.2s.2,0,.3.1h.9c0,0,.2,0,.3-.1.9-.5,1.8-1,2.7-1.6l.6-.4s.2-.1.3-.2c0,0,0-.2.2-.2s0-.2.2-.3c0,0,0-.2,0-.3h0v-1c0-.1,0-.2,0-.3l-2.8-4.7,1-.2c.9-.2,1.7-.4,2.6-.6.2,0,.3,0,.5-.1,0,0,.3-.1.5-.2,0,0,.3-.1.4-.2,0,0,.2-.2.4-.3,0,0,.2-.1.3-.2,0,0,0-.2.2-.3,0-.2.2-.4.3-.6v-.8h0v.3ZM677.5,165.8h0c0,.2-.3.3-.4.3-.2,0-.4.1-.6.2-1.7.4-3.4.8-5.1,1.2-.4,0-.7.5-.6.9h0c.8,1.9,2.5,4.3,3.6,6.1l-3,1.8h0l-3.6-5.9c-.2-.4-.7-.5-1-.3-.6.3-3,3.4-3.6,4.1,0,.1-.3.3-.4.4,0,.1-.3.2-.4.2h-.3v-.5c-.4-6.6-1.4-13.8-2-20.4l17.2,11.2s.2.1.3.2c0,0,0,.1,0,.2h0c0,.1-.1.3-.1.3Z"/>
          </g>
          <g>
            <path class="st6" d="M564.3,115.8c-7.1-1.7-13.1-.5-18,5.1l.4-3.6-.6-.7h-10.4l-.7.7v51.9l.7.7h11.1v-17.7c0-.1-.9-.6-.2-.7h.7c1.9,4.4,9.1,6,13.4,5.6,23.2-1.7,26.2-36.1,3.6-41.3h0ZM566.8,142c-2.6,4.7-7.7,5.3-12.7,4.8-10.2-1.1-11.5-19.7,1.6-21.1,9.7-1,15.9,7.6,11.2,16.3h0Z"/>
            <path class="st6" d="M415.1,103c7-.8,14.5.4,19.2,6,1,1.2,3.4,4,1.8,5.1-2,1.4-5.4,2.3-7.5,3.7-1-.7-1.4-1.9-2.3-2.7-3.5-2.9-13.9-3.4-14.8,2.2s11.9,7.3,15.6,8.7c8.2,3.2,13.1,8.5,11,17.8-2.5,11-14.3,13.1-24.1,12.2-6.8-.6-13.4-4.8-16.2-11.1l8.1-5.3c3.8,4.8,8.3,7.2,14.6,6.5,7.5-.8,10-7.2,1.8-10.7-7.6-3.2-18.6-3.7-21.5-12.9-3.2-10.3,4.1-18.4,14.2-19.6h0Z"/>
            <path class="st6" d="M630.4,116.1c-17.7-4.4-31.7,11.8-24.8,28.6,5.4,13.1,22.6,16.3,33.3,7.7.5-.4,3.5-3.3,3.5-3.6,0-.7-.4-.8-.8-1.1-1-.8-6.1-4.2-7-4.3-1.1.6-2.1,2-3.3,2.8-6.2,3.7-15.9,1.2-16.2-7h29.2c2.1-9.6-4.3-20.7-13.9-23.1h0ZM616.8,131.2s-1.6,1.2-1.2-.2c2.6-8.5,15.9-8.8,17.9.2h-16.7Z"/>
            <rect class="st6" x="586.4" y="101.5" width="11.3" height="54.2"/>
            <rect class="st6" x="444.4" y="116.6" width="11.3" height="39.1"/>
            <path class="st6" d="M448.1,101.6c10.2-2.1,10.9,12,1.3,11.2-7.4-.6-7.6-9.9-1.3-11.2Z"/>
            <path class="st6" d="M507.6,125.5h-.8.9-.1Z"/>
            <g>
              <path class="st6" d="M526.5,128.6v27.1h-12.1v-24.3c0-1.9-1.6-3.4-1.6-3.4-1.2-1.6-3.1-2.4-5.2-2.6h-1.8c-2,.2-4,1-5.2,2.6,0,0-1.6,1.5-1.6,3.4v24.3h-10.4v-23.5h0c-.2-.6-.6-2-.9-2.7,0-.1,0-.2-.1-.3-.2-.4-.4-.7-.6-1-2.7-3.6-9.2-3.6-11.8-.1,0,0-1.6,1.5-1.6,3.4v24.3h-11.3v-39.1h10.8v3.1c0,.4-.2,1.1.2,1.2h.3c.1-.2.2-.5.4-.7h0c3-4.7,9.9-5.5,15.4-3.6,1.7.6,3.3,1.5,4.6,2.7.2.2.4.4.6.6.7.7,1.2,2.2,1.8,2.7.2.2.3.2.5.2s.9-1,1.7-2c.5-.6,1-1.2,1.4-1.6l.2-.2c.2,0,.3-.2.5-.3,2-1.4,4.3-2.3,6.8-2.7,1.2-.2,2.5-.3,3.7-.2,3.2.2,6.4,1.1,8.9,2.9,1,.7,2,1.6,2.8,2.6,0,0,.2.3.3.5.2.3.4.6.6,1,.6,1,1.3,2.4,1.8,3.5.4,1,.8,1.9.8,2.3h.1Z"/>
              <path class="st6" d="M506.8,125.5h-.8.9-.1Z"/>
            </g>
          </g>
          <g>
            <path class="st5" d="M412.4,170.8l9.7,33,10.4-32.6c.9-1.1,7.2-.1,8.9-.5l10.7,33,9.4-33h10.8l-14.2,49.4h-11.2l-9.5-32.5-10.6,32.1c-.9,1.1-9.2.2-11,.4l-14.7-49.5h11.3v.2Z"/>
            <path class="st5" d="M485.4,182.8c-8,1.5-14,9-14.6,17-1.1,14.4,10.3,23.6,24.2,20.9,4.9-.9,8.4-3.6,11.7-7.2.2-.9-.3-.6-.6-.8-1-.7-5.9-4.1-6.7-4.1-1.4.4-2.1,2-3.4,2.8-5.5,3.2-14.8.8-14.8-6.5h26.9c2.2-13.9-8.6-24.6-22.7-21.9h0v-.2ZM481.7,197.7c1.6-9.1,15.1-9.4,16.5,0h-16.5Z"/>
            <g>
              <path class="st5" d="M522.9,167.9h-10.1v1.6c.9,0,1.8.1,2.7,0,1.8-.2,4.2-.9,5.9-1,.6,0,1.1,0,1.4.4l.2,18c.2-.2.4-.3.5-.4v-17.9l-.7-.7h0Z"/>
              <path class="st5" d="M545.7,186.3c-4-3.1-8.9-4.3-13.6-3.6h0c-3,.5-5.9,1.7-8.4,3.8-.2.1-.4.3-.5.4l-.2-18c-.4-.5-.9-.5-1.4-.4-1.8.1-4.1.8-5.9,1h-2.7v50.3h10.8v-2.7c4,3.5,9.2,4.6,14.2,3.6h0c1.8-.4,3.6-1,5.4-1.9,11.6-6.1,12.8-24.7,2.4-32.5h0ZM533,211.6c-5.6,0-10.1-4.5-10.1-10.1s4.2-9.8,9.6-10.1h.2c4.9,0,9,3.3,10.1,7.8v.3c0,.7.2,1.3.2,2,0,5.6-4.5,10.1-10.1,10.1h0Z"/>
            </g>
          </g>
          <path class="st3" d="M653.3,224.3h-75.1c-25.8-3-27-42.1-.8-45.5l75.1-.2c27,2.9,27.1,41.1.9,45.7h-.1Z"/>
          <g>
            <path d="M626.8,203.9c4.9-1,6-9,2.7-12.1-.5-.5-3.3-1.9-3.9-1.9-3.1-.5-7.4.4-10.6,0v22.6h4.9v-7.9c3.7-.2,4.7,5.3,6.9,7.6l5.9.2-5.9-8.6h0ZM619.9,200.8v-6.4c2.2,0,5.9-.7,6.4,2.2.8,4.4-3.1,4.4-6.4,4.2Z"/>
            <path d="M652.9,189.9v16c0,.1-.7,2.2-.9,2.6-2.7,5.9-12.8,6.3-16.2.8-.4-.6-1.5-3.4-1.5-3.9v-15.5h4.9v15.5c0,.5,1.7,2.3,2.3,2.6,1.5.8,4.3.7,5.5-.5,0-.1,1.1-2.4,1.1-2.6v-15h4.9,0Z"/>
            <path d="M602.2,194.4v4.9h8.8v3.9h-8.8c0,1-.4,5.4.7,5.3.2,0,.4-.4.5-.4h8.6v4.4h-14.7v-22.6h14.7v4.4h-9.8Z"/>
            <path d="M594.1,194.9c-.4-1.2-1.2-2.9-2.3-3.6-.4-.2-3.4-1.4-3.6-1.4h-10.1v22.6h4.9v-7.4c6.7,1,13.6-2.9,11.1-10.3h0ZM583.1,200.8v-6.4c8.8-1.5,8.8,8,0,6.4Z"/>
          </g>
        </g>
      </g>
    </g>
  </g>
  <g>
    <rect x="431.2" y="409.4" width="327.7" height="327.7"/>
    <g>
      <g>
        <path class="st6" d="M714.2,565.2c.6,0,1.2-.3,1.3-.9l1.2-4.4c0-.5-.2-1.1-.7-1.3-.6-.2-1.2,0-1.4.7l-1.2,4.3v.2c0,.6.3,1.2.9,1.3h0Z"/>
        <path class="st6" d="M720.7,570l3.9-2.3c.5-.3.6-.9.4-1.4-.3-.6-.9-.8-1.5-.5l-3.9,2.3c-.5.3-.6.9-.4,1.4.3.6.9.8,1.5.5Z"/>
        <path class="st6" d="M704.2,571.1c.2-.6,0-1.2-.7-1.4h0l-4.4-1.2c-.5,0-1.1.2-1.3.7-.2.6,0,1.2.7,1.4l4.3,1.2c.6,0,1.1-.2,1.3-.8h.1Z"/>
        <path class="st6" d="M708.2,564l-2.3-3.9c-.3-.5-.9-.6-1.4-.4-.6.3-.8.9-.5,1.5l2.2,3.9c.3.5.9.7,1.5.4.5-.3.8-1,.5-1.5h0Z"/>
        <path class="st6" d="M704,577.1l-3.9,2.3c-.5.3-.6.9-.4,1.4.3.6.9.8,1.5.5l3.9-2.3c.5-.3.6-.9.4-1.4-.3-.6-.9-.8-1.5-.5Z"/>
      </g>
      <path class="st6" d="M728.2,581.5v-.3c0,0,0-.2,0-.3,0,0,0-.2-.2-.2,0,0,0-.2-.2-.2h0l-.2-.2s-.2,0-.3-.2l-5.3-3.5c-3.5-2.3-7-4.6-10.8-7.1h0c0,0-.2,0-.3-.2h-.6s-.2,0-.3,0c-.2,0-.3.3-.4.4,0,0,0,.2,0,.3v.4l1.9,19.2h0l.4,1h0c0,0,0,.3.2.4,0,0,.2.2.3.2,0,0,.2,0,.3.2h1.2s.2,0,.3,0c0,0,.2,0,.3-.2s.2,0,.3-.2h0c0,0,.2-.2.3-.3l.3-.3,2.2-2.5,2.5,4.2s0,.2.2.2l.2.2s.2,0,.3.2.2,0,.3,0h1.2c.8-.4,1.6-.9,2.4-1.5l.6-.4s.2,0,.2-.2l.2-.2c.1-.1,0-.2,0-.3v-.3h0v-.9s0-.2,0-.3l-2.5-4.2.9-.2c.8-.2,1.5-.4,2.3-.5,0,0,.3,0,.4,0,0,0,.3,0,.4-.2,0,0,.3,0,.4-.2,0,0,.2,0,.3-.2,0,0,.2,0,.2-.2,0,0,0-.2.2-.2,0-.2.2-.3.3-.5v-.6h-.2ZM726.7,581.8h0c0,0-.2.3-.4.3s-.3,0-.5.2c-1.5.4-3,.7-4.5,1-.4,0-.6.4-.5.8h0c.7,1.6,2.3,3.8,3.2,5.4l-2.7,1.6h0l-3.2-5.3c-.2-.3-.6-.4-.9-.2-.5.3-2.7,3.1-3.2,3.7,0,0-.2.3-.4.4,0,0-.2.2-.4.2h-.2v-.5c-.3-5.9-1.2-12.3-1.8-18.3l15.4,10.1s.2,0,.2.2v.2h0c0,0,0,.2,0,.2Z"/>
    </g>
    <g>
      <path class="st6" d="M625.2,537c-6.4-1.5-11.7-.5-16.1,4.5l.3-3.2-.5-.6h-9.3l-.6.6v46.5l.6.6h9.9v-15.8s-.8-.6-.2-.6h.6c1.7,4,8.1,5.3,12.1,5.1,20.8-1.5,23.5-32.3,3.3-37.1h0ZM627.4,560.5c-2.3,4.2-6.9,4.7-11.4,4.3-9.2-1-10.3-17.7,1.4-18.9,8.7-.9,14.3,6.8,10,14.6h0Z"/>
      <path class="st6" d="M491.5,525.6c6.2-.7,13,.4,17.2,5.4.9,1,3,3.6,1.6,4.6-1.8,1.3-4.8,2.1-6.7,3.3-.9-.6-1.2-1.7-2.1-2.4-3.1-2.6-12.5-3-13.2,2-.7,5,10.7,6.5,14,7.8,7.4,2.9,11.8,7.6,9.8,16-2.2,9.9-12.9,11.7-21.6,11-6.1-.5-12-4.3-14.5-9.9l7.3-4.8c3.4,4.3,7.5,6.4,13.1,5.8,6.7-.8,9-6.5,1.6-9.6-6.8-2.8-16.7-3.4-19.2-11.6-2.9-9.3,3.7-16.5,12.7-17.5h0Z"/>
      <path class="st6" d="M684.5,537.4c-15.9-4-28.4,10.6-22.2,25.6,4.8,11.8,20.3,14.6,29.9,6.9.5-.4,3.1-3,3.2-3.2,0-.6-.3-.7-.7-1-.9-.7-5.5-3.8-6.3-3.9-1,.5-1.9,1.8-3,2.5-5.6,3.3-14.3,1.1-14.5-6.3h26.2c1.9-8.6-3.9-18.5-12.5-20.7h-.1ZM672.2,550.8s-1.4,1.1-1-.2c2.3-7.6,14.2-7.9,16,.2h-15Z"/>
      <rect class="st6" x="645" y="524.2" width="10.1" height="48.6"/>
      <rect class="st6" x="517.7" y="537.7" width="10.1" height="35.1"/>
      <path class="st6" d="M521.1,524.3c9.1-1.9,9.8,10.7,1.2,10.1-6.6-.5-6.8-8.9-1.2-10.1Z"/>
      <path class="st6" d="M574.4,545.7h-.8.8Z"/>
      <g>
        <path class="st6" d="M591.2,548.5v24.3h-10.8v-21.8c0-1.7-1.4-3-1.4-3-1.1-1.4-2.8-2.2-4.6-2.3h-1.6c-1.8,0-3.6.9-4.6,2.3,0,0-1.4,1.4-1.4,3v21.8h-9.3v-21.1h0c-.2-.5-.6-1.8-.8-2.4v-.2c-.2-.3-.3-.6-.5-.9-2.4-3.2-8.2-3.3-10.6,0,0,0-1.4,1.4-1.4,3v21.8h-10.1v-35.1h9.7v2.8c0,.4-.2.9.2,1h.3l.3-.6h0c2.7-4.2,8.9-4.9,13.8-3.2,1.6.6,3,1.4,4.1,2.4.2.2.4.4.6.6.6.6,1.1,1.9,1.6,2.4.2,0,.3.2.5.2s.8-.9,1.5-1.8c.4-.5.9-1.1,1.2-1.4,0,0,.2,0,.2-.2,0,0,.3-.2.4-.3,1.8-1.2,3.9-2,6.1-2.4,1.1-.2,2.2-.2,3.4-.2,2.9.1,5.7,1,8,2.6.9.7,1.8,1.5,2.5,2.4,0,0,.2.3.3.4.2.3.3.6.5.9.5.9,1.1,2.1,1.6,3.2.4.9.7,1.7.7,2.1h0l-.4-.2Z"/>
        <path class="st6" d="M573.7,545.7h-.8.8Z"/>
      </g>
    </g>
    <g>
      <path class="st5" d="M489.1,586.3l8.7,29.6,9.3-29.2c.8-1,6.4,0,8-.4l9.5,29.6,8.5-29.6h9.7l-12.7,44.3h-10l-8.5-29.1-9.5,28.7c-.8,1-8.2.2-9.9.4l-13.1-44.3h10.2-.2Z"/>
      <path class="st5" d="M554.5,597.1c-7.2,1.3-12.6,8.1-13.1,15.2-.9,12.9,9.2,21.1,21.7,18.7,4.4-.8,7.6-3.2,10.4-6.5.2-.8-.2-.5-.5-.7-.9-.7-5.3-3.7-6-3.7-1.3.3-1.9,1.8-3,2.5-4.9,2.9-13.3.7-13.2-5.9h24.1c2-12.5-7.7-22-20.3-19.7h0ZM551.2,610.4c1.5-8.1,13.5-8.4,14.8,0h-14.8Z"/>
      <g>
        <path class="st5" d="M588,583.8h-9.1v1.4h2.4c1.6-.2,3.8-.8,5.3-.9.5,0,.9,0,1.3.4l.2,16.1c.2,0,.3-.3.5-.4v-16l-.6-.6h0Z"/>
        <path class="st5" d="M608.5,600.2c-3.6-2.7-8-3.8-12.2-3.2h0c-2.7.4-5.3,1.5-7.6,3.4-.2,0-.3.3-.5.4l-.2-16.1c-.3-.5-.8-.4-1.3-.4-1.6,0-3.7.7-5.3.9h-2.4v45.1h9.7v-2.4c3.6,3.1,8.2,4.2,12.8,3.2h0c1.6-.3,3.3-.9,4.8-1.7,10.4-5.5,11.4-22.1,2.2-29.1h0ZM597.2,622.9c-5,0-9-4.1-9-9s3.8-8.8,8.6-9h.2c4.4,0,8,3,9.1,7v.3c0,.6.2,1.2.2,1.8,0,5-4.1,9-9,9h0Z"/>
      </g>
    </g>
    <g class="st2">
      <text class="st1" transform="translate(476 515.3)"><tspan x="0" y="0">CRM</tspan></text>
    </g>
    <path class="st3" d="M705,634.5h-67.3c-23.1-2.7-24.2-37.7-.7-40.8h67.3c24.2,2.4,24.3,36.7.8,40.8h0Z"/>
    <g>
      <path d="M681.2,616.3c4.4-.9,5.4-8.1,2.4-10.8-.4-.4-3-1.7-3.5-1.7-2.7-.5-6.6.3-9.5,0v20.3h4.4v-7c3.3-.2,4.2,4.8,6.2,6.8l5.3.2-5.3-7.7h0ZM675,613.4v-5.7c2,0,5.3-.6,5.7,2,.7,3.9-2.8,3.9-5.7,3.7Z"/>
      <path d="M704.5,603.7v14.3c0,0-.6,2-.8,2.3-2.4,5.3-11.4,5.7-14.5.7-.3-.5-1.4-3-1.4-3.5v-13.9h4.4v13.9c0,.4,1.5,2.1,2,2.4,1.4.7,3.9.6,4.9-.5,0,0,1-2.2,1-2.3v-13.4h4.4,0Z"/>
      <path d="M659.2,607.7v4.4h7.9v3.5h-7.9c0,.9-.4,4.8.7,4.8s.3-.4.4-.4h7.7v4h-13.2v-20.3h13.2v4h-8.8Z"/>
      <path d="M652,608.1c-.4-1.1-1.1-2.6-2.1-3.2-.3-.2-3-1.2-3.2-1.2h-9v20.3h4.4v-6.6c6,.9,12.2-2.6,9.9-9.2h0ZM642,613.4v-5.7c7.9-1.3,7.9,7.2,0,5.7Z"/>
    </g>
  </g>
</svg>