<svg width="134" height="113" viewBox="0 0 134 113" fill="none" xmlns="http://www.w3.org/2000/svg">
<path d="M64.6457 0C64.8245 0 67.3599 0.196999 68.3741 0.244424C83.3569 0.904734 101.455 7.85805 111.626 19.0687C113.129 20.725 114.796 22.695 115.894 24.8072C116.522 26.0147 115.497 27.412 114.162 27.153L111.061 26.5437C110.674 26.4671 110.331 26.2519 110.094 25.9418C93.3965 4.34126 58.6227 0.313739 34.6837 11.1341C19.4309 18.029 1.60618 36.1383 5.85624 54.3789C8.32237 64.9584 20.2298 70.9158 29.9083 65.3962C36.5479 61.6058 41.0314 53.507 48.6998 51.6282C59.0276 49.0964 64.6639 55.9549 73.5362 58.8588C89.504 64.0902 104.961 56.7903 110.517 41.2128C110.798 40.4285 111.63 39.9688 112.432 40.1877C113.184 40.3956 113.881 40.7969 114.581 41.1836C115.282 41.5703 115.581 42.3766 115.329 43.1171C108.627 62.6784 88.1542 70.9085 68.8739 62.7915C58.6336 58.4794 53.6612 51.7267 43.1108 61.0951C35.6176 67.7456 30.419 74.3049 18.9676 72.6085C-1.76468 69.5441 -3.92437 46.1816 4.92233 30.6916C15.4362 12.2832 35.9423 1.835 56.7147 0.244424C57.5611 0.178758 58.0827 0.102147 58.9364 0.0583699L59.4982 0.0255367C59.5456 0.0218886 59.8995 0 59.9469 0H64.6494H64.6457Z" fill="#C2C2C2"/>
<path d="M132.037 49.9246C130.096 44.5582 126.324 38.8525 121.709 35.4671C121.122 35.3759 121.399 35.7334 121.352 36.0836C121.111 37.7982 120.706 39.4362 120.411 41.1326C127.017 47.9509 132.216 61.6642 125.573 69.9527C119.583 77.4241 109.948 72.583 102.279 72.1489C86.8625 71.2734 78.3478 77.2234 65.3058 83.0568C56.5211 86.9895 43.4828 89.0251 36.69 80.4009C35.2161 78.5222 34.6178 76.3296 33.476 74.3706C33.2571 74.3086 29.4995 75.662 29.1821 75.8481C28.9158 76.0013 28.7845 76.0305 28.7772 76.3953C28.7662 76.8842 29.8862 79.4962 30.189 80.0982C35.9786 91.7028 50.5783 93.8078 61.9641 90.1414L62.5442 90.2509C65.3022 94.1069 69.4756 96.2192 72.6312 99.8527C75.7869 103.49 79.8034 111.782 85.0093 112.256C87.5156 112.486 89.2156 111.669 91.4519 110.772L87.0851 96.9415C101.601 102.031 118.36 94.1872 121.64 78.7739C133.993 74.6625 136.014 60.9309 132.037 49.9246ZM84.2906 106.175V105.93C84.4475 106.011 84.4475 106.091 84.2906 106.175ZM114.052 83.334C109.127 91.9947 99.0546 94.687 89.7081 92.2537C85.9688 91.2796 80.8067 87.6096 81.2846 94.6031C81.5472 98.4373 82.9955 102.085 84.1666 105.686C83.9185 105.963 83.1451 105.026 82.9627 104.829C80.5805 102.33 78.7272 98.6926 76.2757 95.9638C74.7836 94.3039 72.9924 92.5565 71.2924 91.1082C71.2267 91.0571 70.902 91.0498 70.6868 90.8747C69.5778 89.9517 68.3885 89.1345 67.4108 88.0729C78.3478 81.9952 89.5585 76.6361 102.509 77.508C106.96 77.8071 111.268 79.4743 115.752 79.4488C115.467 80.8679 114.752 82.1083 114.052 83.334Z" fill="#C2C2C2"/>
<path d="M116.967 36.6855C115.078 36.4885 113.531 36.7803 111.623 36.4411C107.847 35.7734 105.822 35.2591 101.813 35.7443C92.8276 36.8314 85.0681 41.9607 82.7114 51.0189C89.1613 50.8219 95.1004 47.918 99.9634 43.8577C100.492 43.4163 101.368 42.6538 101.663 42.0336C102.185 42.2343 101.375 43.5914 101.218 43.8978C96.9537 52.2155 85.4657 58.9171 76.1484 55.3894C76.9948 46.7616 81.7301 38.4913 89.351 34.212C96.297 30.3122 105.085 29.3382 112.845 30.9652C113.651 31.133 117.018 32.0049 117.46 32.4245C118.058 32.9936 117.102 35.861 116.967 36.6818V36.6855Z" fill="#C2C2C2"/>
<path d="M79.7962 69.7302C79.9093 70.4197 79.6539 70.1352 79.2344 70.2483C76.6771 70.9341 72.8538 70.8028 70.2308 70.427C63.708 69.4968 58.5569 64.6448 51.9684 65.1008C46.726 65.4656 42.9283 70.2629 38.0106 71.6674C37.883 71.1311 38.3207 71.1311 38.5688 70.8904C39.6705 69.8215 41.1152 68.862 42.2644 67.7895C44.8655 65.3707 47.9846 61.1389 51.7349 60.7303C57.1195 60.1466 60.2788 63.3205 64.7258 65.4765C69.3662 67.7238 74.6451 69.3472 79.7962 69.723V69.7302Z" fill="#C2C2C2"/>
<path d="M116.967 36.6855C116.598 38.8889 116.38 39.7171 115.752 41.7892C114.172 41.107 112.742 39.8046 110.893 40.0892C111.243 38.9911 111.568 37.6048 111.622 36.4447C113.53 36.784 115.077 36.4921 116.967 36.6891V36.6855Z" fill="#C2C2C2"/>
<path d="M115.752 79.4488C115.468 80.868 114.753 82.1083 114.052 83.3341C109.992 83.2867 106.059 81.8821 102.024 81.6377C91.7329 81.0102 80.5478 85.0487 71.8871 90.3823C71.5661 90.5793 71.1794 90.5938 71.2925 91.1082C71.2268 91.0572 70.9021 91.0499 70.6869 90.8748C69.5779 89.9518 68.3886 89.1346 67.4109 88.073C78.348 81.9952 89.5586 76.6361 102.509 77.508C106.96 77.8072 111.269 79.4744 115.752 79.4488Z" fill="#C2C2C2"/>
<path d="M84.2908 105.93C84.4481 106.011 84.4481 106.091 84.2908 106.176V105.93Z" fill="#C2C2C2"/>
</svg>
