<svg width="689" height="150" viewBox="0 0 689 150" fill="none" xmlns="http://www.w3.org/2000/svg">
<path d="M157.197 119.859C157.197 120.793 157.437 121.608 157.916 122.302C158.394 122.972 159.005 123.583 159.747 124.134C160.514 124.684 161.316 125.223 162.154 125.75C163.064 126.301 163.926 126.887 164.74 127.51C165.578 128.133 166.261 128.851 166.787 129.665C167.338 130.455 167.613 131.425 167.613 132.575C167.613 133.82 167.29 134.921 166.644 135.879C165.997 136.813 165.099 137.555 163.95 138.106C162.824 138.633 161.495 138.896 159.963 138.896C159.316 138.896 158.634 138.836 157.916 138.717C157.221 138.597 156.563 138.429 155.94 138.214C155.341 137.998 154.851 137.771 154.467 137.531C154.372 137.459 154.288 137.376 154.216 137.28C154.168 137.184 154.132 137.04 154.108 136.849L153.893 131.425C153.869 131.305 153.917 131.246 154.036 131.246C154.18 131.222 154.264 131.258 154.288 131.353C154.575 132.072 154.91 132.838 155.294 133.652C155.701 134.442 156.168 135.173 156.694 135.843C157.221 136.514 157.82 137.064 158.49 137.495C159.185 137.902 159.975 138.106 160.861 138.106C161.483 138.106 162.07 137.998 162.621 137.783C163.172 137.567 163.627 137.196 163.986 136.669C164.345 136.118 164.525 135.376 164.525 134.442C164.525 133.317 164.261 132.359 163.734 131.569C163.231 130.755 162.585 130.048 161.795 129.45C161.005 128.851 160.178 128.288 159.316 127.761C158.478 127.211 157.676 126.648 156.91 126.073C156.144 125.499 155.509 124.84 155.006 124.098C154.527 123.332 154.288 122.41 154.288 121.332C154.288 120.015 154.647 118.938 155.365 118.1C156.084 117.261 156.994 116.639 158.095 116.232C159.221 115.825 160.37 115.621 161.543 115.621C162.334 115.621 163.136 115.693 163.95 115.837C164.764 115.98 165.458 116.184 166.033 116.447C166.249 116.519 166.392 116.615 166.464 116.735C166.536 116.854 166.572 116.986 166.572 117.13L166.644 121.979C166.644 122.074 166.584 122.134 166.464 122.158C166.368 122.182 166.296 122.158 166.249 122.086C166.129 121.727 165.949 121.236 165.71 120.614C165.47 119.967 165.135 119.321 164.704 118.674C164.273 118.028 163.734 117.477 163.088 117.022C162.441 116.567 161.651 116.34 160.717 116.34C159.999 116.34 159.376 116.483 158.849 116.771C158.323 117.058 157.916 117.465 157.628 117.992C157.341 118.495 157.197 119.117 157.197 119.859ZM175.941 129.665L176.408 128.767H186.465L186.716 129.665H175.941ZM195.049 138.034C195.145 138.034 195.193 138.106 195.193 138.25C195.193 138.393 195.145 138.465 195.049 138.465C194.331 138.465 193.588 138.441 192.822 138.393C192.08 138.345 191.361 138.321 190.667 138.321C189.877 138.321 189.182 138.345 188.584 138.393C188.009 138.441 187.363 138.465 186.644 138.465C186.548 138.465 186.501 138.393 186.501 138.25C186.501 138.106 186.548 138.034 186.644 138.034C187.722 138.034 188.368 137.843 188.584 137.459C188.799 137.076 188.62 136.322 188.045 135.197L180.538 119.931L182.011 117.525L174.899 133.544C174.276 135.005 174.252 136.118 174.827 136.885C175.426 137.651 176.431 138.034 177.844 138.034C177.964 138.034 178.024 138.106 178.024 138.25C178.024 138.393 177.964 138.465 177.844 138.465C177.126 138.465 176.467 138.441 175.869 138.393C175.27 138.345 174.516 138.321 173.606 138.321C172.696 138.321 171.966 138.345 171.415 138.393C170.888 138.441 170.23 138.465 169.439 138.465C169.344 138.465 169.296 138.393 169.296 138.25C169.296 138.106 169.344 138.034 169.439 138.034C170.086 138.034 170.637 137.902 171.092 137.639C171.571 137.376 172.037 136.897 172.492 136.202C172.947 135.484 173.45 134.49 174.001 133.221L181.723 115.801C181.771 115.729 181.879 115.693 182.047 115.693C182.214 115.693 182.31 115.729 182.334 115.801L191.134 133.544C191.685 134.694 192.176 135.604 192.607 136.274C193.038 136.921 193.445 137.376 193.828 137.639C194.211 137.902 194.618 138.034 195.049 138.034ZM202.338 118.962V135.412C202.338 136.011 202.398 136.466 202.518 136.777C202.637 137.088 202.865 137.292 203.2 137.388C203.535 137.483 204.026 137.531 204.673 137.531H206.828C208.528 137.531 209.965 137.052 211.138 136.094C212.311 135.137 213.09 133.868 213.473 132.287C213.497 132.215 213.569 132.191 213.688 132.215C213.808 132.239 213.868 132.287 213.868 132.359C213.796 133.101 213.724 133.999 213.652 135.053C213.581 136.083 213.545 137.04 213.545 137.926C213.545 138.285 213.365 138.465 213.006 138.465H196.196C196.148 138.465 196.124 138.393 196.124 138.25C196.124 138.106 196.148 138.034 196.196 138.034C196.962 138.034 197.537 137.974 197.92 137.854C198.327 137.735 198.591 137.495 198.71 137.136C198.854 136.777 198.926 136.25 198.926 135.556V118.926C198.926 118.231 198.854 117.716 198.71 117.381C198.591 117.022 198.327 116.783 197.92 116.663C197.537 116.519 196.962 116.447 196.196 116.447C196.148 116.447 196.124 116.375 196.124 116.232C196.124 116.088 196.148 116.016 196.196 116.016C196.771 116.016 197.441 116.04 198.208 116.088C198.974 116.112 199.776 116.124 200.614 116.124C201.5 116.124 202.314 116.112 203.057 116.088C203.823 116.04 204.493 116.016 205.068 116.016C205.14 116.016 205.176 116.088 205.176 116.232C205.176 116.375 205.14 116.447 205.068 116.447C204.302 116.447 203.715 116.519 203.308 116.663C202.925 116.783 202.661 117.022 202.518 117.381C202.398 117.74 202.338 118.267 202.338 118.962ZM234.988 120.398C234.988 119.153 234.701 118.183 234.126 117.489C233.576 116.794 232.773 116.447 231.72 116.447C231.672 116.447 231.648 116.375 231.648 116.232C231.648 116.088 231.672 116.016 231.72 116.016C232.318 116.016 232.917 116.04 233.516 116.088C234.138 116.112 234.809 116.124 235.527 116.124C236.15 116.124 236.76 116.112 237.359 116.088C237.982 116.04 238.544 116.016 239.047 116.016C239.095 116.016 239.119 116.088 239.119 116.232C239.119 116.375 239.095 116.447 239.047 116.447C238.089 116.447 237.359 116.794 236.856 117.489C236.353 118.183 236.102 119.153 236.102 120.398V130.455C236.102 132.203 235.731 133.712 234.988 134.981C234.27 136.25 233.252 137.232 231.935 137.926C230.618 138.621 229.074 138.968 227.302 138.968C225.554 138.968 223.997 138.633 222.632 137.962C221.268 137.268 220.202 136.286 219.436 135.017C218.693 133.748 218.322 132.239 218.322 130.491V118.926C218.322 118.231 218.25 117.716 218.107 117.381C217.987 117.022 217.724 116.783 217.317 116.663C216.933 116.519 216.359 116.447 215.593 116.447C215.521 116.447 215.485 116.375 215.485 116.232C215.485 116.088 215.521 116.016 215.593 116.016C216.191 116.016 216.862 116.04 217.604 116.088C218.37 116.112 219.172 116.124 220.01 116.124C220.896 116.124 221.711 116.112 222.453 116.088C223.195 116.04 223.866 116.016 224.464 116.016C224.536 116.016 224.572 116.088 224.572 116.232C224.572 116.375 224.536 116.447 224.464 116.447C223.674 116.447 223.087 116.519 222.704 116.663C222.321 116.806 222.058 117.058 221.914 117.417C221.794 117.776 221.735 118.303 221.735 118.997V129.234C221.735 132.155 222.333 134.299 223.53 135.663C224.752 137.028 226.404 137.711 228.487 137.711C230.523 137.711 232.115 137.088 233.264 135.843C234.414 134.574 234.988 132.79 234.988 130.491V120.398ZM251.086 138.609C250.344 138.609 249.422 138.573 248.32 138.501C247.219 138.429 246.213 138.393 245.303 138.393C244.441 138.393 243.627 138.405 242.861 138.429C242.094 138.453 241.412 138.465 240.813 138.465C240.765 138.465 240.741 138.393 240.741 138.25C240.741 138.106 240.765 138.034 240.813 138.034C241.579 138.034 242.166 137.974 242.573 137.854C242.98 137.735 243.244 137.495 243.363 137.136C243.507 136.777 243.579 136.25 243.579 135.556V118.926C243.579 118.231 243.507 117.716 243.363 117.381C243.244 117.022 242.992 116.783 242.609 116.663C242.226 116.519 241.639 116.447 240.849 116.447C240.801 116.447 240.777 116.375 240.777 116.232C240.777 116.088 240.801 116.016 240.849 116.016C241.472 116.016 242.154 116.04 242.896 116.088C243.639 116.112 244.441 116.124 245.303 116.124C246.141 116.124 247.051 116.1 248.033 116.052C249.038 115.98 249.889 115.944 250.583 115.944C253.097 115.944 255.288 116.423 257.156 117.381C259.024 118.339 260.472 119.644 261.502 121.296C262.532 122.948 263.047 124.804 263.047 126.864C263.047 128.659 262.735 130.288 262.113 131.748C261.49 133.185 260.616 134.418 259.491 135.448C258.389 136.454 257.108 137.232 255.647 137.783C254.211 138.333 252.69 138.609 251.086 138.609ZM250.727 137.89C252.379 137.89 253.84 137.495 255.109 136.705C256.378 135.915 257.371 134.766 258.09 133.257C258.832 131.724 259.203 129.857 259.203 127.654C259.203 125.594 258.868 123.739 258.198 122.086C257.527 120.41 256.569 119.093 255.324 118.135C254.103 117.154 252.642 116.663 250.942 116.663C249.529 116.663 248.512 116.794 247.889 117.058C247.29 117.321 246.991 117.968 246.991 118.997V135.161C246.991 136.094 247.231 136.789 247.71 137.244C248.188 137.675 249.194 137.89 250.727 137.89ZM277.47 134.119L277.829 116.842L278.799 116.914L278.404 134.119C278.38 135.388 278.62 136.358 279.122 137.028C279.649 137.699 280.427 138.034 281.457 138.034C281.529 138.034 281.565 138.106 281.565 138.25C281.565 138.393 281.529 138.465 281.457 138.465C280.93 138.465 280.392 138.453 279.841 138.429C279.29 138.405 278.667 138.393 277.973 138.393C277.255 138.393 276.596 138.405 275.998 138.429C275.423 138.453 274.872 138.465 274.345 138.465C274.274 138.465 274.238 138.393 274.238 138.25C274.238 138.106 274.274 138.034 274.345 138.034C275.327 138.034 276.081 137.699 276.608 137.028C277.159 136.358 277.446 135.388 277.47 134.119ZM302.9 138.034C302.948 138.034 302.972 138.106 302.972 138.25C302.972 138.393 302.948 138.465 302.9 138.465C302.278 138.465 301.583 138.453 300.817 138.429C300.051 138.405 299.249 138.393 298.41 138.393C297.572 138.393 296.782 138.405 296.04 138.429C295.322 138.453 294.663 138.465 294.064 138.465C294.017 138.465 293.993 138.393 293.993 138.25C293.993 138.106 294.017 138.034 294.064 138.034C295.214 138.034 295.956 137.878 296.291 137.567C296.627 137.256 296.758 136.585 296.686 135.556L295.932 119.141L297.513 116.663L288.317 138.214C288.294 138.309 288.198 138.357 288.03 138.357C287.863 138.357 287.755 138.309 287.707 138.214L277.973 118.997C277.111 117.297 275.986 116.447 274.597 116.447C274.525 116.447 274.489 116.375 274.489 116.232C274.489 116.088 274.525 116.016 274.597 116.016C275.052 116.016 275.531 116.028 276.033 116.052C276.56 116.076 277.003 116.088 277.362 116.088C277.889 116.088 278.356 116.076 278.763 116.052C279.194 116.028 279.53 116.016 279.769 116.016C280.104 116.016 280.356 116.136 280.523 116.375C280.715 116.591 281.014 117.094 281.421 117.884L289.503 133.724L287.958 136.454L296.471 116.914C296.615 116.603 296.77 116.375 296.938 116.232C297.105 116.088 297.309 116.016 297.548 116.016C297.764 116.016 297.991 116.028 298.231 116.052C298.494 116.076 298.806 116.088 299.165 116.088C299.883 116.088 300.494 116.076 300.997 116.052C301.499 116.028 301.99 116.016 302.469 116.016C302.541 116.016 302.577 116.088 302.577 116.232C302.577 116.375 302.541 116.447 302.469 116.447C301.368 116.447 300.554 116.651 300.027 117.058C299.5 117.465 299.261 118.159 299.308 119.141L300.099 135.556C300.147 136.25 300.23 136.777 300.35 137.136C300.494 137.495 300.757 137.735 301.14 137.854C301.547 137.974 302.134 138.034 302.9 138.034ZM320.845 138.465H305.257C305.185 138.465 305.149 138.393 305.149 138.25C305.149 138.106 305.185 138.034 305.257 138.034C306.047 138.034 306.634 137.974 307.017 137.854C307.4 137.735 307.651 137.495 307.771 137.136C307.915 136.777 307.987 136.25 307.987 135.556V118.926C307.987 118.231 307.915 117.716 307.771 117.381C307.651 117.022 307.4 116.783 307.017 116.663C306.634 116.519 306.047 116.447 305.257 116.447C305.185 116.447 305.149 116.375 305.149 116.232C305.149 116.088 305.185 116.016 305.257 116.016H320.199C320.438 116.016 320.558 116.124 320.558 116.34L320.63 121.009C320.63 121.057 320.57 121.093 320.45 121.117C320.33 121.117 320.247 121.081 320.199 121.009C319.935 119.644 319.385 118.626 318.547 117.956C317.708 117.285 316.607 116.95 315.242 116.95H313.769C313.171 116.95 312.692 117.022 312.333 117.166C311.997 117.285 311.758 117.501 311.614 117.812C311.471 118.1 311.399 118.495 311.399 118.997V135.412C311.399 135.915 311.459 136.334 311.578 136.669C311.722 136.98 311.938 137.208 312.225 137.352C312.512 137.471 312.919 137.531 313.446 137.531H315.206C316.834 137.531 318.151 137.148 319.157 136.382C320.163 135.592 320.881 134.43 321.312 132.898C321.336 132.826 321.408 132.802 321.528 132.826C321.671 132.85 321.743 132.886 321.743 132.934C321.647 133.604 321.564 134.406 321.492 135.34C321.42 136.274 321.384 137.136 321.384 137.926C321.384 138.285 321.204 138.465 320.845 138.465ZM318.834 130.348C318.834 129.342 318.499 128.576 317.828 128.049C317.158 127.522 316.152 127.259 314.811 127.259H309.783V126.325H314.847C316.188 126.325 317.182 126.097 317.828 125.642C318.475 125.187 318.798 124.529 318.798 123.667C318.798 123.595 318.858 123.559 318.978 123.559C319.121 123.559 319.193 123.595 319.193 123.667C319.193 124.433 319.181 125.032 319.157 125.463C319.157 125.894 319.157 126.337 319.157 126.792C319.157 127.366 319.169 127.941 319.193 128.516C319.241 129.067 319.265 129.677 319.265 130.348C319.265 130.395 319.193 130.419 319.049 130.419C318.906 130.419 318.834 130.395 318.834 130.348ZM327.881 134.119V116.842L328.851 116.914V134.119C328.851 135.388 329.102 136.358 329.605 137.028C330.108 137.699 330.826 138.034 331.76 138.034C331.832 138.034 331.868 138.106 331.868 138.25C331.868 138.393 331.832 138.465 331.76 138.465C331.257 138.465 330.73 138.453 330.18 138.429C329.653 138.405 329.066 138.393 328.42 138.393C327.725 138.393 327.055 138.405 326.408 138.429C325.786 138.453 325.199 138.465 324.648 138.465C324.576 138.465 324.54 138.393 324.54 138.25C324.54 138.106 324.576 138.034 324.648 138.034C325.702 138.034 326.504 137.699 327.055 137.028C327.605 136.358 327.881 135.388 327.881 134.119ZM346.127 138.968C346.127 139.04 346.067 139.076 345.948 139.076C345.828 139.1 345.744 139.1 345.696 139.076L328.42 118.962C327.557 117.98 326.815 117.321 326.193 116.986C325.594 116.627 325.007 116.447 324.433 116.447C324.361 116.447 324.325 116.375 324.325 116.232C324.325 116.088 324.361 116.016 324.433 116.016C324.888 116.016 325.355 116.028 325.833 116.052C326.312 116.076 326.755 116.088 327.162 116.088C327.881 116.088 328.527 116.076 329.102 116.052C329.701 116.028 330.156 116.016 330.467 116.016C330.778 116.016 331.006 116.16 331.149 116.447C331.293 116.711 331.652 117.19 332.227 117.884L345.84 133.903L346.127 138.968ZM346.127 120.398V138.968L345.157 137.89V120.398C345.157 119.129 344.906 118.159 344.403 117.489C343.924 116.794 343.206 116.447 342.248 116.447C342.2 116.447 342.176 116.375 342.176 116.232C342.176 116.088 342.2 116.016 342.248 116.016C342.751 116.016 343.278 116.04 343.828 116.088C344.379 116.112 344.978 116.124 345.624 116.124C346.247 116.124 346.858 116.112 347.456 116.088C348.055 116.04 348.606 116.016 349.108 116.016C349.18 116.016 349.216 116.088 349.216 116.232C349.216 116.375 349.18 116.447 349.108 116.447C348.151 116.447 347.408 116.794 346.881 117.489C346.379 118.159 346.127 119.129 346.127 120.398ZM357.241 116.771C355.78 116.771 354.583 117.225 353.649 118.135C352.739 119.045 352.021 120.386 351.494 122.158C351.494 122.23 351.422 122.266 351.279 122.266C351.159 122.242 351.099 122.206 351.099 122.158C351.147 121.823 351.195 121.368 351.243 120.793C351.291 120.195 351.338 119.548 351.386 118.854C351.458 118.159 351.506 117.489 351.53 116.842C351.578 116.172 351.602 115.633 351.602 115.226C351.602 115.106 351.662 115.046 351.781 115.046C351.925 115.046 351.997 115.106 351.997 115.226C351.997 115.466 352.117 115.645 352.356 115.765C352.62 115.861 352.907 115.932 353.218 115.98C353.529 116.004 353.793 116.016 354.008 116.016C356.068 116.088 358.474 116.124 361.228 116.124C362.928 116.124 364.269 116.112 365.251 116.088C366.256 116.04 367.226 116.016 368.16 116.016C369.022 116.016 369.669 115.968 370.1 115.873C370.555 115.753 370.842 115.501 370.962 115.118C370.986 115.023 371.058 114.975 371.177 114.975C371.297 114.975 371.357 115.023 371.357 115.118C371.333 115.501 371.297 116.028 371.249 116.699C371.201 117.345 371.165 118.04 371.141 118.782C371.117 119.5 371.093 120.171 371.07 120.793C371.046 121.392 371.034 121.847 371.034 122.158C371.034 122.206 370.962 122.23 370.818 122.23C370.698 122.23 370.627 122.206 370.603 122.158C370.339 120.267 369.764 118.902 368.879 118.064C367.993 117.202 366.807 116.771 365.323 116.771C364.676 116.771 364.185 116.83 363.85 116.95C363.515 117.07 363.287 117.297 363.168 117.633C363.048 117.944 362.988 118.399 362.988 118.997V135.556C362.988 136.25 363.06 136.777 363.203 137.136C363.371 137.495 363.67 137.735 364.101 137.854C364.556 137.974 365.239 138.034 366.149 138.034C366.221 138.034 366.256 138.106 366.256 138.25C366.256 138.393 366.221 138.465 366.149 138.465C365.502 138.465 364.76 138.453 363.922 138.429C363.108 138.405 362.21 138.393 361.228 138.393C360.294 138.393 359.42 138.405 358.606 138.429C357.792 138.453 357.037 138.465 356.343 138.465C356.295 138.465 356.271 138.393 356.271 138.25C356.271 138.106 356.295 138.034 356.343 138.034C357.253 138.034 357.935 137.974 358.39 137.854C358.845 137.735 359.145 137.495 359.288 137.136C359.456 136.777 359.54 136.25 359.54 135.556V118.926C359.54 118.327 359.48 117.884 359.36 117.597C359.264 117.285 359.049 117.07 358.714 116.95C358.378 116.83 357.888 116.771 357.241 116.771ZM376.577 129.665L377.044 128.767H387.101L387.352 129.665H376.577ZM395.686 138.034C395.781 138.034 395.829 138.106 395.829 138.25C395.829 138.393 395.781 138.465 395.686 138.465C394.967 138.465 394.225 138.441 393.459 138.393C392.716 138.345 391.998 138.321 391.303 138.321C390.513 138.321 389.819 138.345 389.22 138.393C388.646 138.441 387.999 138.465 387.281 138.465C387.185 138.465 387.137 138.393 387.137 138.25C387.137 138.106 387.185 138.034 387.281 138.034C388.358 138.034 389.005 137.843 389.22 137.459C389.436 137.076 389.256 136.322 388.681 135.197L381.175 119.931L382.647 117.525L375.535 133.544C374.913 135.005 374.889 136.118 375.464 136.885C376.062 137.651 377.068 138.034 378.481 138.034C378.6 138.034 378.66 138.106 378.66 138.25C378.66 138.393 378.6 138.465 378.481 138.465C377.762 138.465 377.104 138.441 376.505 138.393C375.907 138.345 375.152 138.321 374.242 138.321C373.332 138.321 372.602 138.345 372.051 138.393C371.525 138.441 370.866 138.465 370.076 138.465C369.98 138.465 369.932 138.393 369.932 138.25C369.932 138.106 369.98 138.034 370.076 138.034C370.722 138.034 371.273 137.902 371.728 137.639C372.207 137.376 372.674 136.897 373.129 136.202C373.584 135.484 374.087 134.49 374.637 133.221L382.36 115.801C382.408 115.729 382.516 115.693 382.683 115.693C382.851 115.693 382.947 115.729 382.97 115.801L391.77 133.544C392.321 134.694 392.812 135.604 393.243 136.274C393.674 136.921 394.081 137.376 394.464 137.639C394.847 137.902 395.254 138.034 395.686 138.034ZM402.975 118.962V135.412C402.975 136.011 403.035 136.466 403.154 136.777C403.274 137.088 403.501 137.292 403.837 137.388C404.172 137.483 404.663 137.531 405.309 137.531H407.464C409.165 137.531 410.601 137.052 411.775 136.094C412.948 135.137 413.726 133.868 414.109 132.287C414.133 132.215 414.205 132.191 414.325 132.215C414.444 132.239 414.504 132.287 414.504 132.359C414.433 133.101 414.361 133.999 414.289 135.053C414.217 136.083 414.181 137.04 414.181 137.926C414.181 138.285 414.002 138.465 413.642 138.465H396.833C396.785 138.465 396.761 138.393 396.761 138.25C396.761 138.106 396.785 138.034 396.833 138.034C397.599 138.034 398.174 137.974 398.557 137.854C398.964 137.735 399.227 137.495 399.347 137.136C399.491 136.777 399.562 136.25 399.562 135.556V118.926C399.562 118.231 399.491 117.716 399.347 117.381C399.227 117.022 398.964 116.783 398.557 116.663C398.174 116.519 397.599 116.447 396.833 116.447C396.785 116.447 396.761 116.375 396.761 116.232C396.761 116.088 396.785 116.016 396.833 116.016C397.407 116.016 398.078 116.04 398.844 116.088C399.61 116.112 400.412 116.124 401.251 116.124C402.137 116.124 402.951 116.112 403.693 116.088C404.459 116.04 405.13 116.016 405.704 116.016C405.776 116.016 405.812 116.088 405.812 116.232C405.812 116.375 405.776 116.447 405.704 116.447C404.938 116.447 404.352 116.519 403.944 116.663C403.561 116.783 403.298 117.022 403.154 117.381C403.035 117.74 402.975 118.267 402.975 118.962ZM440.631 138.465H425.042C424.971 138.465 424.935 138.393 424.935 138.25C424.935 138.106 424.971 138.034 425.042 138.034C425.833 138.034 426.419 137.974 426.802 137.854C427.186 137.735 427.437 137.495 427.557 137.136C427.7 136.777 427.772 136.25 427.772 135.556V118.926C427.772 118.231 427.7 117.716 427.557 117.381C427.437 117.022 427.186 116.783 426.802 116.663C426.419 116.519 425.833 116.447 425.042 116.447C424.971 116.447 424.935 116.375 424.935 116.232C424.935 116.088 424.971 116.016 425.042 116.016H439.984C440.224 116.016 440.344 116.124 440.344 116.34L440.415 121.009C440.415 121.057 440.356 121.093 440.236 121.117C440.116 121.117 440.032 121.081 439.984 121.009C439.721 119.644 439.17 118.626 438.332 117.956C437.494 117.285 436.393 116.95 435.028 116.95H433.555C432.956 116.95 432.477 117.022 432.118 117.166C431.783 117.285 431.544 117.501 431.4 117.812C431.256 118.1 431.184 118.495 431.184 118.997V135.412C431.184 135.915 431.244 136.334 431.364 136.669C431.508 136.98 431.723 137.208 432.011 137.352C432.298 137.471 432.705 137.531 433.232 137.531H434.992C436.62 137.531 437.937 137.148 438.943 136.382C439.948 135.592 440.667 134.43 441.098 132.898C441.122 132.826 441.194 132.802 441.313 132.826C441.457 132.85 441.529 132.886 441.529 132.934C441.433 133.604 441.349 134.406 441.277 135.34C441.206 136.274 441.17 137.136 441.17 137.926C441.17 138.285 440.99 138.465 440.631 138.465ZM438.619 130.348C438.619 129.342 438.284 128.576 437.614 128.049C436.943 127.522 435.938 127.259 434.597 127.259H429.568V126.325H434.633C435.973 126.325 436.967 126.097 437.614 125.642C438.26 125.187 438.584 124.529 438.584 123.667C438.584 123.595 438.643 123.559 438.763 123.559C438.907 123.559 438.979 123.595 438.979 123.667C438.979 124.433 438.967 125.032 438.943 125.463C438.943 125.894 438.943 126.337 438.943 126.792C438.943 127.366 438.955 127.941 438.979 128.516C439.027 129.067 439.05 129.677 439.05 130.348C439.05 130.395 438.979 130.419 438.835 130.419C438.691 130.419 438.619 130.395 438.619 130.348ZM459.389 135.556C459.389 136.25 459.449 136.777 459.569 137.136C459.712 137.495 459.976 137.735 460.359 137.854C460.742 137.974 461.329 138.034 462.119 138.034C462.191 138.034 462.227 138.106 462.227 138.25C462.227 138.393 462.191 138.465 462.119 138.465C461.52 138.465 460.85 138.453 460.107 138.429C459.365 138.405 458.539 138.393 457.629 138.393C456.791 138.393 455.989 138.405 455.223 138.429C454.456 138.453 453.774 138.465 453.175 138.465C453.103 138.465 453.068 138.393 453.068 138.25C453.068 138.106 453.103 138.034 453.175 138.034C453.942 138.034 454.528 137.974 454.935 137.854C455.342 137.735 455.606 137.495 455.725 137.136C455.869 136.777 455.941 136.25 455.941 135.556V118.926C455.941 118.231 455.869 117.716 455.725 117.381C455.606 117.022 455.342 116.783 454.935 116.663C454.528 116.519 453.942 116.447 453.175 116.447C453.103 116.447 453.068 116.375 453.068 116.232C453.068 116.088 453.103 116.016 453.175 116.016C453.774 116.016 454.456 116.04 455.223 116.088C455.989 116.112 456.791 116.124 457.629 116.124C458.539 116.124 459.365 116.112 460.107 116.088C460.874 116.04 461.544 116.016 462.119 116.016C462.191 116.016 462.227 116.088 462.227 116.232C462.227 116.375 462.191 116.447 462.119 116.447C461.353 116.447 460.766 116.519 460.359 116.663C459.976 116.806 459.712 117.058 459.569 117.417C459.449 117.776 459.389 118.303 459.389 118.997V135.556ZM468.256 134.119V116.842L469.226 116.914V134.119C469.226 135.388 469.477 136.358 469.98 137.028C470.483 137.699 471.201 138.034 472.135 138.034C472.207 138.034 472.243 138.106 472.243 138.25C472.243 138.393 472.207 138.465 472.135 138.465C471.632 138.465 471.106 138.453 470.555 138.429C470.028 138.405 469.441 138.393 468.795 138.393C468.1 138.393 467.43 138.405 466.783 138.429C466.161 138.453 465.574 138.465 465.023 138.465C464.952 138.465 464.916 138.393 464.916 138.25C464.916 138.106 464.952 138.034 465.023 138.034C466.077 138.034 466.879 137.699 467.43 137.028C467.981 136.358 468.256 135.388 468.256 134.119ZM486.503 138.968C486.503 139.04 486.443 139.076 486.323 139.076C486.203 139.1 486.119 139.1 486.072 139.076L468.795 118.962C467.933 117.98 467.191 117.321 466.568 116.986C465.969 116.627 465.383 116.447 464.808 116.447C464.736 116.447 464.7 116.375 464.7 116.232C464.7 116.088 464.736 116.016 464.808 116.016C465.263 116.016 465.73 116.028 466.209 116.052C466.688 116.076 467.131 116.088 467.538 116.088C468.256 116.088 468.903 116.076 469.477 116.052C470.076 116.028 470.531 116.016 470.842 116.016C471.154 116.016 471.381 116.16 471.525 116.447C471.668 116.711 472.028 117.19 472.602 117.884L486.215 133.903L486.503 138.968ZM486.503 120.398V138.968L485.533 137.89V120.398C485.533 119.129 485.281 118.159 484.778 117.489C484.3 116.794 483.581 116.447 482.623 116.447C482.575 116.447 482.552 116.375 482.552 116.232C482.552 116.088 482.575 116.016 482.623 116.016C483.126 116.016 483.653 116.04 484.204 116.088C484.755 116.112 485.353 116.124 486 116.124C486.622 116.124 487.233 116.112 487.832 116.088C488.43 116.04 488.981 116.016 489.484 116.016C489.556 116.016 489.591 116.088 489.591 116.232C489.591 116.375 489.556 116.447 489.484 116.447C488.526 116.447 487.784 116.794 487.257 117.489C486.754 118.159 486.503 119.129 486.503 120.398ZM497.616 116.771C496.156 116.771 494.958 117.225 494.025 118.135C493.115 119.045 492.396 120.386 491.87 122.158C491.87 122.23 491.798 122.266 491.654 122.266C491.534 122.242 491.474 122.206 491.474 122.158C491.522 121.823 491.57 121.368 491.618 120.793C491.666 120.195 491.714 119.548 491.762 118.854C491.834 118.159 491.881 117.489 491.905 116.842C491.953 116.172 491.977 115.633 491.977 115.226C491.977 115.106 492.037 115.046 492.157 115.046C492.301 115.046 492.372 115.106 492.372 115.226C492.372 115.466 492.492 115.645 492.732 115.765C492.995 115.861 493.282 115.932 493.594 115.98C493.905 116.004 494.168 116.016 494.384 116.016C496.443 116.088 498.85 116.124 501.603 116.124C503.303 116.124 504.644 116.112 505.626 116.088C506.632 116.04 507.602 116.016 508.536 116.016C509.398 116.016 510.044 115.968 510.475 115.873C510.93 115.753 511.217 115.501 511.337 115.118C511.361 115.023 511.433 114.975 511.553 114.975C511.672 114.975 511.732 115.023 511.732 115.118C511.708 115.501 511.672 116.028 511.624 116.699C511.577 117.345 511.541 118.04 511.517 118.782C511.493 119.5 511.469 120.171 511.445 120.793C511.421 121.392 511.409 121.847 511.409 122.158C511.409 122.206 511.337 122.23 511.193 122.23C511.074 122.23 511.002 122.206 510.978 122.158C510.715 120.267 510.14 118.902 509.254 118.064C508.368 117.202 507.183 116.771 505.698 116.771C505.051 116.771 504.561 116.83 504.225 116.95C503.89 117.07 503.663 117.297 503.543 117.633C503.423 117.944 503.363 118.399 503.363 118.997V135.556C503.363 136.25 503.435 136.777 503.579 137.136C503.746 137.495 504.046 137.735 504.477 137.854C504.932 137.974 505.614 138.034 506.524 138.034C506.596 138.034 506.632 138.106 506.632 138.25C506.632 138.393 506.596 138.465 506.524 138.465C505.878 138.465 505.135 138.453 504.297 138.429C503.483 138.405 502.585 138.393 501.603 138.393C500.669 138.393 499.795 138.405 498.981 138.429C498.167 138.453 497.413 138.465 496.718 138.465C496.671 138.465 496.647 138.393 496.647 138.25C496.647 138.106 496.671 138.034 496.718 138.034C497.628 138.034 498.311 137.974 498.766 137.854C499.221 137.735 499.52 137.495 499.664 137.136C499.831 136.777 499.915 136.25 499.915 135.556V118.926C499.915 118.327 499.855 117.884 499.736 117.597C499.64 117.285 499.424 117.07 499.089 116.95C498.754 116.83 498.263 116.771 497.616 116.771ZM530.146 138.465H514.557C514.485 138.465 514.449 138.393 514.449 138.25C514.449 138.106 514.485 138.034 514.557 138.034C515.347 138.034 515.934 137.974 516.317 137.854C516.7 137.735 516.952 137.495 517.071 137.136C517.215 136.777 517.287 136.25 517.287 135.556V118.926C517.287 118.231 517.215 117.716 517.071 117.381C516.952 117.022 516.7 116.783 516.317 116.663C515.934 116.519 515.347 116.447 514.557 116.447C514.485 116.447 514.449 116.375 514.449 116.232C514.449 116.088 514.485 116.016 514.557 116.016H529.499C529.739 116.016 529.858 116.124 529.858 116.34L529.93 121.009C529.93 121.057 529.87 121.093 529.751 121.117C529.631 121.117 529.547 121.081 529.499 121.009C529.236 119.644 528.685 118.626 527.847 117.956C527.009 117.285 525.907 116.95 524.542 116.95H523.07C522.471 116.95 521.992 117.022 521.633 117.166C521.298 117.285 521.058 117.501 520.915 117.812C520.771 118.1 520.699 118.495 520.699 118.997V135.412C520.699 135.915 520.759 136.334 520.879 136.669C521.022 136.98 521.238 137.208 521.525 137.352C521.813 137.471 522.22 137.531 522.746 137.531H524.506C526.135 137.531 527.452 137.148 528.457 136.382C529.463 135.592 530.182 134.43 530.613 132.898C530.636 132.826 530.708 132.802 530.828 132.826C530.972 132.85 531.044 132.886 531.044 132.934C530.948 133.604 530.864 134.406 530.792 135.34C530.72 136.274 530.684 137.136 530.684 137.926C530.684 138.285 530.505 138.465 530.146 138.465ZM528.134 130.348C528.134 129.342 527.799 128.576 527.128 128.049C526.458 127.522 525.452 127.259 524.111 127.259H519.083V126.325H524.147C525.488 126.325 526.482 126.097 527.128 125.642C527.775 125.187 528.098 124.529 528.098 123.667C528.098 123.595 528.158 123.559 528.278 123.559C528.422 123.559 528.493 123.595 528.493 123.667C528.493 124.433 528.481 125.032 528.457 125.463C528.457 125.894 528.457 126.337 528.457 126.792C528.457 127.366 528.469 127.941 528.493 128.516C528.541 129.067 528.565 129.677 528.565 130.348C528.565 130.395 528.493 130.419 528.35 130.419C528.206 130.419 528.134 130.395 528.134 130.348ZM547.669 138.896C545.586 138.896 543.718 138.597 542.066 137.998C540.438 137.376 539.049 136.537 537.899 135.484C536.774 134.406 535.912 133.173 535.313 131.784C534.739 130.395 534.451 128.899 534.451 127.295C534.451 125.547 534.799 123.966 535.493 122.553C536.187 121.117 537.157 119.883 538.402 118.854C539.647 117.824 541.108 117.034 542.784 116.483C544.46 115.908 546.292 115.621 548.28 115.621C549.453 115.621 550.602 115.717 551.728 115.908C552.877 116.1 553.811 116.375 554.53 116.735C554.769 116.83 554.901 116.914 554.925 116.986C554.973 117.034 555.008 117.225 555.032 117.561L555.499 122.266C555.499 122.338 555.439 122.386 555.32 122.41C555.2 122.434 555.116 122.41 555.068 122.338C554.877 121.739 554.565 121.093 554.134 120.398C553.727 119.704 553.201 119.057 552.554 118.459C551.908 117.836 551.129 117.321 550.219 116.914C549.333 116.507 548.304 116.304 547.13 116.304C545.478 116.304 543.982 116.723 542.641 117.561C541.3 118.399 540.234 119.584 539.444 121.117C538.654 122.649 538.259 124.481 538.259 126.612C538.259 128.264 538.498 129.797 538.977 131.21C539.456 132.598 540.138 133.832 541.024 134.909C541.934 135.987 543.024 136.825 544.293 137.423C545.562 138.022 546.987 138.321 548.567 138.321C549.549 138.321 550.339 138.202 550.938 137.962C551.536 137.723 551.967 137.292 552.231 136.669C552.494 136.023 552.626 135.113 552.626 133.939C552.626 132.79 552.554 131.952 552.41 131.425C552.291 130.874 551.967 130.515 551.441 130.348C550.914 130.18 550.064 130.096 548.89 130.096C548.747 130.096 548.675 130 548.675 129.809C548.675 129.617 548.735 129.521 548.854 129.521C550.483 129.617 551.943 129.677 553.236 129.701C554.553 129.701 555.93 129.665 557.367 129.593C557.463 129.593 557.511 129.677 557.511 129.845C557.535 130.012 557.487 130.096 557.367 130.096C556.912 130.072 556.577 130.156 556.361 130.348C556.146 130.515 556.002 130.898 555.93 131.497C555.882 132.096 555.859 133.029 555.859 134.299C555.859 135.089 555.882 135.675 555.93 136.059C555.978 136.442 556.014 136.729 556.038 136.921C556.086 137.088 556.11 137.268 556.11 137.459C556.11 137.603 556.086 137.699 556.038 137.747C555.99 137.795 555.882 137.843 555.715 137.89C554.446 138.178 553.105 138.417 551.692 138.609C550.279 138.8 548.938 138.896 547.669 138.896ZM578.042 138.465C577.683 138.465 577.084 138.01 576.246 137.1C575.408 136.19 574.39 134.885 573.193 133.185C572.02 131.461 570.703 129.414 569.242 127.043L572.115 126.181C574.055 129.078 575.707 131.401 577.072 133.149C578.461 134.873 579.682 136.118 580.736 136.885C581.813 137.651 582.843 138.034 583.825 138.034C583.873 138.034 583.897 138.106 583.897 138.25C583.897 138.393 583.873 138.465 583.825 138.465C582.316 138.465 581.083 138.465 580.125 138.465C579.191 138.465 578.497 138.465 578.042 138.465ZM569.888 115.908C571.972 115.908 573.576 116.328 574.701 117.166C575.851 117.98 576.426 119.105 576.426 120.542C576.426 121.907 576.03 123.128 575.24 124.206C574.474 125.283 573.468 126.121 572.223 126.72C571.002 127.318 569.685 127.618 568.272 127.618C567.985 127.618 567.674 127.618 567.338 127.618C567.003 127.594 566.704 127.57 566.44 127.546V135.556C566.44 136.25 566.5 136.777 566.62 137.136C566.74 137.495 566.991 137.735 567.374 137.854C567.781 137.974 568.368 138.034 569.134 138.034C569.206 138.034 569.242 138.106 569.242 138.25C569.242 138.393 569.206 138.465 569.134 138.465C568.536 138.465 567.865 138.453 567.123 138.429C566.38 138.405 565.566 138.393 564.68 138.393C563.842 138.393 563.04 138.405 562.274 138.429C561.508 138.453 560.825 138.465 560.226 138.465C560.155 138.465 560.119 138.393 560.119 138.25C560.119 138.106 560.155 138.034 560.226 138.034C561.017 138.034 561.603 137.974 561.986 137.854C562.37 137.735 562.633 137.495 562.777 137.136C562.92 136.777 562.992 136.25 562.992 135.556V118.926C562.992 118.231 562.92 117.716 562.777 117.381C562.657 117.022 562.406 116.783 562.022 116.663C561.639 116.519 561.053 116.447 560.262 116.447C560.215 116.447 560.191 116.375 560.191 116.232C560.191 116.088 560.215 116.016 560.262 116.016C560.861 116.016 561.532 116.04 562.274 116.088C563.04 116.112 563.842 116.124 564.68 116.124C565.447 116.124 566.309 116.088 567.266 116.016C568.224 115.944 569.098 115.908 569.888 115.908ZM572.87 121.799C572.87 120.41 572.702 119.345 572.367 118.602C572.056 117.836 571.613 117.309 571.038 117.022C570.463 116.735 569.793 116.591 569.026 116.591C568.093 116.591 567.422 116.771 567.015 117.13C566.632 117.465 566.44 118.088 566.44 118.997V126.576C566.776 126.624 567.135 126.66 567.518 126.684C567.901 126.708 568.236 126.72 568.524 126.72C570.128 126.72 571.253 126.325 571.9 125.535C572.546 124.72 572.87 123.475 572.87 121.799ZM589.911 129.665L590.378 128.767H600.435L600.687 129.665H589.911ZM609.02 138.034C609.115 138.034 609.163 138.106 609.163 138.25C609.163 138.393 609.115 138.465 609.02 138.465C608.301 138.465 607.559 138.441 606.793 138.393C606.05 138.345 605.332 138.321 604.638 138.321C603.847 138.321 603.153 138.345 602.554 138.393C601.98 138.441 601.333 138.465 600.615 138.465C600.519 138.465 600.471 138.393 600.471 138.25C600.471 138.106 600.519 138.034 600.615 138.034C601.692 138.034 602.339 137.843 602.554 137.459C602.77 137.076 602.59 136.322 602.016 135.197L594.509 119.931L595.981 117.525L588.87 133.544C588.247 135.005 588.223 136.118 588.798 136.885C589.396 137.651 590.402 138.034 591.815 138.034C591.935 138.034 591.994 138.106 591.994 138.25C591.994 138.393 591.935 138.465 591.815 138.465C591.096 138.465 590.438 138.441 589.839 138.393C589.241 138.345 588.486 138.321 587.576 138.321C586.667 138.321 585.936 138.345 585.385 138.393C584.859 138.441 584.2 138.465 583.41 138.465C583.314 138.465 583.266 138.393 583.266 138.25C583.266 138.106 583.314 138.034 583.41 138.034C584.057 138.034 584.607 137.902 585.062 137.639C585.541 137.376 586.008 136.897 586.463 136.202C586.918 135.484 587.421 134.49 587.972 133.221L595.694 115.801C595.742 115.729 595.85 115.693 596.017 115.693C596.185 115.693 596.281 115.729 596.305 115.801L605.105 133.544C605.655 134.694 606.146 135.604 606.577 136.274C607.008 136.921 607.415 137.376 607.798 137.639C608.182 137.902 608.589 138.034 609.02 138.034ZM614.035 116.771C612.574 116.771 611.377 117.225 610.443 118.135C609.533 119.045 608.815 120.386 608.288 122.158C608.288 122.23 608.216 122.266 608.072 122.266C607.953 122.242 607.893 122.206 607.893 122.158C607.941 121.823 607.988 121.368 608.036 120.793C608.084 120.195 608.132 119.548 608.18 118.854C608.252 118.159 608.3 117.489 608.324 116.842C608.372 116.172 608.396 115.633 608.396 115.226C608.396 115.106 608.455 115.046 608.575 115.046C608.719 115.046 608.791 115.106 608.791 115.226C608.791 115.466 608.91 115.645 609.15 115.765C609.413 115.861 609.701 115.932 610.012 115.98C610.323 116.004 610.587 116.016 610.802 116.016C612.861 116.088 615.268 116.124 618.022 116.124C619.722 116.124 621.063 116.112 622.044 116.088C623.05 116.04 624.02 116.016 624.954 116.016C625.816 116.016 626.462 115.968 626.893 115.873C627.348 115.753 627.636 115.501 627.755 115.118C627.779 115.023 627.851 114.975 627.971 114.975C628.091 114.975 628.15 115.023 628.15 115.118C628.127 115.501 628.091 116.028 628.043 116.699C627.995 117.345 627.959 118.04 627.935 118.782C627.911 119.5 627.887 120.171 627.863 120.793C627.839 121.392 627.827 121.847 627.827 122.158C627.827 122.206 627.755 122.23 627.612 122.23C627.492 122.23 627.42 122.206 627.396 122.158C627.133 120.267 626.558 118.902 625.672 118.064C624.786 117.202 623.601 116.771 622.116 116.771C621.47 116.771 620.979 116.83 620.644 116.95C620.308 117.07 620.081 117.297 619.961 117.633C619.841 117.944 619.782 118.399 619.782 118.997V135.556C619.782 136.25 619.853 136.777 619.997 137.136C620.165 137.495 620.464 137.735 620.895 137.854C621.35 137.974 622.032 138.034 622.942 138.034C623.014 138.034 623.05 138.106 623.05 138.25C623.05 138.393 623.014 138.465 622.942 138.465C622.296 138.465 621.554 138.453 620.715 138.429C619.901 138.405 619.003 138.393 618.022 138.393C617.088 138.393 616.214 138.405 615.4 138.429C614.585 138.453 613.831 138.465 613.137 138.465C613.089 138.465 613.065 138.393 613.065 138.25C613.065 138.106 613.089 138.034 613.137 138.034C614.047 138.034 614.729 137.974 615.184 137.854C615.639 137.735 615.938 137.495 616.082 137.136C616.25 136.777 616.333 136.25 616.333 135.556V118.926C616.333 118.327 616.274 117.884 616.154 117.597C616.058 117.285 615.843 117.07 615.507 116.95C615.172 116.83 614.681 116.771 614.035 116.771ZM637.261 135.556C637.261 136.25 637.321 136.777 637.441 137.136C637.584 137.495 637.848 137.735 638.231 137.854C638.614 137.974 639.201 138.034 639.991 138.034C640.063 138.034 640.099 138.106 640.099 138.25C640.099 138.393 640.063 138.465 639.991 138.465C639.392 138.465 638.722 138.453 637.979 138.429C637.237 138.405 636.411 138.393 635.501 138.393C634.663 138.393 633.861 138.405 633.095 138.429C632.328 138.453 631.646 138.465 631.047 138.465C630.975 138.465 630.939 138.393 630.939 138.25C630.939 138.106 630.975 138.034 631.047 138.034C631.813 138.034 632.4 137.974 632.807 137.854C633.214 137.735 633.478 137.495 633.597 137.136C633.741 136.777 633.813 136.25 633.813 135.556V118.926C633.813 118.231 633.741 117.716 633.597 117.381C633.478 117.022 633.214 116.783 632.807 116.663C632.4 116.519 631.813 116.447 631.047 116.447C630.975 116.447 630.939 116.375 630.939 116.232C630.939 116.088 630.975 116.016 631.047 116.016C631.646 116.016 632.328 116.04 633.095 116.088C633.861 116.112 634.663 116.124 635.501 116.124C636.411 116.124 637.237 116.112 637.979 116.088C638.746 116.04 639.416 116.016 639.991 116.016C640.063 116.016 640.099 116.088 640.099 116.232C640.099 116.375 640.063 116.447 639.991 116.447C639.225 116.447 638.638 116.519 638.231 116.663C637.848 116.806 637.584 117.058 637.441 117.417C637.321 117.776 637.261 118.303 637.261 118.997V135.556ZM665.56 116.016C665.632 116.016 665.668 116.088 665.668 116.232C665.668 116.375 665.632 116.447 665.56 116.447C664.722 116.447 663.943 116.771 663.225 117.417C662.507 118.064 661.92 118.997 661.465 120.219L654.461 138.429C654.437 138.525 654.305 138.573 654.066 138.573C653.85 138.573 653.719 138.525 653.671 138.429L644.584 118.997C644.177 118.135 643.757 117.501 643.326 117.094C642.895 116.663 642.369 116.447 641.746 116.447C641.674 116.447 641.638 116.375 641.638 116.232C641.638 116.088 641.674 116.016 641.746 116.016C642.057 116.016 642.309 116.028 642.5 116.052C642.716 116.076 642.967 116.1 643.255 116.124C643.566 116.124 643.973 116.124 644.476 116.124C645.625 116.124 646.559 116.124 647.277 116.124C648.02 116.1 648.63 116.076 649.109 116.052C649.612 116.028 650.055 116.016 650.438 116.016C650.51 116.016 650.546 116.088 650.546 116.232C650.546 116.375 650.51 116.447 650.438 116.447C649.433 116.447 648.75 116.699 648.391 117.202C648.056 117.704 648.116 118.423 648.571 119.357L655.503 134.37L654.03 136.849L660.495 120.075C660.902 118.997 660.926 118.123 660.567 117.453C660.208 116.783 659.418 116.447 658.197 116.447C658.125 116.447 658.089 116.375 658.089 116.232C658.089 116.088 658.125 116.016 658.197 116.016C658.843 116.016 659.466 116.04 660.064 116.088C660.663 116.112 661.441 116.124 662.399 116.124C663.069 116.124 663.608 116.112 664.015 116.088C664.446 116.04 664.961 116.016 665.56 116.016ZM668.447 129.665L668.914 128.767H678.971L679.222 129.665H668.447ZM687.555 138.034C687.651 138.034 687.699 138.106 687.699 138.25C687.699 138.393 687.651 138.465 687.555 138.465C686.837 138.465 686.095 138.441 685.329 138.393C684.586 138.345 683.868 138.321 683.173 138.321C682.383 138.321 681.689 138.345 681.09 138.393C680.515 138.441 679.869 138.465 679.151 138.465C679.055 138.465 679.007 138.393 679.007 138.25C679.007 138.106 679.055 138.034 679.151 138.034C680.228 138.034 680.875 137.843 681.09 137.459C681.306 137.076 681.126 136.322 680.551 135.197L673.045 119.931L674.517 117.525L667.405 133.544C666.783 135.005 666.759 136.118 667.334 136.885C667.932 137.651 668.938 138.034 670.351 138.034C670.47 138.034 670.53 138.106 670.53 138.25C670.53 138.393 670.47 138.465 670.351 138.465C669.632 138.465 668.974 138.441 668.375 138.393C667.777 138.345 667.022 138.321 666.112 138.321C665.202 138.321 664.472 138.345 663.921 138.393C663.395 138.441 662.736 138.465 661.946 138.465C661.85 138.465 661.802 138.393 661.802 138.25C661.802 138.106 661.85 138.034 661.946 138.034C662.592 138.034 663.143 137.902 663.598 137.639C664.077 137.376 664.544 136.897 664.999 136.202C665.454 135.484 665.957 134.49 666.507 133.221L674.23 115.801C674.278 115.729 674.385 115.693 674.553 115.693C674.721 115.693 674.816 115.729 674.84 115.801L683.64 133.544C684.191 134.694 684.682 135.604 685.113 136.274C685.544 136.921 685.951 137.376 686.334 137.639C686.717 137.902 687.124 138.034 687.555 138.034Z" fill="white"/>
<path d="M254.665 103.321C248.205 103.321 242.442 102.404 237.377 100.569C232.312 98.7333 228.017 96.2007 224.493 92.9706C220.97 89.7406 218.29 85.9967 216.455 81.739C214.62 77.4812 213.702 72.9298 213.702 68.0848C213.702 62.7259 214.767 57.8442 216.896 53.4396C219.024 49.035 222.034 45.2545 225.925 42.0979C229.816 38.8678 234.367 36.3719 239.579 34.6101C244.791 32.8483 250.48 31.9673 256.647 31.9673C260.097 31.9673 263.584 32.2243 267.108 32.7381C270.631 33.252 273.494 33.9861 275.697 34.9404C276.504 35.2341 276.945 35.491 277.018 35.7112C277.165 35.858 277.275 36.4453 277.348 37.4731L278.78 52.7789C278.78 52.9992 278.596 53.146 278.229 53.2194C277.862 53.2928 277.605 53.1827 277.458 52.8891C276.945 51.4943 276.027 49.7691 274.706 47.7137C273.458 45.5848 271.806 43.5293 269.75 41.5473C267.695 39.4918 265.236 37.7667 262.373 36.3719C259.51 34.9771 256.206 34.2797 252.462 34.2797C247.764 34.2797 243.47 35.5644 239.579 38.1337C235.762 40.6297 232.715 44.2267 230.44 48.9249C228.164 53.6231 227.026 59.239 227.026 65.7724C227.026 71.0579 227.76 75.8662 229.228 80.1974C230.77 84.5285 232.899 88.3091 235.615 91.5391C238.405 94.6958 241.635 97.155 245.305 98.9168C248.975 100.605 253.013 101.449 257.418 101.449C260.207 101.449 262.446 101.119 264.135 100.458C265.823 99.7977 267.034 98.513 267.768 96.6044C268.576 94.6958 268.98 91.8695 268.98 88.1256C268.98 84.602 268.759 82.0326 268.319 80.4176C267.952 78.7292 266.998 77.628 265.456 77.1142C263.914 76.6003 261.418 76.3434 257.968 76.3434C257.528 76.3434 257.307 76.0497 257.307 75.4625C257.307 74.8752 257.491 74.5816 257.858 74.5816C262.997 74.8752 267.622 75.0587 271.732 75.1321C275.843 75.1321 280.175 75.022 284.726 74.8018C285.02 74.8018 285.166 75.0587 285.166 75.5726C285.24 76.0864 285.093 76.3434 284.726 76.3434C283.478 76.27 282.56 76.5269 281.973 77.1142C281.386 77.628 281.019 78.8026 280.872 80.6378C280.725 82.4731 280.652 85.336 280.652 89.2267C280.652 91.6493 280.725 93.4478 280.872 94.6223C281.019 95.7969 281.129 96.6778 281.202 97.2651C281.349 97.779 281.422 98.3295 281.422 98.9168C281.422 99.3573 281.349 99.6509 281.202 99.7977C281.055 99.9445 280.725 100.091 280.211 100.238C276.174 101.119 271.916 101.853 267.438 102.44C263.033 103.028 258.776 103.321 254.665 103.321ZM307.679 76.7838L309.33 73.7006H341.043L341.814 76.7838H307.679ZM367.801 100.679C368.168 100.679 368.352 100.899 368.352 101.339C368.352 101.78 368.168 102 367.801 102C365.599 102 363.286 101.927 360.864 101.78C358.515 101.633 356.239 101.56 354.037 101.56C351.541 101.56 349.375 101.633 347.54 101.78C345.705 101.927 343.649 102 341.374 102C341.08 102 340.933 101.78 340.933 101.339C340.933 100.899 341.08 100.679 341.374 100.679C344.383 100.679 346.109 100.091 346.549 98.9168C347.063 97.6688 346.402 95.2463 344.567 91.6493L322.214 47.4934L327.609 38.0236L305.697 86.3638C303.715 90.7683 303.678 94.2553 305.587 96.8246C307.495 99.394 310.505 100.679 314.616 100.679C314.983 100.679 315.166 100.899 315.166 101.339C315.166 101.78 314.983 102 314.616 102C312.414 102 310.395 101.927 308.56 101.78C306.724 101.633 304.412 101.56 301.622 101.56C298.759 101.56 296.447 101.633 294.685 101.78C292.997 101.927 290.905 102 288.409 102C288.115 102 287.968 101.78 287.968 101.339C287.968 100.899 288.115 100.679 288.409 100.679C290.391 100.679 292.079 100.275 293.474 99.4674C294.942 98.5865 296.374 97.0449 297.768 94.8426C299.237 92.5669 300.888 89.3736 302.724 85.2626L326.618 32.7381C326.692 32.5179 327.022 32.4078 327.609 32.4078C328.197 32.3344 328.527 32.4445 328.6 32.7381L356.129 86.9143C357.891 90.3646 359.396 93.1175 360.644 95.1729C361.965 97.155 363.176 98.5865 364.277 99.4674C365.452 100.275 366.627 100.679 367.801 100.679ZM391.126 42.208V92.6403C391.126 94.4021 391.272 95.7602 391.566 96.7145C391.86 97.5954 392.447 98.1827 393.328 98.4763C394.282 98.77 395.64 98.9168 397.402 98.9168H401.146C406.872 98.9168 411.827 97.3752 416.011 94.292C420.196 91.2088 422.985 87.0979 424.38 81.9592C424.453 81.739 424.674 81.6656 425.041 81.739C425.408 81.8124 425.591 81.9592 425.591 82.1794C425.371 84.602 425.151 87.5383 424.931 90.9886C424.71 94.3654 424.6 97.4853 424.6 100.348C424.6 101.449 424.05 102 422.949 102H370.975C370.828 102 370.754 101.78 370.754 101.339C370.754 100.899 370.828 100.679 370.975 100.679C373.25 100.679 374.939 100.495 376.04 100.128C377.141 99.761 377.875 99.0269 378.242 97.9258C378.683 96.8246 378.903 95.2096 378.903 93.0807V42.0979C378.903 39.969 378.683 38.3907 378.242 37.3629C377.875 36.2618 377.141 35.5277 376.04 35.1607C374.939 34.7202 373.25 34.5 370.975 34.5C370.828 34.5 370.754 34.2797 370.754 33.8393C370.754 33.3988 370.828 33.1786 370.975 33.1786C372.736 33.1786 374.829 33.252 377.251 33.3988C379.747 33.4722 382.316 33.5089 384.959 33.5089C387.749 33.5089 390.318 33.4722 392.667 33.3988C395.016 33.252 397.108 33.1786 398.944 33.1786C399.164 33.1786 399.274 33.3988 399.274 33.8393C399.274 34.2797 399.164 34.5 398.944 34.5C396.741 34.5 395.053 34.7202 393.878 35.1607C392.777 35.5277 392.043 36.2618 391.676 37.3629C391.309 38.4641 391.126 40.0791 391.126 42.208ZM480.86 102H432.19C431.969 102 431.859 101.78 431.859 101.339C431.859 100.899 431.969 100.679 432.19 100.679C434.465 100.679 436.154 100.495 437.255 100.128C438.356 99.761 439.09 99.0269 439.457 97.9258C439.824 96.8246 440.008 95.2096 440.008 93.0807V42.0979C440.008 39.969 439.824 38.3907 439.457 37.3629C439.09 36.2618 438.356 35.5277 437.255 35.1607C436.154 34.7202 434.465 34.5 432.19 34.5C431.969 34.5 431.859 34.2797 431.859 33.8393C431.859 33.3988 431.969 33.1786 432.19 33.1786H478.878C479.612 33.1786 479.979 33.5089 479.979 34.1696L480.199 48.8148C480.199 48.9616 480.016 49.0718 479.649 49.1452C479.282 49.2186 479.025 49.1452 478.878 48.9249C477.703 44.5938 475.721 41.4372 472.932 39.4551C470.142 37.3996 466.472 36.3719 461.92 36.3719H458.617C457.149 36.3719 455.937 36.5921 454.983 37.0326C454.029 37.3996 453.331 38.0236 452.891 38.9045C452.451 39.7855 452.23 40.8866 452.23 42.208V92.6403C452.23 94.0351 452.414 95.2096 452.781 96.1639C453.148 97.1183 453.699 97.8157 454.433 98.2561C455.167 98.6966 456.121 98.9168 457.296 98.9168H460.929C466.655 98.9168 471.243 97.7422 474.694 95.3931C478.144 93.044 480.676 89.4103 482.291 84.4918C482.365 84.2716 482.585 84.2349 482.952 84.3817C483.393 84.4551 483.613 84.5652 483.613 84.7121C483.319 86.8409 483.062 89.3736 482.842 92.3099C482.622 95.1729 482.512 97.8524 482.512 100.348C482.512 101.449 481.961 102 480.86 102ZM474.694 77.4445C474.694 74.4347 473.556 72.0856 471.28 70.3972C469.004 68.6354 465.664 67.7545 461.26 67.7545H446.394V64.6713H461.37C465.701 64.6713 468.968 63.9372 471.17 62.469C473.446 60.9274 474.584 58.8719 474.584 56.3026C474.584 56.0824 474.767 55.9722 475.134 55.9722C475.575 55.9722 475.795 56.0824 475.795 56.3026C475.795 58.7251 475.758 60.6338 475.685 62.0285C475.685 63.3499 475.685 64.7447 475.685 66.2129C475.685 68.0481 475.721 69.8466 475.795 71.6085C475.942 73.3703 476.015 75.3156 476.015 77.4445C476.015 77.5913 475.795 77.6648 475.354 77.6648C474.914 77.6648 474.694 77.5913 474.694 77.4445ZM502.416 88.0155V35.7112L505.719 35.9315V88.0155C505.719 91.9062 506.527 94.9894 508.142 97.2651C509.757 99.5408 511.996 100.679 514.859 100.679C515.005 100.679 515.079 100.899 515.079 101.339C515.079 101.78 515.005 102 514.859 102C513.244 102 511.555 101.963 509.793 101.89C508.105 101.816 506.233 101.78 504.178 101.78C501.975 101.78 499.81 101.816 497.681 101.89C495.625 101.963 493.717 102 491.955 102C491.735 102 491.625 101.78 491.625 101.339C491.625 100.899 491.735 100.679 491.955 100.679C495.185 100.679 497.718 99.5408 499.553 97.2651C501.461 94.9894 502.416 91.9062 502.416 88.0155ZM558.574 103.652C558.574 103.872 558.39 103.982 558.023 103.982C557.73 104.055 557.51 104.055 557.363 103.982L503.076 42.208C500.434 39.1982 498.195 37.1794 496.359 36.1517C494.524 35.0505 492.689 34.5 490.854 34.5C490.707 34.5 490.634 34.2797 490.634 33.8393C490.634 33.3988 490.707 33.1786 490.854 33.1786C492.322 33.1786 493.827 33.2153 495.368 33.2887C496.91 33.3621 498.342 33.3988 499.663 33.3988C502.306 33.3988 504.691 33.3621 506.82 33.2887C508.949 33.2153 510.601 33.1786 511.775 33.1786C512.73 33.1786 513.427 33.6191 513.868 34.5C514.381 35.3075 515.519 36.7757 517.281 38.9045L557.693 85.4829L558.574 103.652ZM558.574 47.2732V103.652L555.381 100.348V47.2732C555.381 43.3825 554.573 40.2993 552.958 38.0236C551.343 35.6745 549.104 34.5 546.241 34.5C546.094 34.5 546.021 34.2797 546.021 33.8393C546.021 33.3988 546.094 33.1786 546.241 33.1786C547.856 33.1786 549.508 33.252 551.196 33.3988C552.958 33.4722 554.867 33.5089 556.922 33.5089C558.904 33.5089 560.85 33.4722 562.758 33.3988C564.667 33.252 566.429 33.1786 568.044 33.1786C568.191 33.1786 568.264 33.3988 568.264 33.8393C568.264 34.2797 568.191 34.5 568.044 34.5C565.107 34.5 562.795 35.6745 561.107 38.0236C559.418 40.2993 558.574 43.3825 558.574 47.2732ZM622.589 102H573.919C573.698 102 573.588 101.78 573.588 101.339C573.588 100.899 573.698 100.679 573.919 100.679C576.194 100.679 577.883 100.495 578.984 100.128C580.085 99.761 580.819 99.0269 581.186 97.9258C581.553 96.8246 581.737 95.2096 581.737 93.0807V42.0979C581.737 39.969 581.553 38.3907 581.186 37.3629C580.819 36.2618 580.085 35.5277 578.984 35.1607C577.883 34.7202 576.194 34.5 573.919 34.5C573.698 34.5 573.588 34.2797 573.588 33.8393C573.588 33.3988 573.698 33.1786 573.919 33.1786H620.607C621.341 33.1786 621.708 33.5089 621.708 34.1696L621.928 48.8148C621.928 48.9616 621.745 49.0718 621.378 49.1452C621.011 49.2186 620.754 49.1452 620.607 48.9249C619.432 44.5938 617.45 41.4372 614.661 39.4551C611.871 37.3996 608.201 36.3719 603.649 36.3719H600.346C598.878 36.3719 597.667 36.5921 596.712 37.0326C595.758 37.3996 595.061 38.0236 594.62 38.9045C594.18 39.7855 593.959 40.8866 593.959 42.208V92.6403C593.959 94.0351 594.143 95.2096 594.51 96.1639C594.877 97.1183 595.428 97.8157 596.162 98.2561C596.896 98.6966 597.85 98.9168 599.025 98.9168H602.658C608.384 98.9168 612.972 97.7422 616.423 95.3931C619.873 93.044 622.406 89.4103 624.021 84.4918C624.094 84.2716 624.314 84.2349 624.681 84.3817C625.122 84.4551 625.342 84.5652 625.342 84.7121C625.048 86.8409 624.791 89.3736 624.571 92.3099C624.351 95.1729 624.241 97.8524 624.241 100.348C624.241 101.449 623.69 102 622.589 102ZM616.423 77.4445C616.423 74.4347 615.285 72.0856 613.009 70.3972C610.733 68.6354 607.393 67.7545 602.989 67.7545H588.123V64.6713H603.099C607.43 64.6713 610.697 63.9372 612.899 62.469C615.175 60.9274 616.313 58.8719 616.313 56.3026C616.313 56.0824 616.496 55.9722 616.863 55.9722C617.304 55.9722 617.524 56.0824 617.524 56.3026C617.524 58.7251 617.487 60.6338 617.414 62.0285C617.414 63.3499 617.414 64.7447 617.414 66.2129C617.414 68.0481 617.45 69.8466 617.524 71.6085C617.671 73.3703 617.744 75.3156 617.744 77.4445C617.744 77.5913 617.524 77.6648 617.083 77.6648C616.643 77.6648 616.423 77.5913 616.423 77.4445Z" fill="#FEFEFE"/>
<path d="M60.3581 33C60.525 33 62.8922 33.1842 63.8391 33.2285C77.8282 33.846 94.7262 40.3475 104.223 50.8299C105.626 52.3785 107.182 54.2205 108.208 56.1956C108.794 57.3246 107.836 58.6311 106.59 58.3889L103.695 57.8192C103.334 57.7476 103.013 57.5464 102.792 57.2564C87.202 37.0592 54.7345 33.2934 32.3833 43.4107C18.1421 49.8577 1.49965 66.7905 5.46783 83.846C7.77039 93.7383 18.8881 99.3086 27.9246 94.1476C34.1238 90.6034 38.31 83.0308 45.4697 81.2741C55.1126 78.9067 60.3751 85.3196 68.6589 88.0349C83.5676 92.9264 97.9995 86.1008 103.187 71.5353C103.449 70.8019 104.226 70.3721 104.975 70.5768C105.677 70.7712 106.328 71.1465 106.982 71.508C107.636 71.8696 107.915 72.6235 107.68 73.3159C101.423 91.6063 82.3073 99.3018 64.3058 91.7121C54.7447 87.6801 50.1021 81.3662 40.2515 90.1259C33.2553 96.3443 28.4015 102.478 17.7096 100.891C-1.64764 98.026 -3.66408 76.1813 4.59585 61.6977C14.4124 44.4852 33.5584 34.7158 52.9531 33.2285C53.7433 33.1671 54.2304 33.0955 55.0274 33.0546L55.552 33.0239C55.5962 33.0205 55.9266 33 55.9709 33H60.3615H60.3581Z" fill="#13668A"/>
<path d="M123.28 79.6811C121.468 74.6634 117.946 69.3284 113.637 66.1629C113.089 66.0776 113.347 66.4119 113.303 66.7393C113.078 68.3426 112.7 69.8742 112.424 71.4603C118.593 77.8357 123.447 90.6581 117.244 98.4081C111.651 105.394 102.655 100.868 95.4957 100.462C81.1013 99.6429 73.1513 105.206 60.9743 110.661C52.7723 114.338 40.5987 116.241 34.2564 108.178C32.8803 106.421 32.3217 104.371 31.2556 102.539C31.0512 102.481 27.5429 103.746 27.2466 103.92C26.9979 104.064 26.8753 104.091 26.8685 104.432C26.8583 104.889 27.904 107.332 28.1867 107.894C33.5922 118.745 47.2237 120.713 57.8543 117.285L58.3959 117.388C60.9709 120.993 64.8676 122.968 67.8139 126.366C70.7602 129.766 74.5104 137.52 79.371 137.963C81.711 138.178 83.2983 137.414 85.3862 136.575L81.3091 123.643C94.8622 128.402 110.51 121.068 113.572 106.656C125.105 102.812 126.992 89.9724 123.28 79.6811ZM78.7 132.277V132.048C78.8464 132.124 78.8464 132.199 78.7 132.277ZM106.487 110.92C101.889 119.018 92.4847 121.535 83.7581 119.26C80.2668 118.349 75.4471 114.918 75.8933 121.457C76.1385 125.042 77.4908 128.453 78.5842 131.82C78.3525 132.079 77.6304 131.203 77.4601 131.018C75.2359 128.682 73.5056 125.281 71.2166 122.729C69.8235 121.177 68.1511 119.543 66.5638 118.189C66.5025 118.141 66.1994 118.135 65.9984 117.971C64.9629 117.108 63.8525 116.344 62.9397 115.351C73.1513 109.668 83.6185 104.657 95.7103 105.473C99.8658 105.752 103.888 107.311 108.075 107.287C107.809 108.614 107.141 109.774 106.487 110.92Z" fill="#51BABC"/>
<path d="M109.209 67.3021C107.445 67.1179 106.001 67.3908 104.219 67.0735C100.694 66.4493 98.8036 65.9683 95.0602 66.422C86.6708 67.4385 79.426 72.2345 77.2256 80.7043C83.2477 80.5201 88.7929 77.8049 93.3333 74.0083C93.8272 73.5956 94.6447 72.8827 94.9206 72.3028C95.4076 72.4904 94.6515 73.7593 94.505 74.0458C90.5232 81.8232 79.7972 88.0894 71.0979 84.7908C71.8881 76.7236 76.3093 68.9906 83.4248 64.9893C89.9101 61.3429 98.1155 60.4321 105.36 61.9535C106.113 62.1104 109.257 62.9256 109.669 63.3179C110.228 63.85 109.335 66.5312 109.209 67.2987V67.3021Z" fill="#4EBABC"/>
<path d="M74.504 98.2C74.6095 98.8447 74.3711 98.5786 73.9794 98.6843C71.5917 99.3256 68.022 99.2028 65.573 98.8515C59.4828 97.9817 54.6733 93.4449 48.5218 93.8713C43.6272 94.2124 40.0813 98.698 35.4898 100.011C35.3706 99.5098 35.7794 99.5098 36.011 99.2847C37.0396 98.2852 38.3885 97.3881 39.4614 96.3853C41.89 94.1237 44.8023 90.1668 48.3038 89.7848C53.3313 89.239 56.281 92.2066 60.4331 94.2226C64.7658 96.3239 69.6945 97.8418 74.504 98.1931V98.2Z" fill="#126388"/>
<path d="M109.209 67.302C108.865 69.3623 108.661 70.1366 108.075 72.0742C106.6 71.4363 105.265 70.2185 103.538 70.4846C103.865 69.4578 104.168 68.1616 104.219 67.0769C106.001 67.3941 107.445 67.1212 109.209 67.3054V67.302Z" fill="#4EBABC"/>
<path d="M108.075 107.287C107.809 108.614 107.141 109.774 106.487 110.92C102.696 110.876 99.0245 109.562 95.2573 109.334C85.6485 108.747 75.2053 112.523 67.1191 117.51C66.8193 117.694 66.4583 117.708 66.5638 118.189C66.5025 118.141 66.1994 118.134 65.9984 117.971C64.963 117.108 63.8525 116.344 62.9397 115.351C73.1514 109.668 83.6185 104.657 95.7103 105.472C99.8658 105.752 103.889 107.311 108.075 107.287Z" fill="#126388"/>
<path d="M78.7004 132.048C78.8471 132.123 78.8471 132.199 78.7004 132.277V132.048Z" fill="#EFEDDE"/>
</svg>
