<svg width="698" height="155" viewBox="0 0 698 155" fill="none" xmlns="http://www.w3.org/2000/svg">
<path d="M166.236 125.734C166.236 126.668 166.475 127.482 166.954 128.177C167.433 128.847 168.044 129.458 168.786 130.009C169.552 130.559 170.354 131.098 171.192 131.625C172.102 132.176 172.964 132.762 173.779 133.385C174.617 134.008 175.299 134.726 175.826 135.54C176.377 136.33 176.652 137.3 176.652 138.449C176.652 139.695 176.329 140.796 175.682 141.754C175.036 142.688 174.138 143.43 172.988 143.981C171.863 144.508 170.534 144.771 169.001 144.771C168.355 144.771 167.673 144.711 166.954 144.591C166.26 144.472 165.601 144.304 164.979 144.089C164.38 143.873 163.889 143.646 163.506 143.406C163.41 143.334 163.326 143.25 163.255 143.155C163.207 143.059 163.171 142.915 163.147 142.724L162.931 137.3C162.907 137.18 162.955 137.12 163.075 137.12C163.219 137.096 163.302 137.132 163.326 137.228C163.614 137.947 163.949 138.713 164.332 139.527C164.739 140.317 165.206 141.047 165.733 141.718C166.26 142.388 166.858 142.939 167.529 143.37C168.223 143.777 169.013 143.981 169.899 143.981C170.522 143.981 171.109 143.873 171.659 143.658C172.21 143.442 172.665 143.071 173.024 142.544C173.383 141.993 173.563 141.251 173.563 140.317C173.563 139.192 173.3 138.234 172.773 137.444C172.27 136.63 171.624 135.923 170.833 135.325C170.043 134.726 169.217 134.163 168.355 133.636C167.517 133.086 166.715 132.523 165.948 131.948C165.182 131.374 164.548 130.715 164.045 129.973C163.566 129.206 163.326 128.285 163.326 127.207C163.326 125.89 163.686 124.812 164.404 123.974C165.122 123.136 166.032 122.514 167.134 122.107C168.259 121.7 169.409 121.496 170.582 121.496C171.372 121.496 172.174 121.568 172.988 121.712C173.803 121.855 174.497 122.059 175.072 122.322C175.287 122.394 175.431 122.49 175.503 122.609C175.575 122.729 175.61 122.861 175.61 123.005L175.682 127.854C175.682 127.949 175.622 128.009 175.503 128.033C175.407 128.057 175.335 128.033 175.287 127.961C175.167 127.602 174.988 127.111 174.748 126.489C174.509 125.842 174.174 125.196 173.743 124.549C173.312 123.903 172.773 123.352 172.126 122.897C171.48 122.442 170.69 122.214 169.756 122.214C169.037 122.214 168.415 122.358 167.888 122.645C167.361 122.933 166.954 123.34 166.667 123.867C166.379 124.369 166.236 124.992 166.236 125.734ZM184.979 135.54L185.446 134.642H195.503L195.755 135.54H184.979ZM204.088 143.909C204.183 143.909 204.231 143.981 204.231 144.124C204.231 144.268 204.183 144.34 204.088 144.34C203.369 144.34 202.627 144.316 201.861 144.268C201.118 144.22 200.4 144.196 199.706 144.196C198.915 144.196 198.221 144.22 197.622 144.268C197.048 144.316 196.401 144.34 195.683 144.34C195.587 144.34 195.539 144.268 195.539 144.124C195.539 143.981 195.587 143.909 195.683 143.909C196.76 143.909 197.407 143.717 197.622 143.334C197.838 142.951 197.658 142.197 197.084 141.071L189.577 125.806L191.049 123.4L183.938 139.419C183.315 140.88 183.291 141.993 183.866 142.76C184.464 143.526 185.47 143.909 186.883 143.909C187.003 143.909 187.062 143.981 187.062 144.124C187.062 144.268 187.003 144.34 186.883 144.34C186.164 144.34 185.506 144.316 184.907 144.268C184.309 144.22 183.554 144.196 182.644 144.196C181.735 144.196 181.004 144.22 180.453 144.268C179.927 144.316 179.268 144.34 178.478 144.34C178.382 144.34 178.334 144.268 178.334 144.124C178.334 143.981 178.382 143.909 178.478 143.909C179.125 143.909 179.675 143.777 180.13 143.514C180.609 143.25 181.076 142.772 181.531 142.077C181.986 141.359 182.489 140.365 183.04 139.096L190.762 121.676C190.81 121.604 190.918 121.568 191.085 121.568C191.253 121.568 191.349 121.604 191.373 121.676L200.173 139.419C200.723 140.569 201.214 141.478 201.645 142.149C202.076 142.795 202.483 143.25 202.866 143.514C203.25 143.777 203.657 143.909 204.088 143.909ZM211.377 124.836V141.287C211.377 141.886 211.437 142.341 211.556 142.652C211.676 142.963 211.904 143.167 212.239 143.262C212.574 143.358 213.065 143.406 213.711 143.406H215.867C217.567 143.406 219.003 142.927 220.177 141.969C221.35 141.012 222.128 139.742 222.511 138.162C222.535 138.09 222.607 138.066 222.727 138.09C222.847 138.114 222.906 138.162 222.906 138.234C222.835 138.976 222.763 139.874 222.691 140.928C222.619 141.957 222.583 142.915 222.583 143.801C222.583 144.16 222.404 144.34 222.044 144.34H205.235C205.187 144.34 205.163 144.268 205.163 144.124C205.163 143.981 205.187 143.909 205.235 143.909C206.001 143.909 206.576 143.849 206.959 143.729C207.366 143.61 207.629 143.37 207.749 143.011C207.893 142.652 207.965 142.125 207.965 141.431V124.8C207.965 124.106 207.893 123.591 207.749 123.256C207.629 122.897 207.366 122.657 206.959 122.538C206.576 122.394 206.001 122.322 205.235 122.322C205.187 122.322 205.163 122.25 205.163 122.107C205.163 121.963 205.187 121.891 205.235 121.891C205.809 121.891 206.48 121.915 207.246 121.963C208.012 121.987 208.815 121.999 209.653 121.999C210.539 121.999 211.353 121.987 212.095 121.963C212.861 121.915 213.532 121.891 214.107 121.891C214.178 121.891 214.214 121.963 214.214 122.107C214.214 122.25 214.178 122.322 214.107 122.322C213.34 122.322 212.754 122.394 212.347 122.538C211.963 122.657 211.7 122.897 211.556 123.256C211.437 123.615 211.377 124.142 211.377 124.836ZM244.027 126.273C244.027 125.028 243.74 124.058 243.165 123.364C242.614 122.669 241.812 122.322 240.758 122.322C240.71 122.322 240.687 122.25 240.687 122.107C240.687 121.963 240.71 121.891 240.758 121.891C241.357 121.891 241.956 121.915 242.554 121.963C243.177 121.987 243.847 121.999 244.566 121.999C245.188 121.999 245.799 121.987 246.397 121.963C247.02 121.915 247.583 121.891 248.086 121.891C248.134 121.891 248.157 121.963 248.157 122.107C248.157 122.25 248.134 122.322 248.086 122.322C247.128 122.322 246.397 122.669 245.895 123.364C245.392 124.058 245.14 125.028 245.14 126.273V136.33C245.14 138.078 244.769 139.587 244.027 140.856C243.309 142.125 242.291 143.107 240.974 143.801C239.657 144.496 238.112 144.843 236.34 144.843C234.592 144.843 233.036 144.508 231.671 143.837C230.306 143.143 229.241 142.161 228.474 140.892C227.732 139.623 227.361 138.114 227.361 136.366V124.8C227.361 124.106 227.289 123.591 227.145 123.256C227.026 122.897 226.762 122.657 226.355 122.538C225.972 122.394 225.397 122.322 224.631 122.322C224.559 122.322 224.523 122.25 224.523 122.107C224.523 121.963 224.559 121.891 224.631 121.891C225.23 121.891 225.9 121.915 226.643 121.963C227.409 121.987 228.211 121.999 229.049 121.999C229.935 121.999 230.749 121.987 231.491 121.963C232.234 121.915 232.904 121.891 233.503 121.891C233.575 121.891 233.611 121.963 233.611 122.107C233.611 122.25 233.575 122.322 233.503 122.322C232.713 122.322 232.126 122.394 231.743 122.538C231.36 122.681 231.096 122.933 230.953 123.292C230.833 123.651 230.773 124.178 230.773 124.872V135.109C230.773 138.03 231.372 140.173 232.569 141.538C233.79 142.903 235.442 143.586 237.526 143.586C239.561 143.586 241.153 142.963 242.303 141.718C243.452 140.449 244.027 138.665 244.027 136.366V126.273ZM260.124 144.484C259.382 144.484 258.46 144.448 257.359 144.376C256.257 144.304 255.252 144.268 254.342 144.268C253.48 144.268 252.665 144.28 251.899 144.304C251.133 144.328 250.45 144.34 249.852 144.34C249.804 144.34 249.78 144.268 249.78 144.124C249.78 143.981 249.804 143.909 249.852 143.909C250.618 143.909 251.205 143.849 251.612 143.729C252.019 143.61 252.282 143.37 252.402 143.011C252.546 142.652 252.618 142.125 252.618 141.431V124.8C252.618 124.106 252.546 123.591 252.402 123.256C252.282 122.897 252.031 122.657 251.648 122.538C251.265 122.394 250.678 122.322 249.888 122.322C249.84 122.322 249.816 122.25 249.816 122.107C249.816 121.963 249.84 121.891 249.888 121.891C250.51 121.891 251.193 121.915 251.935 121.963C252.677 121.987 253.48 121.999 254.342 121.999C255.18 121.999 256.09 121.975 257.071 121.927C258.077 121.855 258.927 121.819 259.622 121.819C262.136 121.819 264.327 122.298 266.195 123.256C268.062 124.214 269.511 125.519 270.541 127.171C271.57 128.823 272.085 130.679 272.085 132.738C272.085 134.534 271.774 136.163 271.151 137.623C270.529 139.06 269.655 140.293 268.529 141.323C267.428 142.329 266.147 143.107 264.686 143.658C263.249 144.208 261.729 144.484 260.124 144.484ZM259.765 143.765C261.417 143.765 262.878 143.37 264.147 142.58C265.416 141.79 266.41 140.64 267.128 139.132C267.871 137.599 268.242 135.732 268.242 133.529C268.242 131.469 267.907 129.614 267.236 127.961C266.566 126.285 265.608 124.968 264.363 124.01C263.142 123.029 261.681 122.538 259.981 122.538C258.568 122.538 257.55 122.669 256.928 122.933C256.329 123.196 256.03 123.843 256.03 124.872V141.035C256.03 141.969 256.269 142.664 256.748 143.119C257.227 143.55 258.233 143.765 259.765 143.765ZM286.509 139.994L286.868 122.717L287.838 122.789L287.443 139.994C287.419 141.263 287.658 142.233 288.161 142.903C288.688 143.574 289.466 143.909 290.496 143.909C290.568 143.909 290.603 143.981 290.603 144.124C290.603 144.268 290.568 144.34 290.496 144.34C289.969 144.34 289.43 144.328 288.879 144.304C288.329 144.28 287.706 144.268 287.012 144.268C286.293 144.268 285.635 144.28 285.036 144.304C284.461 144.328 283.911 144.34 283.384 144.34C283.312 144.34 283.276 144.268 283.276 144.124C283.276 143.981 283.312 143.909 283.384 143.909C284.366 143.909 285.12 143.574 285.647 142.903C286.198 142.233 286.485 141.263 286.509 139.994ZM311.939 143.909C311.987 143.909 312.011 143.981 312.011 144.124C312.011 144.268 311.987 144.34 311.939 144.34C311.316 144.34 310.622 144.328 309.856 144.304C309.089 144.28 308.287 144.268 307.449 144.268C306.611 144.268 305.821 144.28 305.078 144.304C304.36 144.328 303.702 144.34 303.103 144.34C303.055 144.34 303.031 144.268 303.031 144.124C303.031 143.981 303.055 143.909 303.103 143.909C304.252 143.909 304.995 143.753 305.33 143.442C305.665 143.131 305.797 142.46 305.725 141.431L304.971 125.016L306.551 122.538L297.356 144.089C297.332 144.184 297.236 144.232 297.069 144.232C296.901 144.232 296.793 144.184 296.745 144.089L287.012 124.872C286.15 123.172 285.024 122.322 283.635 122.322C283.564 122.322 283.528 122.25 283.528 122.107C283.528 121.963 283.564 121.891 283.635 121.891C284.09 121.891 284.569 121.903 285.072 121.927C285.599 121.951 286.042 121.963 286.401 121.963C286.928 121.963 287.395 121.951 287.802 121.927C288.233 121.903 288.568 121.891 288.808 121.891C289.143 121.891 289.394 122.011 289.562 122.25C289.753 122.466 290.053 122.969 290.46 123.759L298.541 139.599L296.997 142.329L305.509 122.789C305.653 122.478 305.809 122.25 305.976 122.107C306.144 121.963 306.348 121.891 306.587 121.891C306.803 121.891 307.03 121.903 307.269 121.927C307.533 121.951 307.844 121.963 308.203 121.963C308.922 121.963 309.532 121.951 310.035 121.927C310.538 121.903 311.029 121.891 311.508 121.891C311.58 121.891 311.616 121.963 311.616 122.107C311.616 122.25 311.58 122.322 311.508 122.322C310.406 122.322 309.592 122.526 309.065 122.933C308.539 123.34 308.299 124.034 308.347 125.016L309.137 141.431C309.185 142.125 309.269 142.652 309.389 143.011C309.532 143.37 309.796 143.61 310.179 143.729C310.586 143.849 311.173 143.909 311.939 143.909ZM329.884 144.34H314.295C314.224 144.34 314.188 144.268 314.188 144.124C314.188 143.981 314.224 143.909 314.295 143.909C315.086 143.909 315.672 143.849 316.055 143.729C316.439 143.61 316.69 143.37 316.81 143.011C316.953 142.652 317.025 142.125 317.025 141.431V124.8C317.025 124.106 316.953 123.591 316.81 123.256C316.69 122.897 316.439 122.657 316.055 122.538C315.672 122.394 315.086 122.322 314.295 122.322C314.224 122.322 314.188 122.25 314.188 122.107C314.188 121.963 314.224 121.891 314.295 121.891H329.237C329.477 121.891 329.597 121.999 329.597 122.214L329.668 126.884C329.668 126.932 329.608 126.968 329.489 126.992C329.369 126.992 329.285 126.956 329.237 126.884C328.974 125.519 328.423 124.501 327.585 123.831C326.747 123.16 325.646 122.825 324.281 122.825H322.808C322.209 122.825 321.73 122.897 321.371 123.041C321.036 123.16 320.797 123.376 320.653 123.687C320.509 123.974 320.437 124.369 320.437 124.872V141.287C320.437 141.79 320.497 142.209 320.617 142.544C320.761 142.855 320.976 143.083 321.264 143.227C321.551 143.346 321.958 143.406 322.485 143.406H324.245C325.873 143.406 327.19 143.023 328.196 142.257C329.201 141.467 329.92 140.305 330.351 138.773C330.375 138.701 330.447 138.677 330.566 138.701C330.71 138.725 330.782 138.761 330.782 138.809C330.686 139.479 330.602 140.281 330.53 141.215C330.459 142.149 330.423 143.011 330.423 143.801C330.423 144.16 330.243 144.34 329.884 144.34ZM327.872 136.222C327.872 135.217 327.537 134.451 326.867 133.924C326.196 133.397 325.191 133.134 323.85 133.134H318.821V132.2H323.886C325.226 132.2 326.22 131.972 326.867 131.517C327.513 131.062 327.837 130.404 327.837 129.542C327.837 129.47 327.896 129.434 328.016 129.434C328.16 129.434 328.232 129.47 328.232 129.542C328.232 130.308 328.22 130.907 328.196 131.338C328.196 131.769 328.196 132.212 328.196 132.667C328.196 133.241 328.208 133.816 328.232 134.391C328.28 134.941 328.303 135.552 328.303 136.222C328.303 136.27 328.232 136.294 328.088 136.294C327.944 136.294 327.872 136.27 327.872 136.222ZM336.919 139.994V122.717L337.889 122.789V139.994C337.889 141.263 338.141 142.233 338.643 142.903C339.146 143.574 339.865 143.909 340.798 143.909C340.87 143.909 340.906 143.981 340.906 144.124C340.906 144.268 340.87 144.34 340.798 144.34C340.296 144.34 339.769 144.328 339.218 144.304C338.691 144.28 338.105 144.268 337.458 144.268C336.764 144.268 336.093 144.28 335.447 144.304C334.824 144.328 334.237 144.34 333.687 144.34C333.615 144.34 333.579 144.268 333.579 144.124C333.579 143.981 333.615 143.909 333.687 143.909C334.74 143.909 335.542 143.574 336.093 142.903C336.644 142.233 336.919 141.263 336.919 139.994ZM355.166 144.843C355.166 144.915 355.106 144.951 354.986 144.951C354.866 144.975 354.783 144.975 354.735 144.951L337.458 124.836C336.596 123.855 335.854 123.196 335.231 122.861C334.633 122.502 334.046 122.322 333.471 122.322C333.399 122.322 333.363 122.25 333.363 122.107C333.363 121.963 333.399 121.891 333.471 121.891C333.926 121.891 334.393 121.903 334.872 121.927C335.351 121.951 335.794 121.963 336.201 121.963C336.919 121.963 337.566 121.951 338.141 121.927C338.739 121.903 339.194 121.891 339.505 121.891C339.817 121.891 340.044 122.035 340.188 122.322C340.332 122.586 340.691 123.064 341.265 123.759L354.878 139.778L355.166 144.843ZM355.166 126.273V144.843L354.196 143.765V126.273C354.196 125.004 353.945 124.034 353.442 123.364C352.963 122.669 352.244 122.322 351.287 122.322C351.239 122.322 351.215 122.25 351.215 122.107C351.215 121.963 351.239 121.891 351.287 121.891C351.789 121.891 352.316 121.915 352.867 121.963C353.418 121.987 354.016 121.999 354.663 121.999C355.285 121.999 355.896 121.987 356.495 121.963C357.093 121.915 357.644 121.891 358.147 121.891C358.219 121.891 358.255 121.963 358.255 122.107C358.255 122.25 358.219 122.322 358.147 122.322C357.189 122.322 356.447 122.669 355.92 123.364C355.417 124.034 355.166 125.004 355.166 126.273ZM366.28 122.645C364.819 122.645 363.622 123.1 362.688 124.01C361.778 124.92 361.06 126.261 360.533 128.033C360.533 128.105 360.461 128.141 360.317 128.141C360.197 128.117 360.138 128.081 360.138 128.033C360.185 127.698 360.233 127.243 360.281 126.668C360.329 126.07 360.377 125.423 360.425 124.729C360.497 124.034 360.545 123.364 360.569 122.717C360.617 122.047 360.64 121.508 360.64 121.101C360.64 120.981 360.7 120.921 360.82 120.921C360.964 120.921 361.036 120.981 361.036 121.101C361.036 121.34 361.155 121.52 361.395 121.64C361.658 121.735 361.945 121.807 362.257 121.855C362.568 121.879 362.831 121.891 363.047 121.891C365.106 121.963 367.513 121.999 370.267 121.999C371.967 121.999 373.308 121.987 374.289 121.963C375.295 121.915 376.265 121.891 377.199 121.891C378.061 121.891 378.707 121.843 379.138 121.747C379.593 121.628 379.881 121.376 380 120.993C380.024 120.897 380.096 120.85 380.216 120.85C380.336 120.85 380.395 120.897 380.395 120.993C380.371 121.376 380.336 121.903 380.288 122.574C380.24 123.22 380.204 123.915 380.18 124.657C380.156 125.375 380.132 126.046 380.108 126.668C380.084 127.267 380.072 127.722 380.072 128.033C380.072 128.081 380 128.105 379.857 128.105C379.737 128.105 379.665 128.081 379.641 128.033C379.378 126.141 378.803 124.777 377.917 123.938C377.031 123.076 375.846 122.645 374.361 122.645C373.715 122.645 373.224 122.705 372.889 122.825C372.553 122.945 372.326 123.172 372.206 123.507C372.086 123.819 372.027 124.274 372.027 124.872V141.431C372.027 142.125 372.098 142.652 372.242 143.011C372.41 143.37 372.709 143.61 373.14 143.729C373.595 143.849 374.277 143.909 375.187 143.909C375.259 143.909 375.295 143.981 375.295 144.124C375.295 144.268 375.259 144.34 375.187 144.34C374.541 144.34 373.798 144.328 372.96 144.304C372.146 144.28 371.248 144.268 370.267 144.268C369.333 144.268 368.459 144.28 367.644 144.304C366.83 144.328 366.076 144.34 365.382 144.34C365.334 144.34 365.31 144.268 365.31 144.124C365.31 143.981 365.334 143.909 365.382 143.909C366.292 143.909 366.974 143.849 367.429 143.729C367.884 143.61 368.183 143.37 368.327 143.011C368.495 142.652 368.578 142.125 368.578 141.431V124.8C368.578 124.202 368.519 123.759 368.399 123.472C368.303 123.16 368.087 122.945 367.752 122.825C367.417 122.705 366.926 122.645 366.28 122.645ZM385.616 135.54L386.083 134.642H396.14L396.391 135.54H385.616ZM404.724 143.909C404.82 143.909 404.868 143.981 404.868 144.124C404.868 144.268 404.82 144.34 404.724 144.34C404.006 144.34 403.263 144.316 402.497 144.268C401.755 144.22 401.036 144.196 400.342 144.196C399.552 144.196 398.857 144.22 398.259 144.268C397.684 144.316 397.038 144.34 396.319 144.34C396.223 144.34 396.176 144.268 396.176 144.124C396.176 143.981 396.223 143.909 396.319 143.909C397.397 143.909 398.043 143.717 398.259 143.334C398.474 142.951 398.295 142.197 397.72 141.071L390.213 125.806L391.686 123.4L384.574 139.419C383.951 140.88 383.927 141.993 384.502 142.76C385.101 143.526 386.107 143.909 387.519 143.909C387.639 143.909 387.699 143.981 387.699 144.124C387.699 144.268 387.639 144.34 387.519 144.34C386.801 144.34 386.142 144.316 385.544 144.268C384.945 144.22 384.191 144.196 383.281 144.196C382.371 144.196 381.641 144.22 381.09 144.268C380.563 144.316 379.905 144.34 379.114 144.34C379.019 144.34 378.971 144.268 378.971 144.124C378.971 143.981 379.019 143.909 379.114 143.909C379.761 143.909 380.312 143.777 380.767 143.514C381.246 143.25 381.713 142.772 382.167 142.077C382.622 141.359 383.125 140.365 383.676 139.096L391.398 121.676C391.446 121.604 391.554 121.568 391.722 121.568C391.889 121.568 391.985 121.604 392.009 121.676L400.809 139.419C401.36 140.569 401.851 141.478 402.282 142.149C402.713 142.795 403.12 143.25 403.503 143.514C403.886 143.777 404.293 143.909 404.724 143.909ZM412.013 124.836V141.287C412.013 141.886 412.073 142.341 412.193 142.652C412.313 142.963 412.54 143.167 412.875 143.262C413.21 143.358 413.701 143.406 414.348 143.406H416.503C418.203 143.406 419.64 142.927 420.813 141.969C421.986 141.012 422.765 139.742 423.148 138.162C423.172 138.09 423.244 138.066 423.363 138.09C423.483 138.114 423.543 138.162 423.543 138.234C423.471 138.976 423.399 139.874 423.327 140.928C423.256 141.957 423.22 142.915 423.22 143.801C423.22 144.16 423.04 144.34 422.681 144.34H405.871C405.823 144.34 405.799 144.268 405.799 144.124C405.799 143.981 405.823 143.909 405.871 143.909C406.637 143.909 407.212 143.849 407.595 143.729C408.002 143.61 408.266 143.37 408.385 143.011C408.529 142.652 408.601 142.125 408.601 141.431V124.8C408.601 124.106 408.529 123.591 408.385 123.256C408.266 122.897 408.002 122.657 407.595 122.538C407.212 122.394 406.637 122.322 405.871 122.322C405.823 122.322 405.799 122.25 405.799 122.107C405.799 121.963 405.823 121.891 405.871 121.891C406.446 121.891 407.116 121.915 407.883 121.963C408.649 121.987 409.451 121.999 410.289 121.999C411.175 121.999 411.989 121.987 412.732 121.963C413.498 121.915 414.168 121.891 414.743 121.891C414.815 121.891 414.851 121.963 414.851 122.107C414.851 122.25 414.815 122.322 414.743 122.322C413.977 122.322 413.39 122.394 412.983 122.538C412.6 122.657 412.336 122.897 412.193 123.256C412.073 123.615 412.013 124.142 412.013 124.836ZM449.669 144.34H434.081C434.009 144.34 433.973 144.268 433.973 144.124C433.973 143.981 434.009 143.909 434.081 143.909C434.871 143.909 435.458 143.849 435.841 143.729C436.224 143.61 436.476 143.37 436.595 143.011C436.739 142.652 436.811 142.125 436.811 141.431V124.8C436.811 124.106 436.739 123.591 436.595 123.256C436.476 122.897 436.224 122.657 435.841 122.538C435.458 122.394 434.871 122.322 434.081 122.322C434.009 122.322 433.973 122.25 433.973 122.107C433.973 121.963 434.009 121.891 434.081 121.891H449.023C449.262 121.891 449.382 121.999 449.382 122.214L449.454 126.884C449.454 126.932 449.394 126.968 449.274 126.992C449.155 126.992 449.071 126.956 449.023 126.884C448.76 125.519 448.209 124.501 447.371 123.831C446.533 123.16 445.431 122.825 444.066 122.825H442.594C441.995 122.825 441.516 122.897 441.157 123.041C440.822 123.16 440.582 123.376 440.438 123.687C440.295 123.974 440.223 124.369 440.223 124.872V141.287C440.223 141.79 440.283 142.209 440.403 142.544C440.546 142.855 440.762 143.083 441.049 143.227C441.336 143.346 441.744 143.406 442.27 143.406H444.03C445.659 143.406 446.976 143.023 447.981 142.257C448.987 141.467 449.705 140.305 450.136 138.773C450.16 138.701 450.232 138.677 450.352 138.701C450.496 138.725 450.567 138.761 450.567 138.809C450.472 139.479 450.388 140.281 450.316 141.215C450.244 142.149 450.208 143.011 450.208 143.801C450.208 144.16 450.029 144.34 449.669 144.34ZM447.658 136.222C447.658 135.217 447.323 134.451 446.652 133.924C445.982 133.397 444.976 133.134 443.635 133.134H438.607V132.2H443.671C445.012 132.2 446.006 131.972 446.652 131.517C447.299 131.062 447.622 130.404 447.622 129.542C447.622 129.47 447.682 129.434 447.802 129.434C447.945 129.434 448.017 129.47 448.017 129.542C448.017 130.308 448.005 130.907 447.981 131.338C447.981 131.769 447.981 132.212 447.981 132.667C447.981 133.241 447.993 133.816 448.017 134.391C448.065 134.941 448.089 135.552 448.089 136.222C448.089 136.27 448.017 136.294 447.874 136.294C447.73 136.294 447.658 136.27 447.658 136.222ZM468.428 141.431C468.428 142.125 468.488 142.652 468.607 143.011C468.751 143.37 469.014 143.61 469.397 143.729C469.781 143.849 470.367 143.909 471.157 143.909C471.229 143.909 471.265 143.981 471.265 144.124C471.265 144.268 471.229 144.34 471.157 144.34C470.559 144.34 469.888 144.328 469.146 144.304C468.404 144.28 467.578 144.268 466.668 144.268C465.83 144.268 465.027 144.28 464.261 144.304C463.495 144.328 462.812 144.34 462.214 144.34C462.142 144.34 462.106 144.268 462.106 144.124C462.106 143.981 462.142 143.909 462.214 143.909C462.98 143.909 463.567 143.849 463.974 143.729C464.381 143.61 464.644 143.37 464.764 143.011C464.908 142.652 464.98 142.125 464.98 141.431V124.8C464.98 124.106 464.908 123.591 464.764 123.256C464.644 122.897 464.381 122.657 463.974 122.538C463.567 122.394 462.98 122.322 462.214 122.322C462.142 122.322 462.106 122.25 462.106 122.107C462.106 121.963 462.142 121.891 462.214 121.891C462.812 121.891 463.495 121.915 464.261 121.963C465.027 121.987 465.83 121.999 466.668 121.999C467.578 121.999 468.404 121.987 469.146 121.963C469.912 121.915 470.583 121.891 471.157 121.891C471.229 121.891 471.265 121.963 471.265 122.107C471.265 122.25 471.229 122.322 471.157 122.322C470.391 122.322 469.805 122.394 469.397 122.538C469.014 122.681 468.751 122.933 468.607 123.292C468.488 123.651 468.428 124.178 468.428 124.872V141.431ZM477.295 139.994V122.717L478.264 122.789V139.994C478.264 141.263 478.516 142.233 479.019 142.903C479.522 143.574 480.24 143.909 481.174 143.909C481.246 143.909 481.282 143.981 481.282 144.124C481.282 144.268 481.246 144.34 481.174 144.34C480.671 144.34 480.144 144.328 479.593 144.304C479.067 144.28 478.48 144.268 477.833 144.268C477.139 144.268 476.469 144.28 475.822 144.304C475.199 144.328 474.613 144.34 474.062 144.34C473.99 144.34 473.954 144.268 473.954 144.124C473.954 143.981 473.99 143.909 474.062 143.909C475.116 143.909 475.918 143.574 476.469 142.903C477.019 142.233 477.295 141.263 477.295 139.994ZM495.541 144.843C495.541 144.915 495.481 144.951 495.362 144.951C495.242 144.975 495.158 144.975 495.11 144.951L477.833 124.836C476.971 123.855 476.229 123.196 475.607 122.861C475.008 122.502 474.421 122.322 473.847 122.322C473.775 122.322 473.739 122.25 473.739 122.107C473.739 121.963 473.775 121.891 473.847 121.891C474.302 121.891 474.768 121.903 475.247 121.927C475.726 121.951 476.169 121.963 476.576 121.963C477.295 121.963 477.941 121.951 478.516 121.927C479.115 121.903 479.57 121.891 479.881 121.891C480.192 121.891 480.42 122.035 480.563 122.322C480.707 122.586 481.066 123.064 481.641 123.759L495.254 139.778L495.541 144.843ZM495.541 126.273V144.843L494.571 143.765V126.273C494.571 125.004 494.32 124.034 493.817 123.364C493.338 122.669 492.62 122.322 491.662 122.322C491.614 122.322 491.59 122.25 491.59 122.107C491.59 121.963 491.614 121.891 491.662 121.891C492.165 121.891 492.692 121.915 493.242 121.963C493.793 121.987 494.392 121.999 495.038 121.999C495.661 121.999 496.271 121.987 496.87 121.963C497.469 121.915 498.019 121.891 498.522 121.891C498.594 121.891 498.63 121.963 498.63 122.107C498.63 122.25 498.594 122.322 498.522 122.322C497.565 122.322 496.822 122.669 496.295 123.364C495.793 124.034 495.541 125.004 495.541 126.273ZM506.655 122.645C505.194 122.645 503.997 123.1 503.063 124.01C502.153 124.92 501.435 126.261 500.908 128.033C500.908 128.105 500.836 128.141 500.693 128.141C500.573 128.117 500.513 128.081 500.513 128.033C500.561 127.698 500.609 127.243 500.657 126.668C500.705 126.07 500.752 125.423 500.8 124.729C500.872 124.034 500.92 123.364 500.944 122.717C500.992 122.047 501.016 121.508 501.016 121.101C501.016 120.981 501.076 120.921 501.195 120.921C501.339 120.921 501.411 120.981 501.411 121.101C501.411 121.34 501.531 121.52 501.77 121.64C502.034 121.735 502.321 121.807 502.632 121.855C502.943 121.879 503.207 121.891 503.422 121.891C505.482 121.963 507.888 121.999 510.642 121.999C512.342 121.999 513.683 121.987 514.665 121.963C515.67 121.915 516.64 121.891 517.574 121.891C518.436 121.891 519.083 121.843 519.514 121.747C519.969 121.628 520.256 121.376 520.376 120.993C520.4 120.897 520.472 120.85 520.591 120.85C520.711 120.85 520.771 120.897 520.771 120.993C520.747 121.376 520.711 121.903 520.663 122.574C520.615 123.22 520.579 123.915 520.555 124.657C520.531 125.375 520.507 126.046 520.483 126.668C520.46 127.267 520.448 127.722 520.448 128.033C520.448 128.081 520.376 128.105 520.232 128.105C520.112 128.105 520.04 128.081 520.017 128.033C519.753 126.141 519.178 124.777 518.292 123.938C517.406 123.076 516.221 122.645 514.737 122.645C514.09 122.645 513.599 122.705 513.264 122.825C512.929 122.945 512.701 123.172 512.581 123.507C512.462 123.819 512.402 124.274 512.402 124.872V141.431C512.402 142.125 512.474 142.652 512.617 143.011C512.785 143.37 513.084 143.61 513.515 143.729C513.97 143.849 514.653 143.909 515.563 143.909C515.635 143.909 515.67 143.981 515.67 144.124C515.67 144.268 515.635 144.34 515.563 144.34C514.916 144.34 514.174 144.328 513.336 144.304C512.522 144.28 511.624 144.268 510.642 144.268C509.708 144.268 508.834 144.28 508.02 144.304C507.206 144.328 506.451 144.34 505.757 144.34C505.709 144.34 505.685 144.268 505.685 144.124C505.685 143.981 505.709 143.909 505.757 143.909C506.667 143.909 507.349 143.849 507.804 143.729C508.259 143.61 508.559 143.37 508.702 143.011C508.87 142.652 508.954 142.125 508.954 141.431V124.8C508.954 124.202 508.894 123.759 508.774 123.472C508.678 123.16 508.463 122.945 508.128 122.825C507.792 122.705 507.302 122.645 506.655 122.645ZM539.184 144.34H523.596C523.524 144.34 523.488 144.268 523.488 144.124C523.488 143.981 523.524 143.909 523.596 143.909C524.386 143.909 524.973 143.849 525.356 143.729C525.739 143.61 525.99 143.37 526.11 143.011C526.254 142.652 526.325 142.125 526.325 141.431V124.8C526.325 124.106 526.254 123.591 526.11 123.256C525.99 122.897 525.739 122.657 525.356 122.538C524.973 122.394 524.386 122.322 523.596 122.322C523.524 122.322 523.488 122.25 523.488 122.107C523.488 121.963 523.524 121.891 523.596 121.891H538.538C538.777 121.891 538.897 121.999 538.897 122.214L538.969 126.884C538.969 126.932 538.909 126.968 538.789 126.992C538.669 126.992 538.586 126.956 538.538 126.884C538.274 125.519 537.724 124.501 536.885 123.831C536.047 123.16 534.946 122.825 533.581 122.825H532.108C531.51 122.825 531.031 122.897 530.672 123.041C530.336 123.16 530.097 123.376 529.953 123.687C529.81 123.974 529.738 124.369 529.738 124.872V141.287C529.738 141.79 529.798 142.209 529.917 142.544C530.061 142.855 530.276 143.083 530.564 143.227C530.851 143.346 531.258 143.406 531.785 143.406H533.545C535.173 143.406 536.49 143.023 537.496 142.257C538.502 141.467 539.22 140.305 539.651 138.773C539.675 138.701 539.747 138.677 539.867 138.701C540.01 138.725 540.082 138.761 540.082 138.809C539.986 139.479 539.903 140.281 539.831 141.215C539.759 142.149 539.723 143.011 539.723 143.801C539.723 144.16 539.543 144.34 539.184 144.34ZM537.173 136.222C537.173 135.217 536.838 134.451 536.167 133.924C535.497 133.397 534.491 133.134 533.15 133.134H528.121V132.2H533.186C534.527 132.2 535.521 131.972 536.167 131.517C536.814 131.062 537.137 130.404 537.137 129.542C537.137 129.47 537.197 129.434 537.316 129.434C537.46 129.434 537.532 129.47 537.532 129.542C537.532 130.308 537.52 130.907 537.496 131.338C537.496 131.769 537.496 132.212 537.496 132.667C537.496 133.241 537.508 133.816 537.532 134.391C537.58 134.941 537.604 135.552 537.604 136.222C537.604 136.27 537.532 136.294 537.388 136.294C537.245 136.294 537.173 136.27 537.173 136.222ZM556.708 144.771C554.625 144.771 552.757 144.472 551.105 143.873C549.476 143.25 548.087 142.412 546.938 141.359C545.813 140.281 544.951 139.048 544.352 137.659C543.777 136.27 543.49 134.774 543.49 133.169C543.49 131.421 543.837 129.841 544.532 128.428C545.226 126.992 546.196 125.758 547.441 124.729C548.686 123.699 550.147 122.909 551.823 122.358C553.499 121.783 555.331 121.496 557.318 121.496C558.492 121.496 559.641 121.592 560.767 121.783C561.916 121.975 562.85 122.25 563.568 122.609C563.808 122.705 563.939 122.789 563.963 122.861C564.011 122.909 564.047 123.1 564.071 123.436L564.538 128.141C564.538 128.213 564.478 128.261 564.358 128.285C564.239 128.309 564.155 128.285 564.107 128.213C563.915 127.614 563.604 126.968 563.173 126.273C562.766 125.579 562.239 124.932 561.593 124.334C560.946 123.711 560.168 123.196 559.258 122.789C558.372 122.382 557.342 122.178 556.169 122.178C554.517 122.178 553.02 122.598 551.679 123.436C550.338 124.274 549.273 125.459 548.482 126.992C547.692 128.524 547.297 130.356 547.297 132.487C547.297 134.139 547.537 135.672 548.016 137.085C548.494 138.473 549.177 139.707 550.063 140.784C550.973 141.862 552.062 142.7 553.331 143.298C554.601 143.897 556.025 144.196 557.606 144.196C558.587 144.196 559.378 144.077 559.976 143.837C560.575 143.598 561.006 143.167 561.269 142.544C561.533 141.898 561.664 140.988 561.664 139.814C561.664 138.665 561.593 137.827 561.449 137.3C561.329 136.749 561.006 136.39 560.479 136.222C559.952 136.055 559.102 135.971 557.929 135.971C557.785 135.971 557.713 135.875 557.713 135.684C557.713 135.492 557.773 135.396 557.893 135.396C559.521 135.492 560.982 135.552 562.275 135.576C563.592 135.576 564.969 135.54 566.406 135.468C566.501 135.468 566.549 135.552 566.549 135.72C566.573 135.887 566.525 135.971 566.406 135.971C565.951 135.947 565.615 136.031 565.4 136.222C565.184 136.39 565.041 136.773 564.969 137.372C564.921 137.97 564.897 138.904 564.897 140.173C564.897 140.964 564.921 141.55 564.969 141.933C565.017 142.317 565.053 142.604 565.077 142.795C565.125 142.963 565.149 143.143 565.149 143.334C565.149 143.478 565.125 143.574 565.077 143.622C565.029 143.669 564.921 143.717 564.753 143.765C563.484 144.053 562.143 144.292 560.731 144.484C559.318 144.675 557.977 144.771 556.708 144.771ZM587.08 144.34C586.721 144.34 586.123 143.885 585.285 142.975C584.446 142.065 583.429 140.76 582.232 139.06C581.058 137.336 579.741 135.289 578.281 132.918L581.154 132.056C583.094 134.953 584.746 137.276 586.111 139.024C587.5 140.748 588.721 141.993 589.774 142.76C590.852 143.526 591.882 143.909 592.863 143.909C592.911 143.909 592.935 143.981 592.935 144.124C592.935 144.268 592.911 144.34 592.863 144.34C591.355 144.34 590.122 144.34 589.164 144.34C588.23 144.34 587.535 144.34 587.08 144.34ZM578.927 121.783C581.01 121.783 582.615 122.202 583.74 123.041C584.889 123.855 585.464 124.98 585.464 126.417C585.464 127.782 585.069 129.003 584.279 130.08C583.513 131.158 582.507 131.996 581.262 132.595C580.041 133.193 578.724 133.493 577.311 133.493C577.023 133.493 576.712 133.493 576.377 133.493C576.042 133.469 575.742 133.445 575.479 133.421V141.431C575.479 142.125 575.539 142.652 575.658 143.011C575.778 143.37 576.03 143.61 576.413 143.729C576.82 143.849 577.407 143.909 578.173 143.909C578.245 143.909 578.281 143.981 578.281 144.124C578.281 144.268 578.245 144.34 578.173 144.34C577.574 144.34 576.904 144.328 576.161 144.304C575.419 144.28 574.605 144.268 573.719 144.268C572.881 144.268 572.079 144.28 571.312 144.304C570.546 144.328 569.864 144.34 569.265 144.34C569.193 144.34 569.157 144.268 569.157 144.124C569.157 143.981 569.193 143.909 569.265 143.909C570.055 143.909 570.642 143.849 571.025 143.729C571.408 143.61 571.672 143.37 571.815 143.011C571.959 142.652 572.031 142.125 572.031 141.431V124.8C572.031 124.106 571.959 123.591 571.815 123.256C571.696 122.897 571.444 122.657 571.061 122.538C570.678 122.394 570.091 122.322 569.301 122.322C569.253 122.322 569.229 122.25 569.229 122.107C569.229 121.963 569.253 121.891 569.301 121.891C569.9 121.891 570.57 121.915 571.312 121.963C572.079 121.987 572.881 121.999 573.719 121.999C574.485 121.999 575.347 121.963 576.305 121.891C577.263 121.819 578.137 121.783 578.927 121.783ZM581.908 127.674C581.908 126.285 581.741 125.22 581.405 124.477C581.094 123.711 580.651 123.184 580.076 122.897C579.502 122.609 578.831 122.466 578.065 122.466C577.131 122.466 576.461 122.645 576.054 123.005C575.67 123.34 575.479 123.962 575.479 124.872V132.451C575.814 132.499 576.173 132.535 576.556 132.559C576.94 132.583 577.275 132.595 577.562 132.595C579.166 132.595 580.292 132.2 580.938 131.409C581.585 130.595 581.908 129.35 581.908 127.674ZM598.95 135.54L599.417 134.642H609.474L609.725 135.54H598.95ZM618.058 143.909C618.154 143.909 618.202 143.981 618.202 144.124C618.202 144.268 618.154 144.34 618.058 144.34C617.34 144.34 616.598 144.316 615.831 144.268C615.089 144.22 614.371 144.196 613.676 144.196C612.886 144.196 612.192 144.22 611.593 144.268C611.018 144.316 610.372 144.34 609.653 144.34C609.558 144.34 609.51 144.268 609.51 144.124C609.51 143.981 609.558 143.909 609.653 143.909C610.731 143.909 611.377 143.717 611.593 143.334C611.808 142.951 611.629 142.197 611.054 141.071L603.547 125.806L605.02 123.4L597.908 139.419C597.286 140.88 597.262 141.993 597.836 142.76C598.435 143.526 599.441 143.909 600.853 143.909C600.973 143.909 601.033 143.981 601.033 144.124C601.033 144.268 600.973 144.34 600.853 144.34C600.135 144.34 599.477 144.316 598.878 144.268C598.279 144.22 597.525 144.196 596.615 144.196C595.705 144.196 594.975 144.22 594.424 144.268C593.897 144.316 593.239 144.34 592.449 144.34C592.353 144.34 592.305 144.268 592.305 144.124C592.305 143.981 592.353 143.909 592.449 143.909C593.095 143.909 593.646 143.777 594.101 143.514C594.58 143.25 595.047 142.772 595.502 142.077C595.957 141.359 596.459 140.365 597.01 139.096L604.733 121.676C604.78 121.604 604.888 121.568 605.056 121.568C605.223 121.568 605.319 121.604 605.343 121.676L614.143 139.419C614.694 140.569 615.185 141.478 615.616 142.149C616.047 142.795 616.454 143.25 616.837 143.514C617.22 143.777 617.627 143.909 618.058 143.909ZM623.073 122.645C621.613 122.645 620.415 123.1 619.481 124.01C618.571 124.92 617.853 126.261 617.326 128.033C617.326 128.105 617.254 128.141 617.111 128.141C616.991 128.117 616.931 128.081 616.931 128.033C616.979 127.698 617.027 127.243 617.075 126.668C617.123 126.07 617.171 125.423 617.219 124.729C617.29 124.034 617.338 123.364 617.362 122.717C617.41 122.047 617.434 121.508 617.434 121.101C617.434 120.981 617.494 120.921 617.614 120.921C617.757 120.921 617.829 120.981 617.829 121.101C617.829 121.34 617.949 121.52 618.188 121.64C618.452 121.735 618.739 121.807 619.05 121.855C619.362 121.879 619.625 121.891 619.841 121.891C621.9 121.963 624.306 121.999 627.06 121.999C628.76 121.999 630.101 121.987 631.083 121.963C632.089 121.915 633.058 121.891 633.992 121.891C634.854 121.891 635.501 121.843 635.932 121.747C636.387 121.628 636.674 121.376 636.794 120.993C636.818 120.897 636.89 120.85 637.009 120.85C637.129 120.85 637.189 120.897 637.189 120.993C637.165 121.376 637.129 121.903 637.081 122.574C637.033 123.22 636.998 123.915 636.974 124.657C636.95 125.375 636.926 126.046 636.902 126.668C636.878 127.267 636.866 127.722 636.866 128.033C636.866 128.081 636.794 128.105 636.65 128.105C636.531 128.105 636.459 128.081 636.435 128.033C636.171 126.141 635.597 124.777 634.711 123.938C633.825 123.076 632.639 122.645 631.155 122.645C630.508 122.645 630.017 122.705 629.682 122.825C629.347 122.945 629.119 123.172 629 123.507C628.88 123.819 628.82 124.274 628.82 124.872V141.431C628.82 142.125 628.892 142.652 629.036 143.011C629.203 143.37 629.503 143.61 629.934 143.729C630.389 143.849 631.071 143.909 631.981 143.909C632.053 143.909 632.089 143.981 632.089 144.124C632.089 144.268 632.053 144.34 631.981 144.34C631.334 144.34 630.592 144.328 629.754 144.304C628.94 144.28 628.042 144.268 627.06 144.268C626.126 144.268 625.252 144.28 624.438 144.304C623.624 144.328 622.87 144.34 622.175 144.34C622.127 144.34 622.103 144.268 622.103 144.124C622.103 143.981 622.127 143.909 622.175 143.909C623.085 143.909 623.768 143.849 624.223 143.729C624.678 143.61 624.977 143.37 625.121 143.011C625.288 142.652 625.372 142.125 625.372 141.431V124.8C625.372 124.202 625.312 123.759 625.192 123.472C625.097 123.16 624.881 122.945 624.546 122.825C624.211 122.705 623.72 122.645 623.073 122.645ZM646.3 141.431C646.3 142.125 646.36 142.652 646.479 143.011C646.623 143.37 646.886 143.61 647.269 143.729C647.653 143.849 648.239 143.909 649.029 143.909C649.101 143.909 649.137 143.981 649.137 144.124C649.137 144.268 649.101 144.34 649.029 144.34C648.431 144.34 647.76 144.328 647.018 144.304C646.276 144.28 645.45 144.268 644.54 144.268C643.702 144.268 642.899 144.28 642.133 144.304C641.367 144.328 640.684 144.34 640.086 144.34C640.014 144.34 639.978 144.268 639.978 144.124C639.978 143.981 640.014 143.909 640.086 143.909C640.852 143.909 641.439 143.849 641.846 143.729C642.253 143.61 642.516 143.37 642.636 143.011C642.78 142.652 642.851 142.125 642.851 141.431V124.8C642.851 124.106 642.78 123.591 642.636 123.256C642.516 122.897 642.253 122.657 641.846 122.538C641.439 122.394 640.852 122.322 640.086 122.322C640.014 122.322 639.978 122.25 639.978 122.107C639.978 121.963 640.014 121.891 640.086 121.891C640.684 121.891 641.367 121.915 642.133 121.963C642.899 121.987 643.702 121.999 644.54 121.999C645.45 121.999 646.276 121.987 647.018 121.963C647.784 121.915 648.455 121.891 649.029 121.891C649.101 121.891 649.137 121.963 649.137 122.107C649.137 122.25 649.101 122.322 649.029 122.322C648.263 122.322 647.676 122.394 647.269 122.538C646.886 122.681 646.623 122.933 646.479 123.292C646.36 123.651 646.3 124.178 646.3 124.872V141.431ZM674.598 121.891C674.67 121.891 674.706 121.963 674.706 122.107C674.706 122.25 674.67 122.322 674.598 122.322C673.76 122.322 672.982 122.645 672.264 123.292C671.545 123.938 670.959 124.872 670.504 126.094L663.5 144.304C663.476 144.4 663.344 144.448 663.105 144.448C662.889 144.448 662.757 144.4 662.709 144.304L653.622 124.872C653.215 124.01 652.796 123.376 652.365 122.969C651.934 122.538 651.407 122.322 650.785 122.322C650.713 122.322 650.677 122.25 650.677 122.107C650.677 121.963 650.713 121.891 650.785 121.891C651.096 121.891 651.347 121.903 651.539 121.927C651.754 121.951 652.006 121.975 652.293 121.999C652.604 121.999 653.012 121.999 653.514 121.999C654.664 121.999 655.598 121.999 656.316 121.999C657.058 121.975 657.669 121.951 658.148 121.927C658.651 121.903 659.094 121.891 659.477 121.891C659.549 121.891 659.585 121.963 659.585 122.107C659.585 122.25 659.549 122.322 659.477 122.322C658.471 122.322 657.789 122.574 657.429 123.076C657.094 123.579 657.154 124.298 657.609 125.232L664.541 140.245L663.069 142.724L669.534 125.95C669.941 124.872 669.965 123.998 669.606 123.328C669.247 122.657 668.456 122.322 667.235 122.322C667.163 122.322 667.127 122.25 667.127 122.107C667.127 121.963 667.163 121.891 667.235 121.891C667.882 121.891 668.504 121.915 669.103 121.963C669.702 121.987 670.48 121.999 671.438 121.999C672.108 121.999 672.647 121.987 673.054 121.963C673.485 121.915 674 121.891 674.598 121.891ZM677.486 135.54L677.952 134.642H688.01L688.261 135.54H677.486ZM696.594 143.909C696.69 143.909 696.738 143.981 696.738 144.124C696.738 144.268 696.69 144.34 696.594 144.34C695.876 144.34 695.133 144.316 694.367 144.268C693.625 144.22 692.906 144.196 692.212 144.196C691.422 144.196 690.727 144.22 690.129 144.268C689.554 144.316 688.908 144.34 688.189 144.34C688.093 144.34 688.045 144.268 688.045 144.124C688.045 143.981 688.093 143.909 688.189 143.909C689.267 143.909 689.913 143.717 690.129 143.334C690.344 142.951 690.165 142.197 689.59 141.071L682.083 125.806L683.556 123.4L676.444 139.419C675.821 140.88 675.797 141.993 676.372 142.76C676.971 143.526 677.976 143.909 679.389 143.909C679.509 143.909 679.569 143.981 679.569 144.124C679.569 144.268 679.509 144.34 679.389 144.34C678.671 144.34 678.012 144.316 677.414 144.268C676.815 144.22 676.061 144.196 675.151 144.196C674.241 144.196 673.511 144.22 672.96 144.268C672.433 144.316 671.775 144.34 670.984 144.34C670.889 144.34 670.841 144.268 670.841 144.124C670.841 143.981 670.889 143.909 670.984 143.909C671.631 143.909 672.182 143.777 672.637 143.514C673.116 143.25 673.582 142.772 674.037 142.077C674.492 141.359 674.995 140.365 675.546 139.096L683.268 121.676C683.316 121.604 683.424 121.568 683.592 121.568C683.759 121.568 683.855 121.604 683.879 121.676L692.679 139.419C693.23 140.569 693.721 141.478 694.152 142.149C694.583 142.795 694.99 143.25 695.373 143.514C695.756 143.777 696.163 143.909 696.594 143.909Z" fill="white"/>
<path d="M263.826 103.321C257.366 103.321 251.604 102.404 246.538 100.568C241.473 98.7332 237.179 96.2005 233.655 92.9705C230.131 89.7405 227.452 85.9966 225.617 81.7389C223.781 77.4811 222.864 72.9297 222.864 68.0847C222.864 62.7258 223.928 57.8441 226.057 53.4395C228.186 49.0349 231.196 45.2543 235.086 42.0977C238.977 38.8677 243.529 36.3718 248.741 34.61C253.953 32.8481 259.642 31.9672 265.808 31.9672C269.259 31.9672 272.745 32.2242 276.269 32.738C279.793 33.2519 282.656 33.986 284.858 34.9403C285.666 35.2339 286.106 35.4909 286.179 35.7111C286.326 35.8579 286.436 36.4452 286.51 37.4729L287.941 52.7788C287.941 52.999 287.758 53.1459 287.391 53.2193C287.024 53.2927 286.767 53.1826 286.62 52.8889C286.106 51.4941 285.188 49.769 283.867 47.7136C282.619 45.5847 280.967 43.5292 278.912 41.5472C276.856 39.4917 274.397 37.7666 271.534 36.3718C268.671 34.977 265.368 34.2796 261.624 34.2796C256.926 34.2796 252.631 35.5643 248.741 38.1336C244.923 40.6295 241.877 44.2266 239.601 48.9248C237.325 53.623 236.188 59.2388 236.188 65.7723C236.188 71.0578 236.922 75.8661 238.39 80.1973C239.931 84.5284 242.06 88.309 244.776 91.539C247.566 94.6956 250.796 97.1549 254.467 98.9167C258.137 100.605 262.175 101.449 266.579 101.449C269.369 101.449 271.608 101.119 273.296 100.458C274.984 99.7976 276.196 98.5129 276.93 96.6043C277.737 94.6956 278.141 91.8694 278.141 88.1255C278.141 84.6018 277.921 82.0325 277.48 80.4175C277.113 78.7291 276.159 77.6279 274.617 77.1141C273.076 76.6002 270.58 76.3433 267.13 76.3433C266.689 76.3433 266.469 76.0496 266.469 75.4623C266.469 74.8751 266.653 74.5814 267.02 74.5814C272.158 74.8751 276.783 75.0586 280.894 75.132C285.005 75.132 289.336 75.0219 293.887 74.8017C294.181 74.8017 294.328 75.0586 294.328 75.5725C294.401 76.0863 294.254 76.3433 293.887 76.3433C292.639 76.2699 291.722 76.5268 291.135 77.1141C290.547 77.6279 290.18 78.8025 290.033 80.6377C289.887 82.473 289.813 85.3359 289.813 89.2266C289.813 91.6491 289.887 93.4477 290.033 94.6222C290.18 95.7968 290.29 96.6777 290.364 97.265C290.511 97.7788 290.584 98.3294 290.584 98.9167C290.584 99.3571 290.511 99.6508 290.364 99.7976C290.217 99.9444 289.887 100.091 289.373 100.238C285.335 101.119 281.077 101.853 276.599 102.44C272.195 103.028 267.937 103.321 263.826 103.321ZM316.84 76.7837L318.492 73.7005H350.205L350.976 76.7837H316.84ZM376.963 100.679C377.33 100.679 377.513 100.899 377.513 101.339C377.513 101.78 377.33 102 376.963 102C374.76 102 372.448 101.926 370.025 101.78C367.676 101.633 365.401 101.559 363.198 101.559C360.702 101.559 358.537 101.633 356.702 101.78C354.866 101.926 352.811 102 350.535 102C350.242 102 350.095 101.78 350.095 101.339C350.095 100.899 350.242 100.679 350.535 100.679C353.545 100.679 355.27 100.091 355.711 98.9167C356.224 97.6687 355.564 95.2462 353.728 91.6491L331.375 47.4933L336.771 38.0235L314.858 86.3637C312.876 90.7682 312.839 94.2552 314.748 96.8245C316.657 99.3938 319.666 100.679 323.777 100.679C324.144 100.679 324.328 100.899 324.328 101.339C324.328 101.78 324.144 102 323.777 102C321.575 102 319.556 101.926 317.721 101.78C315.886 101.633 313.573 101.559 310.784 101.559C307.921 101.559 305.609 101.633 303.847 101.78C302.158 101.926 300.066 102 297.57 102C297.277 102 297.13 101.78 297.13 101.339C297.13 100.899 297.277 100.679 297.57 100.679C299.552 100.679 301.241 100.275 302.635 99.4673C304.104 98.5863 305.535 97.0447 306.93 94.8425C308.398 92.5668 310.05 89.3734 311.885 85.2625L335.78 32.738C335.853 32.5178 336.184 32.4077 336.771 32.4077C337.358 32.3343 337.689 32.4444 337.762 32.738L365.29 86.9142C367.052 90.3645 368.557 93.1173 369.805 95.1728C371.127 97.1549 372.338 98.5863 373.439 99.4673C374.613 100.275 375.788 100.679 376.963 100.679ZM400.287 42.2078V92.6402C400.287 94.402 400.434 95.7601 400.727 96.7144C401.021 97.5953 401.608 98.1826 402.489 98.4762C403.444 98.7699 404.802 98.9167 406.564 98.9167H410.307C416.033 98.9167 420.988 97.3751 425.173 94.2919C429.357 91.2087 432.147 87.0978 433.542 81.9591C433.615 81.7389 433.835 81.6654 434.202 81.7389C434.569 81.8123 434.753 81.9591 434.753 82.1793C434.533 84.6018 434.312 87.5382 434.092 90.9885C433.872 94.3653 433.762 97.4852 433.762 100.348C433.762 101.449 433.211 102 432.11 102H380.136C379.989 102 379.916 101.78 379.916 101.339C379.916 100.899 379.989 100.679 380.136 100.679C382.412 100.679 384.1 100.495 385.201 100.128C386.303 99.7609 387.037 99.0268 387.404 97.9257C387.844 96.8245 388.064 95.2095 388.064 93.0806V42.0977C388.064 39.9689 387.844 38.3906 387.404 37.3628C387.037 36.2617 386.303 35.5276 385.201 35.1605C384.1 34.7201 382.412 34.4998 380.136 34.4998C379.989 34.4998 379.916 34.2796 379.916 33.8392C379.916 33.3987 379.989 33.1785 380.136 33.1785C381.898 33.1785 383.99 33.2519 386.413 33.3987C388.909 33.4721 391.478 33.5088 394.121 33.5088C396.91 33.5088 399.48 33.4721 401.829 33.3987C404.178 33.2519 406.27 33.1785 408.105 33.1785C408.325 33.1785 408.435 33.3987 408.435 33.8392C408.435 34.2796 408.325 34.4998 408.105 34.4998C405.903 34.4998 404.214 34.7201 403.04 35.1605C401.939 35.5276 401.205 36.2617 400.838 37.3628C400.471 38.464 400.287 40.079 400.287 42.2078ZM490.022 102H441.351C441.131 102 441.021 101.78 441.021 101.339C441.021 100.899 441.131 100.679 441.351 100.679C443.627 100.679 445.315 100.495 446.416 100.128C447.517 99.7609 448.252 99.0268 448.619 97.9257C448.986 96.8245 449.169 95.2095 449.169 93.0806V42.0977C449.169 39.9689 448.986 38.3906 448.619 37.3628C448.252 36.2617 447.517 35.5276 446.416 35.1605C445.315 34.7201 443.627 34.4998 441.351 34.4998C441.131 34.4998 441.021 34.2796 441.021 33.8392C441.021 33.3987 441.131 33.1785 441.351 33.1785H488.039C488.774 33.1785 489.141 33.5088 489.141 34.1695L489.361 48.8147C489.361 48.9615 489.177 49.0716 488.81 49.145C488.443 49.2185 488.186 49.145 488.039 48.9248C486.865 44.5937 484.883 41.437 482.093 39.455C479.304 37.3995 475.633 36.3718 471.082 36.3718H467.778C466.31 36.3718 465.099 36.592 464.145 37.0325C463.19 37.3995 462.493 38.0235 462.052 38.9044C461.612 39.7853 461.392 40.8865 461.392 42.2078V92.6402C461.392 94.0349 461.575 95.2095 461.942 96.1638C462.309 97.1181 462.86 97.8155 463.594 98.256C464.328 98.6965 465.283 98.9167 466.457 98.9167H470.091C475.817 98.9167 480.405 97.7421 483.855 95.393C487.305 93.0439 489.838 89.4101 491.453 84.4917C491.526 84.2715 491.747 84.2348 492.114 84.3816C492.554 84.455 492.774 84.5651 492.774 84.7119C492.481 86.8408 492.224 89.3734 492.004 92.3098C491.783 95.1728 491.673 97.8522 491.673 100.348C491.673 101.449 491.123 102 490.022 102ZM483.855 77.4444C483.855 74.4346 482.717 72.0855 480.442 70.3971C478.166 68.6353 474.826 67.7543 470.421 67.7543H455.556V64.6712H470.531C474.862 64.6712 478.129 63.9371 480.331 62.4689C482.607 60.9273 483.745 58.8718 483.745 56.3025C483.745 56.0822 483.929 55.9721 484.296 55.9721C484.736 55.9721 484.956 56.0822 484.956 56.3025C484.956 58.725 484.92 60.6336 484.846 62.0284C484.846 63.3498 484.846 64.7446 484.846 66.2127C484.846 68.048 484.883 69.8465 484.956 71.6083C485.103 73.3702 485.176 75.3155 485.176 77.4444C485.176 77.5912 484.956 77.6646 484.516 77.6646C484.075 77.6646 483.855 77.5912 483.855 77.4444ZM511.577 88.0154V35.7111L514.881 35.9313V88.0154C514.881 91.9061 515.688 94.9893 517.303 97.265C518.918 99.5407 521.157 100.679 524.02 100.679C524.167 100.679 524.24 100.899 524.24 101.339C524.24 101.78 524.167 102 524.02 102C522.405 102 520.717 101.963 518.955 101.89C517.266 101.816 515.395 101.78 513.339 101.78C511.137 101.78 508.971 101.816 506.842 101.89C504.787 101.963 502.878 102 501.116 102C500.896 102 500.786 101.78 500.786 101.339C500.786 100.899 500.896 100.679 501.116 100.679C504.346 100.679 506.879 99.5407 508.714 97.265C510.623 94.9893 511.577 91.9061 511.577 88.0154ZM567.736 103.652C567.736 103.872 567.552 103.982 567.185 103.982C566.891 104.055 566.671 104.055 566.524 103.982L512.238 42.2078C509.595 39.1981 507.356 37.1793 505.521 36.1516C503.686 35.0504 501.85 34.4998 500.015 34.4998C499.868 34.4998 499.795 34.2796 499.795 33.8392C499.795 33.3987 499.868 33.1785 500.015 33.1785C501.483 33.1785 502.988 33.2152 504.53 33.2886C506.072 33.362 507.503 33.3987 508.824 33.3987C511.467 33.3987 513.853 33.362 515.982 33.2886C518.111 33.2152 519.762 33.1785 520.937 33.1785C521.891 33.1785 522.589 33.6189 523.029 34.4998C523.543 35.3074 524.681 36.7755 526.443 38.9044L566.855 85.4827L567.736 103.652ZM567.736 47.2731V103.652L564.542 100.348V47.2731C564.542 43.3824 563.735 40.2992 562.12 38.0235C560.505 35.6744 558.266 34.4998 555.403 34.4998C555.256 34.4998 555.182 34.2796 555.182 33.8392C555.182 33.3987 555.256 33.1785 555.403 33.1785C557.018 33.1785 558.669 33.2519 560.358 33.3987C562.12 33.4721 564.028 33.5088 566.084 33.5088C568.066 33.5088 570.011 33.4721 571.92 33.3987C573.829 33.2519 575.59 33.1785 577.205 33.1785C577.352 33.1785 577.426 33.3987 577.426 33.8392C577.426 34.2796 577.352 34.4998 577.205 34.4998C574.269 34.4998 571.957 35.6744 570.268 38.0235C568.58 40.2992 567.736 43.3824 567.736 47.2731ZM631.751 102H583.08C582.86 102 582.75 101.78 582.75 101.339C582.75 100.899 582.86 100.679 583.08 100.679C585.356 100.679 587.044 100.495 588.145 100.128C589.246 99.7609 589.981 99.0268 590.348 97.9257C590.715 96.8245 590.898 95.2095 590.898 93.0806V42.0977C590.898 39.9689 590.715 38.3906 590.348 37.3628C589.981 36.2617 589.246 35.5276 588.145 35.1605C587.044 34.7201 585.356 34.4998 583.08 34.4998C582.86 34.4998 582.75 34.2796 582.75 33.8392C582.75 33.3987 582.86 33.1785 583.08 33.1785H629.769C630.503 33.1785 630.87 33.5088 630.87 34.1695L631.09 48.8147C631.09 48.9615 630.906 49.0716 630.539 49.145C630.172 49.2185 629.915 49.145 629.769 48.9248C628.594 44.5937 626.612 41.437 623.822 39.455C621.033 37.3995 617.362 36.3718 612.811 36.3718H609.508C608.039 36.3718 606.828 36.592 605.874 37.0325C604.919 37.3995 604.222 38.0235 603.782 38.9044C603.341 39.7853 603.121 40.8865 603.121 42.2078V92.6402C603.121 94.0349 603.304 95.2095 603.671 96.1638C604.038 97.1181 604.589 97.8155 605.323 98.256C606.057 98.6965 607.012 98.9167 608.186 98.9167H611.82C617.546 98.9167 622.134 97.7421 625.584 95.393C629.034 93.0439 631.567 89.4101 633.182 84.4917C633.255 84.2715 633.476 84.2348 633.843 84.3816C634.283 84.455 634.503 84.5651 634.503 84.7119C634.21 86.8408 633.953 89.3734 633.733 92.3098C633.512 95.1728 633.402 97.8522 633.402 100.348C633.402 101.449 632.852 102 631.751 102ZM625.584 77.4444C625.584 74.4346 624.446 72.0855 622.171 70.3971C619.895 68.6353 616.555 67.7543 612.15 67.7543H597.285V64.6712H612.26C616.592 64.6712 619.858 63.9371 622.061 62.4689C624.336 60.9273 625.474 58.8718 625.474 56.3025C625.474 56.0822 625.658 55.9721 626.025 55.9721C626.465 55.9721 626.685 56.0822 626.685 56.3025C626.685 58.725 626.649 60.6336 626.575 62.0284C626.575 63.3498 626.575 64.7446 626.575 66.2127C626.575 68.048 626.612 69.8465 626.685 71.6083C626.832 73.3702 626.906 75.3155 626.906 77.4444C626.906 77.5912 626.685 77.6646 626.245 77.6646C625.804 77.6646 625.584 77.5912 625.584 77.4444Z" fill="#FEFEFE"/>
<path d="M72.8277 17.553C73.0291 17.553 75.8854 17.7749 77.028 17.8283C93.9072 18.5722 114.296 26.4056 125.754 39.0352C127.448 40.901 129.326 43.1204 130.563 45.5C131.27 46.8603 130.115 48.4344 128.611 48.1426L125.117 47.4563C124.682 47.37 124.295 47.1275 124.028 46.7781C105.217 22.4437 66.0424 17.9064 39.0735 30.0962C21.8902 37.8639 1.80947 58.2652 6.59745 78.8144C9.37571 90.733 22.7903 97.4444 33.6937 91.2262C41.1736 86.9561 46.2246 77.8322 54.8636 75.7156C66.4986 72.8634 72.8483 80.5899 82.8434 83.8613C100.832 89.7549 118.246 81.531 124.505 63.982C124.821 63.0984 125.759 62.5805 126.663 62.8271C127.509 63.0614 128.294 63.5135 129.083 63.9491C129.872 64.3847 130.209 65.293 129.926 66.1273C122.376 88.1643 99.3116 97.4362 77.591 88.2918C66.0547 83.4339 60.4529 75.8266 48.5673 86.3807C40.1256 93.8729 34.2691 101.262 21.3683 99.3514C-1.98803 95.8991 -4.42106 69.5796 5.54533 52.1292C17.3899 31.3909 40.4914 19.6202 63.8929 17.8283C64.8464 17.7544 65.4341 17.6681 66.3958 17.6187L67.0287 17.5817C67.0821 17.5776 67.4808 17.553 67.5342 17.553H72.8318H72.8277Z" fill="#13668A"/>
<path d="M148.749 73.7964C146.562 67.7508 142.313 61.323 137.114 57.509C136.452 57.4063 136.765 57.8091 136.711 58.2036C136.44 60.1352 135.984 61.9806 135.651 63.8916C143.094 71.573 148.95 87.0219 141.466 96.3595C134.718 104.776 123.864 99.3227 115.225 98.8336C97.8566 97.8472 88.2642 104.55 73.5715 111.122C63.6749 115.552 48.9863 117.846 41.3338 108.13C39.6734 106.014 38.9994 103.543 37.713 101.336C37.4664 101.267 33.2333 102.791 32.8757 103.001C32.5757 103.174 32.4277 103.206 32.4195 103.617C32.4072 104.168 33.6689 107.111 34.01 107.789C40.5324 120.862 56.98 123.234 69.8068 119.103L70.4603 119.227C73.5674 123.571 78.269 125.95 81.824 130.044C85.3791 134.141 89.904 143.483 95.7688 144.017C98.5922 144.276 100.507 143.356 103.027 142.345L98.1073 126.764C114.46 132.497 133.341 123.661 137.036 106.297C150.952 101.665 153.229 86.1958 148.749 73.7964ZM94.9591 137.166V136.891C95.1359 136.981 95.1359 137.072 94.9591 137.166ZM128.487 111.434C122.939 121.191 111.592 124.224 101.062 121.483C96.8497 120.386 91.0342 116.251 91.5726 124.13C91.8685 128.449 93.5001 132.559 94.8194 136.615C94.5399 136.928 93.6686 135.872 93.4632 135.65C90.7794 132.834 88.6916 128.737 85.9298 125.663C84.2489 123.793 82.2309 121.824 80.3157 120.192C80.2418 120.135 79.876 120.127 79.6335 119.929C78.3841 118.89 77.0443 117.969 75.9429 116.773C88.2642 109.926 100.894 103.889 115.484 104.871C120.498 105.208 125.351 107.086 130.402 107.057C130.082 108.656 129.276 110.053 128.487 111.434Z" fill="#51BABC"/>
<path d="M131.772 58.8816C129.643 58.6596 127.9 58.9884 125.751 58.6062C121.497 57.8541 119.216 57.2746 114.699 57.8212C104.577 59.046 95.835 64.8244 93.18 75.0292C100.446 74.8072 107.137 71.5358 112.615 66.9615C113.211 66.4642 114.198 65.6053 114.531 64.9066C115.118 65.1327 114.206 66.6615 114.029 67.0067C109.225 76.3772 96.2829 83.927 85.7864 79.9528C86.7399 70.233 92.0745 60.9159 100.66 56.0951C108.485 51.7017 118.386 50.6043 127.127 52.4373C128.036 52.6264 131.829 53.6086 132.326 54.0813C133 54.7224 131.924 57.9527 131.772 58.8775V58.8816Z" fill="#4EBABC"/>
<path d="M89.8959 96.1087C90.0233 96.8855 89.7356 96.5649 89.263 96.6923C86.382 97.4649 82.0748 97.317 79.1199 96.8937C71.7714 95.8457 65.9683 90.3796 58.5459 90.8933C52.6401 91.3043 48.3617 96.7087 42.8216 98.291C42.6778 97.6869 43.171 97.6869 43.4505 97.4156C44.6916 96.2114 46.3191 95.1306 47.6137 93.9223C50.5441 91.1974 54.058 86.43 58.2829 85.9697C64.349 85.3121 67.9082 88.8877 72.9181 91.3166C78.1458 93.8483 84.0928 95.6772 89.8959 96.1005V96.1087Z" fill="#126388"/>
<path d="M131.771 58.8816C131.356 61.3639 131.109 62.2969 130.403 64.6313C128.623 63.8627 127.012 62.3955 124.928 62.7161C125.323 61.479 125.689 59.9173 125.75 58.6103C127.9 58.9925 129.642 58.6638 131.771 58.8857V58.8816Z" fill="#4EBABC"/>
<path d="M130.403 107.057C130.082 108.656 129.276 110.053 128.487 111.434C123.913 111.381 119.483 109.799 114.937 109.523C103.343 108.816 90.7424 113.366 80.9857 119.375C80.624 119.596 80.1883 119.613 80.3158 120.192C80.2418 120.135 79.876 120.127 79.6335 119.929C78.3841 118.89 77.0443 117.969 75.9429 116.773C88.2642 109.926 100.894 103.889 115.484 104.871C120.498 105.208 125.352 107.086 130.403 107.057Z" fill="#126388"/>
<path d="M94.9592 136.891C95.136 136.981 95.136 137.072 94.9592 137.166V136.891Z" fill="#EFEDDE"/>
</svg>
