<?xml version="1.0" encoding="UTF-8"?>
<svg id="Layer_2" data-name="Layer 2" xmlns="http://www.w3.org/2000/svg" viewBox="0 0 1499.44 331.08">
  <defs>
    <style>
      .cls-1 {
        fill: #efedde;
      }

      .cls-2 {
        fill: #064168;
        font-family: CormorantGaramond-Bold, 'Cormorant Garamond';
        font-size: 270.01px;
        font-variation-settings: 'wght' 700;
        font-weight: 700;
      }

      .cls-3 {
        fill: #51babc;
      }

      .cls-4 {
        fill: #4ebabc;
      }

      .cls-5 {
        fill: #13668a;
      }

      .cls-6 {
        fill: #093b64;
        font-family: CormorantGaramond-SemiBold, 'Cormorant Garamond';
        font-size: 72px;
        font-variation-settings: 'wght' 600;
        font-weight: 600;
      }

      .cls-7 {
        letter-spacing: -.09em;
      }

      .cls-8 {
        letter-spacing: -.07em;
      }

      .cls-9 {
        letter-spacing: -.07em;
      }

      .cls-10 {
        fill: #126388;
      }
    </style>
  </defs>
  <g id="Final">
    <g>
      <g>
        <path class="cls-5" d="M177.2,10.34c.49,0,7.44.54,10.22.67,41.07,1.81,90.68,20.87,118.56,51.6,4.12,4.54,8.69,9.94,11.7,15.73,1.72,3.31-1.09,7.14-4.75,6.43l-8.5-1.67c-1.06-.21-2-.8-2.65-1.65C256.01,22.24,160.69,11.2,95.07,40.86,53.26,59.76,4.4,109.4,16.05,159.4c6.76,29,39.4,45.33,65.93,30.2,18.2-10.39,30.49-32.59,51.51-37.74,28.31-6.94,43.76,11.86,68.08,19.82,43.77,14.34,86.14-5.67,101.37-48.37.77-2.15,3.05-3.41,5.25-2.81,2.06.57,3.97,1.67,5.89,2.73s2.74,3.27,2.05,5.3c-18.37,53.62-74.49,76.18-127.34,53.93-28.07-11.82-41.7-30.33-70.62-4.65-20.54,18.23-34.79,36.21-66.18,31.56C-4.84,200.97-10.76,136.93,13.49,94.47,42.31,44.01,98.52,15.37,155.46,11.01c2.32-.18,3.75-.39,6.09-.51l1.54-.09c.13-.01,1.1-.07,1.23-.07h12.89Z"/>
        <path class="cls-3" d="M361.93,147.19c-5.32-14.71-15.66-30.35-28.31-39.63-1.61-.25-.85.73-.98,1.69-.66,4.7-1.77,9.19-2.58,13.84,18.11,18.69,32.36,56.28,14.15,79-16.42,20.48-42.83,7.21-63.85,6.02-42.26-2.4-65.6,13.91-101.35,29.9-24.08,10.78-59.82,16.36-78.44-7.28-4.04-5.15-5.68-11.16-8.81-16.53-.6-.17-10.9,3.54-11.77,4.05-.73.42-1.09.5-1.11,1.5-.03,1.34,3.04,8.5,3.87,10.15,15.87,31.81,55.89,37.58,87.1,27.53l1.59.3c7.56,10.57,19,16.36,27.65,26.32,8.65,9.97,19.66,32.7,33.93,34,6.87.63,11.53-1.61,17.66-4.07l-11.97-37.91c39.79,13.95,85.73-7.55,94.72-49.8,33.86-11.27,39.4-48.91,28.5-79.08ZM231.05,301.38v-.67c.43.22.43.44,0,.67ZM312.63,238.77c-13.5,23.74-41.11,31.12-66.73,24.45-10.25-2.67-24.4-12.73-23.09,6.44.72,10.51,4.69,20.51,7.9,30.38-.68.76-2.8-1.81-3.3-2.35-6.53-6.85-11.61-16.82-18.33-24.3-4.09-4.55-9-9.34-13.66-13.31-.18-.14-1.07-.16-1.66-.64-3.04-2.53-6.3-4.77-8.98-7.68,29.98-16.66,60.71-31.35,96.21-28.96,12.2.82,24.01,5.39,36.3,5.32-.78,3.89-2.74,7.29-4.66,10.65Z"/>
        <path class="cls-4" d="M320.62,110.9c-5.18-.54-9.42.26-14.65-.67-10.35-1.83-15.9-3.24-26.89-1.91-24.63,2.98-45.9,17.04-52.36,41.87,17.68-.54,33.96-8.5,47.29-19.63,1.45-1.21,3.85-3.3,4.66-5,1.43.55-.79,4.27-1.22,5.11-11.69,22.8-43.18,41.17-68.72,31.5,2.32-23.65,15.3-46.32,36.19-58.05,19.04-10.69,43.13-13.36,64.4-8.9,2.21.46,11.44,2.85,12.65,4,1.64,1.56-.98,9.42-1.35,11.67Z"/>
        <path class="cls-10" d="M218.73,201.48c.31,1.89-.39,1.11-1.54,1.42-7.01,1.88-17.49,1.52-24.68.49-17.88-2.55-32-15.85-50.06-14.6-14.37,1-24.78,14.15-38.26,18-.35-1.47.85-1.47,1.53-2.13,3.02-2.93,6.98-5.56,10.13-8.5,7.13-6.63,15.68-18.23,25.96-19.35,14.76-1.6,23.42,7.1,35.61,13.01,12.72,6.16,27.19,10.61,41.31,11.64Z"/>
        <path class="cls-4" d="M320.62,110.9c-1.01,6.04-1.61,8.31-3.33,13.99-4.33-1.87-8.25-5.44-13.32-4.66.96-3.01,1.85-6.81,2-9.99,5.23.93,9.47.13,14.65.67Z"/>
        <path class="cls-10" d="M317.29,228.12c-.78,3.89-2.74,7.29-4.66,10.65-11.13-.13-21.91-3.98-32.97-4.65-28.21-1.72-58.87,9.35-82.61,23.97-.88.54-1.94.58-1.63,1.99-.18-.14-1.07-.16-1.66-.64-3.04-2.53-6.3-4.77-8.98-7.68,29.98-16.66,60.71-31.35,96.21-28.96,12.2.82,24.01,5.39,36.3,5.32Z"/>
        <path class="cls-1" d="M231.05,300.71c.43.22.43.44,0,.67v-.67Z"/>
      </g>
      <text id="SALUD_MENTAL_E_INTEGRATIVA" data-name="SALUD MENTAL E INTEGRATIVA" class="cls-6" transform="translate(424.13 310.7)"><tspan x="0" y="0">SALUD MEN</tspan><tspan class="cls-9" x="397.65" y="0">T</tspan><tspan x="438.69" y="0">AL E INTEGR</tspan><tspan class="cls-8" x="866.3" y="0">A</tspan><tspan x="912.45" y="0">TI</tspan><tspan class="cls-7" x="982.94" y="0">V</tspan><tspan x="1023.83" y="0">A</tspan></text>
      <text class="cls-2" transform="translate(431.38 219.38)"><tspan x="0" y="0">GALENE</tspan></text>
    </g>
  </g>
</svg>